<?xml version="1.0" encoding="UTF-8"?> <!-- Generator: Adobe Illustrator 24.1.1, SVG Export Plug-In . SVG Version: 6.00 Build 0) --> <svg xmlns:xodm="http://www.corel.com/coreldraw/odm/2003" xmlns="http://www.w3.org/2000/svg" xmlns:xlink="http://www.w3.org/1999/xlink" id="Layer_1" x="0px" y="0px" viewBox="0 0 839 829" style="enable-background:new 0 0 839 829;" xml:space="preserve"> <style type="text/css"> .st0{fill-rule:evenodd;clip-rule:evenodd;fill:url(#SVGID_1_);} .st1{fill-rule:evenodd;clip-rule:evenodd;fill:#808080;} .st2{fill-rule:evenodd;clip-rule:evenodd;fill:#E6E6E6;} .st3{fill-rule:evenodd;clip-rule:evenodd;fill:url(#SVGID_2_);} .st4{fill-rule:evenodd;clip-rule:evenodd;fill:url(#SVGID_3_);} .st5{fill-rule:evenodd;clip-rule:evenodd;fill:url(#SVGID_4_);} .st6{fill-rule:evenodd;clip-rule:evenodd;fill:url(#SVGID_5_);} .st7{clip-path:url(#SVGID_7_);} .st8{fill-rule:evenodd;clip-rule:evenodd;fill:url(#SVGID_8_);} .st9{fill-rule:evenodd;clip-rule:evenodd;fill:url(#SVGID_9_);} .st10{fill-rule:evenodd;clip-rule:evenodd;fill:url(#SVGID_10_);} .st11{clip-path:url(#SVGID_12_);} .st12{fill:url(#SVGID_13_);} .st13{fill:#666666;} .st14{fill:url(#SVGID_14_);} .st15{fill:url(#SVGID_15_);} .st16{fill:url(#SVGID_16_);} .st17{fill:url(#SVGID_17_);} .st18{fill:url(#SVGID_18_);} </style> <g id="Layer_x0020_1"> <linearGradient id="SVGID_1_" gradientUnits="userSpaceOnUse" x1="57362.3867" y1="-30732.041" x2="57362.3867" y2="-52316.2734" gradientTransform="matrix(2.834646e-02 0 0 -2.834646e-02 -1192.2189 -759.2331)"> <stop offset="0" style="stop-color:#999999"></stop> <stop offset="0.3961" style="stop-color:#808080"></stop> <stop offset="0.5216" style="stop-color:#E6E6E6"></stop> <stop offset="1" style="stop-color:#666666"></stop> </linearGradient> <path class="st0" d="M433.8,95.4c180.1,0,326.2,146,326.2,326.2c0,180.1-146,326.2-326.2,326.2c-180.1,0-326.2-146-326.2-326.2 C107.6,241.4,253.7,95.4,433.8,95.4L433.8,95.4z"></path> <path class="st1" d="M433.8,94.2c180.8,0,327.4,146.6,327.4,327.4c0,180.8-146.6,327.4-327.4,327.4 c-180.8,0-327.4-146.6-327.4-327.4C106.4,240.7,253,94.2,433.8,94.2z M433.8,105.8c174.4,0,315.8,141.4,315.8,315.8 c0,174.4-141.4,315.8-315.8,315.8C259.4,737.3,118,595.9,118,421.5C118,247.1,259.4,105.8,433.8,105.8z"></path> <path class="st2" d="M433.8,96.8c179.3,0,324.7,145.4,324.7,324.7c0,179.3-145.4,324.7-324.7,324.7 c-179.3,0-324.7-145.4-324.7-324.7C109.1,242.2,254.5,96.8,433.8,96.8z M433.8,103.3c175.7,0,318.2,142.5,318.2,318.2 c0,175.7-142.5,318.2-318.2,318.2c-175.8,0-318.2-142.5-318.2-318.2C115.6,245.8,258.1,103.3,433.8,103.3L433.8,103.3z"></path> <path class="st2" d="M433.8,96.8c179.3,0,324.7,145.4,324.7,324.7c0,179.3-145.4,324.7-324.7,324.7 c-179.3,0-324.7-145.4-324.7-324.7C109.1,242.2,254.5,96.8,433.8,96.8z M433.8,103.3c175.7,0,318.2,142.5,318.2,318.2 c0,175.7-142.5,318.2-318.2,318.2c-175.8,0-318.2-142.5-318.2-318.2C115.6,245.8,258.1,103.3,433.8,103.3z"></path> <linearGradient id="SVGID_2_" gradientUnits="userSpaceOnUse" x1="57362.4141" y1="-52976.3789" x2="57362.4141" y2="-40749.418" gradientTransform="matrix(2.834646e-02 0 0 -2.834646e-02 -1192.2189 -759.2331)"> <stop offset="0" style="stop-color:#666666"></stop> <stop offset="1" style="stop-color:#FEFEFE"></stop> </linearGradient> <path class="st3" d="M433.8,97.4c179,0,324.1,145.1,324.1,324.1c0,179-145.1,324.1-324.1,324.1c-179,0-324.1-145.1-324.1-324.1 C109.7,242.5,254.8,97.4,433.8,97.4L433.8,97.4z M433.8,100.4c177.3,0,321.1,143.8,321.1,321.1c0,177.3-143.8,321.1-321.1,321.1 c-177.3,0-321.1-143.8-321.1-321.1C112.7,244.2,256.5,100.4,433.8,100.4z"></path> <linearGradient id="SVGID_3_" gradientUnits="userSpaceOnUse" x1="57362.3984" y1="-54782.6211" x2="57362.3984" y2="-28908.4688" gradientTransform="matrix(2.834646e-02 0 0 -2.834646e-02 -1192.2189 -759.2331)"> <stop offset="0" style="stop-color:#969696"></stop> <stop offset="1" style="stop-color:#DBDBDB"></stop> </linearGradient> <path class="st4" d="M433.8,110.7c171.7,0,310.8,139.2,310.8,310.8c0,171.7-139.2,310.8-310.8,310.8 C262.1,732.4,123,593.2,123,421.5C123,249.9,262.1,110.7,433.8,110.7z"></path> <linearGradient id="SVGID_4_" gradientUnits="userSpaceOnUse" x1="57362.3906" y1="-51898.7422" x2="57362.3906" y2="-31708.4375" gradientTransform="matrix(2.834646e-02 0 0 -2.834646e-02 -1192.2189 -759.2331)"> <stop offset="0" style="stop-color:#999999"></stop> <stop offset="1" style="stop-color:#DBDBDB"></stop> </linearGradient> <path class="st5" d="M433.8,179c134,0,242.6,108.6,242.6,242.6S567.8,664.1,433.8,664.1S191.2,555.5,191.2,421.5 S299.8,179,433.8,179z"></path> <linearGradient id="SVGID_5_" gradientUnits="userSpaceOnUse" x1="57362.4102" y1="-46565.6914" x2="57362.4102" y2="-33094.6094" gradientTransform="matrix(2.834646e-02 0 0 -2.834646e-02 -1192.2189 -759.2331)"> <stop offset="0" style="stop-color:#808080"></stop> <stop offset="1" style="stop-color:#FEFEFE"></stop> </linearGradient> <path class="st6" d="M433.8,174.9c136.2,0,246.6,110.4,246.6,246.6c0,136.2-110.4,246.6-246.6,246.6 c-136.2,0-246.6-110.4-246.6-246.6C187.2,285.3,297.6,174.9,433.8,174.9z M433.8,179.8c133.5,0,241.7,108.2,241.7,241.7 c0,133.5-108.2,241.7-241.7,241.7c-133.5,0-241.7-108.2-241.7-241.7C192.1,288,300.3,179.8,433.8,179.8L433.8,179.8z"></path> <path class="st1" d="M433.8,179c133.9,0,242.5,108.6,242.5,242.5c0,133.9-108.6,242.5-242.5,242.5 c-133.9,0-242.5-108.6-242.5-242.5C191.3,287.6,299.9,179,433.8,179L433.8,179z M433.8,183.9c131.3,0,237.7,106.4,237.7,237.7 c0,131.3-106.4,237.7-237.7,237.7c-131.3,0-237.7-106.4-237.7-237.7C196.1,290.3,302.5,183.9,433.8,183.9z"></path> <g id="_2161249689520"> <g> <defs> <rect id="SVGID_6_" x="414.3" y="664.8" width="39.1" height="71.1"></rect> </defs> <clipPath id="SVGID_7_"> <use xlink:href="#SVGID_6_" style="overflow:visible;"></use> </clipPath> <g class="st7"> <image style="overflow:visible;enable-background:new ;" width="30" height="55" xlink:href="BNTX_Coin_Images/BNTX_Coin_ImgID1.png" transform="matrix(1.2954 0 0 1.2954 1325.3115 1565.8784)"> </image> </g> </g> </g> <g id="_2161249677136"> <linearGradient id="SVGID_8_" gradientUnits="userSpaceOnUse" x1="57362.3867" y1="-52611.3438" x2="57362.3867" y2="-50385.4297" gradientTransform="matrix(2.834646e-02 0 0 -2.834646e-02 -1192.2189 -759.2331)"> <stop offset="0" style="stop-color:#666666"></stop> <stop offset="1" style="stop-color:#CCCCCC"></stop> </linearGradient> <polygon class="st8" points="433.8,669.3 448.8,700.3 433.8,731.4 418.8,700.3 "></polygon> <linearGradient id="SVGID_9_" gradientUnits="userSpaceOnUse" x1="57362.3906" y1="-50478.5977" x2="57362.3906" y2="-52488.3789" gradientTransform="matrix(2.834646e-02 0 0 -2.834646e-02 -1192.2189 -759.2331)"> <stop offset="0" style="stop-color:#666666"></stop> <stop offset="1" style="stop-color:#CCCCCC"></stop> </linearGradient> <polygon class="st9" points="433.8,728.4 447.4,700.3 433.8,672.3 420.2,700.3 "></polygon> </g> <linearGradient id="SVGID_10_" gradientUnits="userSpaceOnUse" x1="57362.4023" y1="-42045.1836" x2="57362.3789" y2="-35205.9375" gradientTransform="matrix(2.834646e-02 0 0 -2.834646e-02 -1192.2189 -759.2331)"> <stop offset="0" style="stop-color:#999999"></stop> <stop offset="0.3608" style="stop-color:#666666"></stop> <stop offset="1" style="stop-color:#E6E6E6"></stop> </linearGradient> <path class="st10" d="M352.2,241.8c51.2-16.6,106.2,11.4,122.8,62.6c16.6,51.2-11.4,106.2-62.6,122.8 c-51.2,16.6-106.2-11.4-122.9-62.6C273,313.4,301,258.4,352.2,241.8L352.2,241.8z M483.8,289.5c41.7-0.6,80.6,25.7,94.2,67.4 c16.6,51.2-11.4,106.2-62.6,122.8c-41.7,13.5-85.9-2.5-109.9-36.6c3-0.7,6-1.5,9-2.5c1.3-0.4,2.5-0.9,3.8-1.3 c21.4,27.3,58.3,39.8,93.1,28.5c44.6-14.5,69-62.4,54.5-107c-11.3-34.9-43.1-57.4-77.8-58.6c-0.4-1.3-0.7-2.6-1.2-3.8 C486.1,295.3,485,292.3,483.8,289.5L483.8,289.5z M492.2,323.5c24.2,2.7,45.7,19.1,53.7,43.7c10.9,33.5-7.5,69.5-41,80.4 c-24.6,8-50.6,0.2-67-17.8C474.8,407.8,495.9,366.3,492.2,323.5z M362.6,273.8c33.5-10.9,69.5,7.5,80.4,41 c10.9,33.5-7.5,69.5-41,80.4s-69.5-7.5-80.4-41C310.8,320.7,329.1,284.7,362.6,273.8L362.6,273.8z M356.1,253.8 c44.6-14.5,92.5,9.9,107,54.5c14.5,44.6-9.9,92.5-54.5,107c-44.6,14.5-92.5-9.9-107-54.5C287.1,316.2,311.5,268.3,356.1,253.8 L356.1,253.8z"></path> <path class="st1" d="M354.3,244.8c49.9-16.2,103.6,11.1,119.8,61.1c16.2,49.9-11.1,103.6-61.1,119.8 c-50,16.2-103.6-11.1-119.8-61.1C277,314.6,304.3,261,354.3,244.8L354.3,244.8z M482.6,291.2c40.6-0.6,78.6,25.1,91.8,65.7 c16.2,49.9-11.1,103.6-61.1,119.8c-40.7,13.2-83.8-2.5-107.1-35.7c2.9-0.7,5.9-1.5,8.8-2.5c1.2-0.4,2.5-0.8,3.7-1.3 c20.8,26.6,56.8,38.8,90.8,27.8c43.5-14.1,67.3-60.8,53.2-104.3c-11.1-34-42-56-75.8-57.2c-0.4-1.2-0.7-2.5-1.1-3.7 C484.8,296.9,483.7,294,482.6,291.2L482.6,291.2z M490.8,324.5c23.6,2.6,44.6,18.6,52.4,42.7c10.6,32.7-7.3,67.8-40,78.4 c-24,7.8-49.3,0.2-65.3-17.3C473.8,406.6,494.4,366.2,490.8,324.5L490.8,324.5z M364.4,276c32.7-10.6,67.8,7.3,78.4,40 c10.6,32.7-7.3,67.8-40,78.4c-32.7,10.6-67.8-7.3-78.4-40C313.8,321.7,331.7,286.6,364.4,276L364.4,276z M358.1,256.4 c43.5-14.1,90.2,9.7,104.3,53.2c14.1,43.5-9.7,90.2-53.2,104.3s-90.2-9.7-104.3-53.2C290.8,317.3,314.6,270.6,358.1,256.4 L358.1,256.4z"></path> <g id="_2161249671152"> <g> <defs> <rect id="SVGID_11_" x="285" y="503.4" width="307.3" height="76.9"></rect> </defs> <clipPath id="SVGID_12_"> <use xlink:href="#SVGID_11_" style="overflow:visible;"></use> </clipPath> <g class="st11"> <image style="overflow:visible;enable-background:new ;" width="233" height="59" xlink:href="BNTX_Coin_Images/BNTX_Coin_ImgID2.png" transform="matrix(1.3178 0 0 1.3178 1066.8046 1242.7622)"> </image> </g> </g> </g> <g id="_2161249665072"> <linearGradient id="SVGID_13_" gradientUnits="userSpaceOnUse" x1="57518.668" y1="-47642.3555" x2="57518.668" y2="-44331.4883" gradientTransform="matrix(2.834646e-02 0 0 -2.834646e-02 -1192.2189 -759.2331)"> <stop offset="0" style="stop-color:#666666"></stop> <stop offset="0.451" style="stop-color:#B2B2B2"></stop> <stop offset="1" style="stop-color:#FEFEFE"></stop> </linearGradient> <path class="st12" d="M356.4,559.2c0,1.5-0.3,3.1-0.8,4.9c-0.5,1.7-1.4,3.3-2.5,4.8c-1.2,1.5-2.7,2.7-4.6,3.7 c-1.9,1-4.2,1.5-6.9,1.5h-46.6c-0.9,0-1.7-0.2-2.5-0.5c-0.8-0.3-1.4-0.8-2-1.3c-0.5-0.6-1-1.2-1.3-2c-0.3-0.8-0.5-1.6-0.5-2.5 v-55.5c0-0.9,0.1-1.7,0.5-2.4c0.3-0.8,0.7-1.4,1.3-2c0.6-0.6,1.2-1,2-1.3c0.8-0.3,1.6-0.5,2.5-0.5H336c1.5,0,3.1,0.3,4.9,0.8 c1.7,0.5,3.3,1.4,4.8,2.6c1.5,1.2,2.7,2.7,3.7,4.6c1,1.9,1.5,4.2,1.5,7v2.3c0,2.2-0.4,4.5-1.1,7c-0.7,2.5-1.9,4.9-3.5,7.1 c1.4,0.9,2.7,1.9,3.9,3.1c1.2,1.2,2.3,2.6,3.2,4.2c0.9,1.6,1.6,3.4,2.2,5.4c0.5,2,0.8,4.2,0.8,6.6V559.2L356.4,559.2z M344.2,556.8c0-1.6-0.3-3.1-0.8-4.3c-0.5-1.3-1.2-2.4-2.1-3.3c-0.9-0.9-2-1.6-3.3-2.1c-1.3-0.5-2.7-0.7-4.3-0.7H306v-12.4h22.2 c1.6,0,3-0.3,4.3-0.7c1.3-0.5,2.4-1.2,3.3-2.1c0.9-0.9,1.6-2,2.1-3.3c0.5-1.3,0.7-2.7,0.7-4.3v-2.3c0-1.8-0.8-2.7-2.5-2.7h-35 v43.3h40.5c0.2,0,0.5,0,0.8,0c0.3,0,0.6-0.1,0.9-0.3c0.2-0.2,0.5-0.4,0.7-0.8c0.2-0.4,0.3-0.9,0.3-1.6V556.8z M434.8,568.9 c0,0.9-0.2,1.7-0.5,2.5c-0.3,0.8-0.8,1.4-1.3,2c-0.5,0.6-1.2,1-2,1.3c-0.8,0.3-1.5,0.5-2.4,0.5c-0.8,0-1.5-0.1-2.3-0.4 c-0.8-0.3-1.5-0.7-2.1-1.4l-44.9-47v47.9h-12.3v-62.7c0-1.3,0.4-2.4,1.1-3.4c0.7-1,1.6-1.8,2.7-2.3c1.2-0.5,2.4-0.6,3.6-0.4 c1.2,0.2,2.3,0.8,3.2,1.7l44.9,47v-47.9h12.3V568.9L434.8,568.9z M510.3,518.5h-27.1v55.7h-12.3v-55.7h-27.1v-12.3h66.5V518.5z M550.2,530.4l20.7-24.3h16.8l-29.2,34.1l29,33.9h-16.7l-20.6-24.1l-20.5,24.1H513l28.9-33.9l-29-34.1h16.6L550.2,530.4z"></path> <path class="st13" d="M359.8,559c0,1.5-0.3,3.1-0.8,4.8c-0.5,1.7-1.4,3.3-2.5,4.8c-1.2,1.5-2.7,2.7-4.6,3.7 c-1.9,1-4.2,1.5-6.9,1.5h-46.2c-0.9,0-1.7-0.2-2.4-0.5c-0.8-0.3-1.4-0.8-1.9-1.3c-0.5-0.5-1-1.2-1.3-1.9c-0.3-0.8-0.5-1.6-0.5-2.4 v-54.9c0-0.8,0.1-1.6,0.5-2.4c0.3-0.8,0.7-1.4,1.3-2c0.6-0.6,1.2-1,1.9-1.3c0.8-0.3,1.6-0.5,2.4-0.5h40.7c1.5,0,3.1,0.3,4.8,0.8 c1.7,0.5,3.3,1.4,4.8,2.5c1.5,1.2,2.7,2.7,3.7,4.6c1,1.9,1.5,4.2,1.5,6.9v2.3c0,2.2-0.4,4.5-1.1,7c-0.7,2.5-1.9,4.8-3.5,7 c1.4,0.8,2.7,1.9,3.9,3.1c1.2,1.2,2.3,2.6,3.2,4.1c0.9,1.6,1.6,3.3,2.2,5.3c0.5,2,0.8,4.1,0.8,6.5V559L359.8,559z M347.7,556.6 c0-1.6-0.3-3-0.8-4.3c-0.5-1.3-1.2-2.3-2.1-3.3c-0.9-0.9-2-1.6-3.3-2.1c-1.3-0.5-2.7-0.7-4.3-0.7h-27.4V534h22 c1.6,0,3-0.3,4.3-0.7c1.3-0.5,2.4-1.2,3.3-2.1c0.9-0.9,1.6-2,2.1-3.3c0.5-1.3,0.7-2.7,0.7-4.3v-2.3c0-1.8-0.8-2.6-2.5-2.6h-34.7 v42.8h40.2c0.2,0,0.5,0,0.8,0c0.3,0,0.6-0.1,0.8-0.3c0.2-0.2,0.5-0.4,0.7-0.8c0.2-0.4,0.3-0.9,0.3-1.6L347.7,556.6L347.7,556.6z M437.5,568.5c0,0.9-0.2,1.7-0.5,2.4c-0.3,0.8-0.8,1.4-1.3,1.9c-0.5,0.5-1.2,1-1.9,1.3c-0.8,0.3-1.5,0.5-2.4,0.5 c-0.8,0-1.5-0.1-2.3-0.4c-0.8-0.3-1.5-0.7-2-1.4l-44.5-46.4v47.3h-12.2v-61.9c0-1.2,0.4-2.4,1.1-3.4c0.7-1,1.6-1.8,2.7-2.3 c1.2-0.5,2.3-0.6,3.5-0.4c1.2,0.2,2.3,0.8,3.1,1.7l44.5,46.4v-47.3h12.2L437.5,568.5L437.5,568.5z M512.3,518.7h-26.8v55h-12.2 v-55h-26.9v-12.2h65.9V518.7z M551.9,530.6l20.5-24h16.6l-28.9,33.7l28.7,33.5h-16.5l-20.4-23.8l-20.3,23.8H515l28.7-33.5 l-28.7-33.7h16.5L551.9,530.6z"></path> </g> <linearGradient id="SVGID_14_" gradientUnits="userSpaceOnUse" x1="55933.6406" y1="-31414.8027" x2="55933.6406" y2="-52869.9023" gradientTransform="matrix(2.834646e-02 0 0 -2.834646e-02 -1192.2189 -759.2331)"> <stop offset="0" style="stop-color:#808080"></stop> <stop offset="0.3843" style="stop-color:#BFBFBF"></stop> <stop offset="0.4588" style="stop-color:#333333"></stop> <stop offset="1" style="stop-color:#FEFEFE"></stop> </linearGradient> <path class="st14" d="M351.7,708.9l-32-11.2l2.4-10l1.6,0.6c-0.6,3.1-0.6,5.4,0.1,6.8c0.7,1.5,2.4,2.7,5.1,3.6l4.2,1.5l9.9-28.2 c0.7-1.9,0.8-3.2,0.5-3.8c-0.3-0.6-1.4-1.3-3.3-1.9l-0.6-0.2l0.7-2c1.5,0.6,2.9,1.2,4.2,1.7c1.3,0.5,2.5,1,3.6,1.3 c0.7,0.3,1.7,0.6,2.9,1c1.2,0.4,3,1,5.5,1.7l-0.7,2l-0.6-0.2c-1.8-0.6-3.1-0.8-3.7-0.5c-0.6,0.3-1.3,1.4-2,3.3l-9.9,28.2l4.2,1.5 c2.7,1,4.8,1.1,6.3,0.4c1.5-0.7,2.9-2.4,4.4-5.2l1.6,0.6L351.7,708.9L351.7,708.9z M291.8,682.4c3.1,1.6,6.2,1.5,9.5-0.3 c3.3-1.8,6.2-5.2,8.8-10c2.6-4.9,3.8-9.3,3.4-13c-0.3-3.7-2.1-6.4-5.4-8.2c-3.1-1.6-6.2-1.5-9.5,0.4c-3.3,1.9-6.2,5.2-8.8,10 c-2.6,4.9-3.7,9.2-3.4,13C286.8,677.9,288.6,680.7,291.8,682.4L291.8,682.4z M290.6,684.1c-5-2.6-8.1-6.4-9.5-11.3 c-1.4-4.9-0.7-9.9,2.1-15.2c2.7-5.1,6.5-8.4,11.5-10c5-1.6,9.9-1.1,14.8,1.5c4.9,2.6,8.1,6.4,9.5,11.2c1.4,4.8,0.7,9.8-2,15 c-2.8,5.2-6.6,8.6-11.6,10.3C300.4,687.2,295.5,686.8,290.6,684.1L290.6,684.1z M239.9,644.7l-2.1,1.6l-1.3-1.1 c0.8-0.9,1.6-1.8,2.2-2.5c0.6-0.7,1.2-1.4,1.7-2c0.8-1,2.1-2.6,3.7-4.7l0.3-0.3l1.4,1.1c-2,2.9-2.9,5.7-2.6,8.4 c0.3,2.7,1.6,5,4.1,7c3.2,2.6,6.5,3.4,10,2.3c3.5-1,7.2-3.9,11-8.6c3.6-4.4,5.5-8.3,5.8-11.8c0.3-3.5-1.1-6.5-4.1-8.9 c-1.9-1.5-3.6-2.4-5.1-2.7c-1.5-0.3-2.7,0.1-3.6,1.2l-2.8,3.5c-1.2,1.4-0.4,3.3,2.2,5.6c0.6,0.5,1.1,1,1.4,1.2l-1.3,1.6 c-1.4-1.2-2.6-2.3-3.7-3.3c-1.1-0.9-2.1-1.8-3-2.5c-0.6-0.5-1.3-1-2.2-1.7c-0.9-0.7-2.2-1.7-4-3l1.3-1.6c0.9,0.6,1.7,1,2.2,1 c0.5,0,1-0.3,1.6-0.9l5.9-7.3l1.2,3c2.2,0,4.2,0.4,6.1,1.1c1.9,0.7,3.9,1.9,5.9,3.6c4.5,3.6,6.9,7.8,7.3,12.5 c0.4,4.7-1.3,9.4-5.1,14c-3.9,4.8-8.4,7.6-13.5,8.2c-5.1,0.7-9.8-0.8-14.3-4.4c-1.6-1.3-2.9-2.7-4-4.3 C241.5,648.5,240.6,646.7,239.9,644.7L239.9,644.7z M204.2,611.7c0.9-0.9,1.9-1.9,3-3c1.1-1.1,2.5-2.6,4.2-4.4l1.2,1.3 c-2.1,2.4-3.1,4.4-3.1,6c0,1.7,1.3,3.8,3.6,6.3l5.6,6l11-10.1l-2.6-2.8c-1.6-1.8-2.9-2.6-3.8-2.6c-0.9,0-2.4,0.8-4.4,2.5l-1.2-1.3 c0.4-0.3,1-0.8,1.7-1.5c1.9-1.6,3.2-2.7,3.8-3.3c1-0.9,2.7-2.6,5-4.8c0.4-0.3,0.6-0.6,0.8-0.8l1.2,1.3c-2.1,2.1-3.3,3.7-3.4,4.8 c-0.2,1.1,0.5,2.5,2,4.2l2.6,2.8l12.7-11.6l-6.9-7.5c-2.4-2.7-4.6-4.1-6.4-4.2c-1.8-0.1-4.1,0.9-7,3.1l-1.2-1.3 c1.7-1.3,3.3-2.5,4.7-3.7c1.4-1.2,2.8-2.3,4.1-3.4l21.9,23.8l-1.5,1.4c-1.3-1.4-2.3-2.2-3.1-2.2c-0.7,0-1.8,0.6-3.3,2L226.7,626 c-1.5,1.3-2.2,2.4-2.2,3.1c0,0.7,0.6,1.8,1.9,3.3l-1.6,1.5l-4.7-5.1c-3.3-3.6-6.3-6.8-8.9-9.6C208.5,616.3,206.2,613.8,204.2,611.7 L204.2,611.7z M193.3,597.7l-17.8-28.8l8.2-6.3l0.9,1.5c-2.4,2-3.8,3.8-4.2,5.4c-0.4,1.6,0.2,3.6,1.7,6l2.3,3.8l25.5-15.7 c1.7-1.1,2.7-2,2.8-2.7c0.2-0.7-0.3-1.9-1.3-3.6l-0.3-0.5l1.8-1.1c0.8,1.4,1.5,2.7,2.2,3.9c0.7,1.2,1.4,2.3,2,3.3 c0.4,0.7,1,1.5,1.6,2.6c0.7,1,1.7,2.6,3.2,4.8l-1.8,1.1l-0.3-0.5c-1-1.7-1.9-2.6-2.6-2.8c-0.7-0.2-1.9,0.3-3.6,1.3l-25.5,15.7 l2.3,3.8c1.5,2.4,3,3.9,4.6,4.3c1.6,0.4,3.8-0.1,6.7-1.3l0.9,1.5L193.3,597.7L193.3,597.7z M169.3,557.2c-0.2-0.5-0.5-1.2-0.8-2.2 c-0.9-2.5-1.6-4.2-1.9-5c-0.5-1-1.4-2.9-2.7-5.7c-0.3-0.7-0.6-1.2-0.8-1.6l2-0.9c0.8,1.8,1.5,2.8,2.2,3.1c0.7,0.3,1.9,0,3.7-0.7 l9.5-4.1l-6.8-15.7l-9.5,4.1c-1.8,0.8-2.9,1.5-3.1,2.2c-0.2,0.7,0,1.9,0.7,3.7l-2,0.9c-0.2-0.5-0.4-1.1-0.7-1.9 c-1-2.6-1.6-4.3-2-5.2c-0.4-1-1.4-2.9-2.7-5.7c-0.3-0.7-0.6-1.2-0.8-1.6l2-0.9c0.8,1.8,1.5,2.8,2.2,3.1c0.7,0.3,1.9,0,3.7-0.8 l23.3-10.1c1.9-0.8,2.9-1.5,3.2-2.2c0.2-0.7,0-1.9-0.8-3.7l1.9-0.8c0.5,1.4,1,2.7,1.5,3.9c0.5,1.2,0.9,2.3,1.3,3.3 c0.3,0.7,0.7,1.5,1.2,2.6c0.5,1,1.2,2.6,2.3,4.7l-1.9,0.8c-0.8-1.8-1.5-2.8-2.2-3c-0.7-0.3-1.9,0-3.8,0.8l-11.8,5.1l6.8,15.7 l11.8-5.1c1.8-0.8,2.9-1.5,3.1-2.2c0.3-0.7,0-1.9-0.8-3.7l1.9-0.8c0.7,2,1.3,3.5,1.8,4.6c0.4,1.1,0.8,1.9,1.1,2.6 c0.5,1.1,1,2.2,1.6,3.4c0.6,1.2,1.2,2.5,1.9,3.9l-1.9,0.9c-0.8-1.8-1.5-2.8-2.2-3.1c-0.7-0.3-1.9,0-3.8,0.8l-23.3,10.1 c-1.8,0.8-2.9,1.5-3.1,2.2c-0.2,0.7,0,1.9,0.7,3.7L169.3,557.2L169.3,557.2z M143,475.9c1.2-0.3,2.6-0.7,4.1-1.1 c1.5-0.4,3.5-1,5.8-1.7l0.4,1.7c-3,1-4.9,2.2-5.7,3.7c-0.8,1.5-0.8,3.9-0.1,7.3l1.7,8l14.7-3.2l-0.8-3.7c-0.5-2.3-1.2-3.8-2-4.2 c-0.8-0.5-2.5-0.5-5.1-0.1l-0.4-1.7c0.5-0.1,1.3-0.2,2.2-0.4c2.5-0.4,4.1-0.8,4.9-0.9c1.4-0.3,3.6-0.8,6.8-1.7 c0.5-0.1,0.8-0.2,1-0.3l0.4,1.7c-2.9,0.8-4.7,1.6-5.4,2.5c-0.7,0.9-0.8,2.4-0.3,4.6l0.8,3.7l16.8-3.7l-2.2-10 c-0.8-3.5-1.9-5.8-3.4-6.8c-1.5-1-4-1.3-7.6-0.8l-0.4-1.7c2.1-0.3,4.1-0.5,5.9-0.8c1.8-0.3,3.6-0.6,5.2-0.8l6.9,31.6l-2.1,0.4 c-0.4-1.9-0.9-3.1-1.6-3.5c-0.6-0.4-1.9-0.4-3.8,0l-24.8,5.4c-2,0.4-3.1,0.9-3.5,1.5c-0.4,0.6-0.4,1.9,0,3.8l-2.1,0.5l-1.5-6.7 c-1-4.8-2-9-2.8-12.8C144.4,482,143.7,478.7,143,475.9L143,475.9z M157.9,447.1c0-0.4,0-0.9,0-1.3c0-0.4,0-1-0.1-1.6 c-0.2-3.2-1-5.5-2.4-6.8c-1.4-1.3-3.6-1.9-6.5-1.7c-2.7,0.2-4.6,1-5.8,2.5c-1.2,1.5-1.7,3.7-1.5,6.7c0,0.6,0.1,1.6,0.3,3 c0,0.1,0,0.2,0,0.3L157.9,447.1L157.9,447.1z M140.5,459.6c0-1.2-0.1-2.4-0.1-3.5c-0.1-1.2-0.1-2.4-0.2-3.6c-0.1-1-0.2-2.4-0.4-4.4 c-0.2-1.9-0.3-3.3-0.4-4.2c-0.3-4.9,0.2-8.6,1.6-11.1c1.4-2.5,3.7-3.9,6.8-4.1c3.1-0.2,5.5,0.6,7.2,2.4c1.7,1.8,2.8,4.7,3.3,8.7 c0-3.7,0.6-6.3,1.7-8c1.1-1.6,3.2-2.7,6.1-3.3c0.8-0.2,1.8-0.3,3.2-0.5c3.1-0.4,4.6-1.3,4.5-2.7c0-0.7-0.3-1.3-0.9-1.7 c-0.5-0.4-1.3-0.7-2.4-0.8l0.2-1.5c2.2,0.2,3.8,0.8,4.9,1.8c1.1,1,1.7,2.6,1.9,4.6c0.2,2.3-0.3,4-1.5,5.1c-1.1,1.1-3,1.7-5.8,1.9 c-0.3,0-0.8,0.1-1.4,0.1c-0.6,0-1.1,0-1.5,0.1c-3.3,0.2-5.4,1-6.4,2.3c-1,1.3-1.4,3.6-1.2,7l0.2,2.8l11.6-0.8c2-0.1,3.3-0.5,3.7-1 c0.5-0.6,0.6-1.8,0.5-3.7l2.1-0.1c0,2.2,0.1,3.8,0.1,4.9c0,1.1,0.1,2,0.1,2.7c0,0.8,0.1,1.7,0.2,2.9c0.1,1.2,0.3,2.9,0.5,5.2 l-2.1,0.1c-0.1-1.9-0.5-3.2-1-3.6c-0.6-0.5-1.8-0.7-3.8-0.5l-25.4,1.7c-2,0.1-3.2,0.5-3.7,1c-0.5,0.6-0.6,1.8-0.5,3.7L140.5,459.6 L140.5,459.6z M141.8,378.9c0.5-1.6,0.9-2.9,1.2-4.1c0.3-1.1,0.6-2.1,0.7-2.7c0.3-1.3,0.8-3.6,1.4-6.7c0.1-0.5,0.1-0.8,0.2-1 l2.1,0.5c-0.3,1.3-0.4,2.2-0.2,2.8c0.1,0.5,0.5,0.9,1.1,1c0.3,0.1,0.6,0.1,1,0.1c0.4,0,1,0,1.6,0l25-1.6l-19.4-12.3l-3.1,0.3 c-1.6,0.1-2.7,0.4-3.2,0.9c-0.5,0.5-0.9,1.3-1.2,2.5l-2.1-0.5c0.2-0.6,0.4-1.3,0.7-2.3c0.7-2.3,1.1-3.8,1.3-4.5 c0.3-1.3,0.8-3.5,1.3-6.7c0.1-0.5,0.2-0.9,0.2-1.2l2.1,0.5c-0.3,1.5-0.4,2.5-0.2,3.1c0.2,0.5,0.6,0.9,1.3,1 c0.2,0.1,0.5,0.1,0.9,0.1c0.3,0,0.9,0,1.6-0.1l24.8-1.5l-21-13.2c-0.4-0.2-0.8-0.4-1.2-0.6c-0.4-0.2-0.8-0.3-1-0.4 c-0.7-0.2-1.3,0-1.8,0.4c-0.4,0.5-0.9,1.4-1.2,2.8l-2.1-0.5c0.4-1.3,0.7-2.3,1-3.1c0.2-0.8,0.4-1.4,0.6-2c0.1-0.6,0.3-1.2,0.4-2 c0.1-0.8,0.3-1.8,0.5-3l2.1,0.5c-0.2,1.2-0.1,2.1,0.1,2.6c0.2,0.6,0.7,1.1,1.4,1.5l21.6,14c0.5,0.3,1.7,1.1,3.3,2.2 c1.7,1.1,3.6,2.4,5.8,3.9l-1,2.5l-28.2,2.4l16.1,10.4c1.2,0.7,2.4,1.6,3.8,2.5c1.4,0.9,2.8,1.9,4.2,2.9l-1,2.5l-35.1,3.2 c-1.5,0.2-2.6,0.5-3,0.9c-0.5,0.5-0.9,1.3-1.2,2.5L141.8,378.9L141.8,378.9z M174.1,285.3c1.2,0.5,2.5,1,4,1.6 c1.5,0.6,3.3,1.3,5.6,2.2l-0.8,1.6c-3-1-5.2-1.2-6.8-0.5c-1.5,0.7-3,2.6-4.5,5.7l-3.5,7.4l13.6,6.4l1.6-3.4c1-2.2,1.3-3.7,1-4.6 c-0.4-0.9-1.7-1.9-4-3.2l0.8-1.6c0.5,0.2,1.1,0.6,2,1c2.2,1.1,3.7,1.9,4.5,2.2c1.3,0.6,3.4,1.5,6.4,2.8c0.5,0.2,0.8,0.3,1,0.4 l-0.8,1.6c-2.8-1.1-4.7-1.6-5.8-1.3c-1.1,0.3-2.1,1.4-3.1,3.5l-1.6,3.4l15.6,7.3l4.3-9.2c1.5-3.3,2-5.8,1.4-7.5 c-0.6-1.7-2.4-3.5-5.5-5.3l0.8-1.6c1.8,1.1,3.6,2.1,5.2,3c1.6,0.9,3.2,1.7,4.7,2.5l-13.7,29.3l-1.9-0.9c0.8-1.8,1.1-3,0.9-3.7 c-0.2-0.7-1.3-1.4-3.1-2.3l-23-10.8c-1.8-0.8-3-1.1-3.7-0.9c-0.7,0.3-1.4,1.3-2.3,3l-2-0.9l2.9-6.3c2.1-4.4,3.9-8.4,5.5-11.9 C171.5,291,172.9,287.9,174.1,285.3L174.1,285.3z M224.8,221.5l-1.5-2.1l1.1-1.2c0.9,0.9,1.7,1.7,2.4,2.3c0.7,0.7,1.3,1.2,1.9,1.8 c1,0.9,2.5,2.2,4.6,4l0.3,0.3l-1.2,1.3c-2.8-2.1-5.6-3.2-8.3-3c-2.7,0.1-5.1,1.4-7.2,3.8c-2.7,3.1-3.7,6.4-2.8,9.9 c0.9,3.6,3.6,7.4,8.1,11.4c4.2,3.8,8,5.9,11.5,6.3c3.5,0.4,6.5-0.8,9.1-3.7c1.6-1.8,2.6-3.4,2.9-4.9c0.3-1.5,0-2.7-1-3.6l-3.3-3 c-1.4-1.2-3.3-0.6-5.7,1.9c-0.6,0.6-1,1-1.3,1.3l-1.5-1.4c1.3-1.3,2.4-2.5,3.4-3.5c1-1,1.9-2,2.7-2.9c0.5-0.5,1.1-1.2,1.8-2.1 c0.7-0.9,1.8-2.1,3.2-3.9l1.5,1.4c-0.7,0.9-1.1,1.6-1.1,2.1c0,0.5,0.2,1.1,0.8,1.6l7,6.3l-3.1,1.1c-0.1,2.2-0.6,4.2-1.4,6 c-0.8,1.9-2.1,3.8-3.8,5.7c-3.9,4.3-8.1,6.5-12.9,6.7c-4.7,0.2-9.3-1.7-13.8-5.7c-4.6-4.1-7.1-8.8-7.6-13.9 c-0.4-5.1,1.3-9.8,5.1-14.1c1.3-1.5,2.8-2.7,4.4-3.8C220.9,222.9,222.8,222.1,224.8,221.5L224.8,221.5z M253.4,195 c-2.8,2.1-4,5-3.7,8.8c0.3,3.7,2.1,7.8,5.4,12.2c3.4,4.5,6.8,7.3,10.3,8.6c3.5,1.3,6.7,0.8,9.7-1.4c2.8-2.1,4-5,3.7-8.8 c-0.3-3.8-2.1-7.8-5.4-12.2c-3.4-4.4-6.8-7.3-10.3-8.5C259.5,192.3,256.3,192.8,253.4,195L253.4,195z M252.3,193.1 c4.5-3.4,9.2-4.7,14.2-3.9c5,0.8,9.3,3.6,12.9,8.3c3.5,4.6,4.9,9.5,4.3,14.6c-0.6,5.2-3.2,9.4-7.6,12.7c-4.5,3.4-9.2,4.7-14.2,3.9 c-5-0.8-9.2-3.5-12.7-8.1c-3.6-4.7-5-9.6-4.4-14.8C245.3,200.7,247.9,196.5,252.3,193.1L252.3,193.1z M275.7,177 c1.6-0.8,2.9-1.4,4.1-2c1.1-0.6,2-1,2.6-1.3c0.8-0.4,2.3-1.4,4.6-2.8c0.8-0.5,1.5-0.9,2-1.2l1,1.9c-1.3,0.8-2.1,1.4-2.3,1.9 c-0.3,0.5-0.3,1,0,1.5c0.2,0.3,0.4,0.6,0.6,0.9c0.3,0.3,0.6,0.7,1.1,1.1l19.1,17l-4.6-25c-0.1-0.6-0.2-1.1-0.3-1.4 c-0.1-0.3-0.2-0.6-0.4-0.9c-0.4-0.6-0.9-1-1.6-1c-0.7,0-1.7,0.3-2.9,1l-1-1.9c1.2-0.6,2.2-1,2.9-1.4c0.8-0.4,1.4-0.7,1.9-1 c0.4-0.2,0.9-0.5,1.6-0.9c0.6-0.4,1.5-1,2.7-1.7l1,1.9c-1.1,0.7-1.7,1.3-2,1.9c-0.3,0.5-0.3,1.2-0.2,2l4.5,26.2 c0.2,1.5,0.5,3.2,0.7,4.9c0.3,1.7,0.5,3.5,0.7,5.3l-2.5,1l-27-23.1l-0.2-0.1c-1.8-1.5-3.5-1.8-5.3-0.8L275.7,177L275.7,177z M345.3,144.3c0.5,1.2,1.1,2.5,1.7,3.9c0.6,1.5,1.5,3.3,2.5,5.5l-1.7,0.6c-1.4-2.8-2.9-4.5-4.5-5.1c-1.6-0.6-4-0.2-7.2,1l-7.7,2.9 l5.3,14l3.5-1.3c2.2-0.8,3.5-1.7,3.9-2.6c0.3-0.9,0.1-2.6-0.6-5l1.7-0.6c0.2,0.5,0.4,1.2,0.7,2.1c0.8,2.4,1.3,4,1.6,4.7 c0.5,1.3,1.4,3.4,2.6,6.4c0.2,0.5,0.3,0.8,0.4,1l-1.7,0.6c-1.2-2.7-2.3-4.4-3.2-5c-1-0.6-2.5-0.5-4.6,0.3l-3.5,1.3l6.1,16.1 l9.5-3.6c3.4-1.3,5.5-2.7,6.2-4.4c0.8-1.6,0.7-4.2-0.3-7.6l1.7-0.6c0.6,2.1,1.1,4,1.7,5.8c0.5,1.8,1.1,3.5,1.6,5.1l-30.3,11.4 l-0.7-2c1.8-0.7,2.9-1.4,3.2-2c0.3-0.7,0.1-1.9-0.6-3.8l-9-23.8c-0.7-1.9-1.4-2.9-2-3.2c-0.7-0.3-1.9-0.1-3.7,0.6l-0.8-2l6.5-2.4 c4.6-1.7,8.7-3.3,12.3-4.7C339.4,146.6,342.6,145.4,345.3,144.3L345.3,144.3z M377.1,155.1c0.4-0.1,0.8-0.1,1.3-0.2 c0.4-0.1,1-0.1,1.6-0.2c3.2-0.5,5.3-1.6,6.5-3.1c1.2-1.5,1.5-3.7,1.1-6.6c-0.4-2.6-1.5-4.5-3-5.5c-1.6-1-3.9-1.3-6.8-0.8 c-0.6,0.1-1.6,0.3-2.9,0.6c-0.1,0-0.2,0-0.3,0.1L377.1,155.1L377.1,155.1z M362.9,139c1.2-0.1,2.3-0.3,3.5-0.5 c1.2-0.2,2.4-0.3,3.6-0.5c1-0.2,2.4-0.4,4.3-0.8c1.9-0.4,3.3-0.6,4.2-0.8c4.8-0.8,8.5-0.6,11.2,0.5c2.6,1.1,4.2,3.3,4.7,6.4 c0.5,3.1,0,5.5-1.7,7.4c-1.6,1.9-4.4,3.3-8.4,4.2c3.6-0.4,6.3-0.1,8.1,0.9c1.7,1,3,2.9,3.9,5.7c0.2,0.7,0.5,1.8,0.8,3.2 c0.7,3.1,1.7,4.5,3.1,4.2c0.7-0.1,1.3-0.5,1.6-1c0.4-0.6,0.5-1.4,0.6-2.5l1.5,0c0,2.2-0.4,3.9-1.3,5.1c-0.9,1.2-2.4,2-4.4,2.3 c-2.3,0.4-4,0.1-5.2-1c-1.2-1-2-2.9-2.5-5.6c-0.1-0.3-0.1-0.8-0.2-1.4c-0.1-0.6-0.2-1.1-0.2-1.5c-0.5-3.2-1.5-5.3-2.9-6.1 c-1.4-0.9-3.7-1-7.1-0.5l-2.7,0.5l1.9,11.5c0.3,2,0.8,3.2,1.4,3.6c0.6,0.4,1.8,0.5,3.7,0.1l0.3,2.1c-2.1,0.2-3.8,0.5-4.9,0.6 c-1.1,0.1-2,0.3-2.7,0.4c-0.7,0.1-1.7,0.3-2.8,0.5c-1.2,0.2-2.9,0.6-5.1,1.1l-0.3-2.1c1.9-0.3,3.1-0.8,3.5-1.4 c0.4-0.6,0.5-1.9,0.1-3.8l-4.2-25.1c-0.3-2-0.8-3.2-1.4-3.6c-0.6-0.4-1.9-0.5-3.8-0.2L362.9,139L362.9,139z M409.1,131.9 c1.4,0.1,2.6,0.1,3.6,0.1c1,0,1.8,0,2.6,0c0.6,0,1.4,0,2.3-0.1c0.9-0.1,2.1-0.1,3.5-0.3l21.4,28l-0.3-20.5c0-2.6-0.4-4.1-1-4.7 c-0.6-0.6-2-0.9-4.2-0.8l0-2.2c1.4,0.1,2.7,0.1,3.7,0.1c1,0,2,0,2.8,0c0.5,0,1.2,0,2-0.1c0.8-0.1,2-0.1,3.6-0.3l0,2.2 c-1.9,0.1-3.2,0.4-3.7,1c-0.6,0.6-0.8,2.1-0.8,4.7l0.2,15.8c0.1,3.4,0.1,6.2,0.1,8.5c0,2.3,0,4.6,0,6.9l-2.8-0.3l-25.5-33.3 l0.4,25.9c0,2.7,0.4,4.3,1,4.8c0.6,0.5,2,0.8,4.2,0.8l0,2.1c-1.6-0.1-2.9-0.1-3.9-0.1c-1,0-1.8,0-2.5,0c-0.4,0-1,0-1.8,0.1 c-0.8,0-2.1,0.1-4,0.3l0-2.1c2.1,0,3.4-0.4,4-1c0.6-0.6,0.8-2.2,0.8-4.8l-0.4-24.3c0-2-0.3-3.3-0.9-3.8c-0.6-0.5-1.8-0.7-3.7-0.7 l-0.5,0L409.1,131.9L409.1,131.9z M494.9,138.2c0.6,0.2,1.4,0.4,2.4,0.7c2.6,0.8,4.3,1.3,5.2,1.5c1.1,0.3,3.3,0.7,6.3,1.3 c0.8,0.2,1.4,0.3,1.8,0.3l-0.5,2.1c-2-0.5-3.3-0.5-3.9-0.2c-0.6,0.4-1.2,1.5-1.7,3.5l-6,24.7c-0.5,2-0.5,3.3-0.1,3.9 c0.4,0.6,1.6,1.1,3.6,1.6l-0.5,2c-2.2-0.6-3.8-1.1-4.9-1.4c-1.1-0.3-2-0.5-2.7-0.7c-0.8-0.2-1.7-0.4-2.9-0.6 c-1.2-0.3-2.9-0.6-5.2-1l0.5-2c2,0.5,3.3,0.5,3.9,0.2c0.6-0.4,1.2-1.5,1.6-3.5l6-24.7c0.5-2,0.5-3.3,0.1-3.9 c-0.4-0.6-1.6-1.1-3.6-1.6L494.9,138.2L494.9,138.2z M523.6,144.7c1.3,0.6,2.3,1.1,3.2,1.5c0.9,0.4,1.7,0.8,2.4,1 c0.6,0.2,1.3,0.5,2.1,0.8c0.9,0.3,2,0.7,3.4,1.2l8.7,34.2l7.8-19c1-2.4,1.3-4,1-4.7c-0.3-0.8-1.5-1.6-3.6-2.4l0.8-2 c1.3,0.6,2.4,1.1,3.3,1.6c0.9,0.4,1.8,0.8,2.6,1.1c0.5,0.2,1.1,0.4,1.9,0.7c0.8,0.3,1.9,0.7,3.4,1.2l-0.8,2 c-1.8-0.7-3.1-0.9-3.8-0.6c-0.7,0.3-1.6,1.6-2.6,4l-6,14.6c-1.3,3.1-2.4,5.7-3.3,7.9c-0.9,2.1-1.8,4.2-2.8,6.3l-2.5-1.3l-10.4-40.6 l-9.8,24c-1,2.5-1.3,4.1-1,4.8c0.3,0.7,1.5,1.5,3.6,2.4l-0.8,1.9c-1.5-0.7-2.6-1.3-3.5-1.7c-0.9-0.4-1.7-0.7-2.3-1 c-0.4-0.2-0.9-0.4-1.7-0.6s-2-0.7-3.8-1.3l0.8-1.9c1.9,0.8,3.2,1,4,0.7c0.8-0.3,1.6-1.7,2.6-4.1l9.2-22.5c0.8-1.9,1-3.1,0.7-3.8 c-0.3-0.7-1.4-1.4-3.2-2.1l-0.5-0.2L523.6,144.7L523.6,144.7z M598.7,206.9l-10.4,12.8l2.8,2.3c2.7,2.2,5,3.3,6.8,3.2 c1.8-0.1,3.7-1.2,5.6-3.5c1.9-2.3,2.7-4.5,2.4-6.4c-0.3-1.9-1.8-4-4.5-6.2L598.7,206.9z M609.9,193l-9.9,12.1l3.1,2.5 c2.2,1.8,4.2,2.6,5.9,2.4c1.7-0.2,3.5-1.3,5.2-3.5c1.8-2.2,2.6-4.2,2.4-5.8c-0.2-1.7-1.6-3.5-4.1-5.6L609.9,193z M602.6,184.2 c0.8,0.8,1.7,1.5,2.5,2.2c0.8,0.7,1.7,1.4,2.5,2.1c1.6,1.3,3.3,2.7,5,4c1.7,1.3,2.7,2.1,2.8,2.1c3.5,2.9,5.7,5.6,6.4,8.2 c0.7,2.6,0,5.1-2,7.7c-1.8,2.2-3.8,3.3-6.1,3.5c-2.3,0.2-4.8-0.7-7.5-2.5l-0.1,0.1c2.8,2.6,4.4,5.1,4.9,7.6c0.5,2.5-0.2,5-2.1,7.3 c-2.2,2.7-4.7,3.8-7.5,3.5c-2.9-0.3-6.3-2.1-10.4-5.4c-1-0.8-2.3-1.9-3.9-3.3c-1.6-1.3-2.6-2.2-3.2-2.7c-0.8-0.7-1.7-1.4-2.7-2.1 c-1-0.7-1.9-1.5-3-2.3l1.3-1.6c1.5,1.2,2.6,1.8,3.4,1.7c0.7-0.1,1.7-0.9,3-2.4l16.4-20.1c1.1-1.4,1.6-2.4,1.5-3.1 c-0.2-0.7-1-1.6-2.4-2.8L602.6,184.2L602.6,184.2z M635.8,212.5c0.4,0.4,1,1,1.7,1.8c1.8,2,3,3.3,3.7,3.9c0.8,0.8,2.4,2.3,4.8,4.4 c0.6,0.5,1,0.9,1.3,1.2l-1.5,1.6c-1.5-1.4-2.5-2.2-3.3-2.2c-0.7,0-1.8,0.7-3.2,2.1l-17.9,18.1c-1.5,1.5-2.2,2.6-2.1,3.3 c0,0.7,0.8,1.8,2.2,3.2l-1.5,1.5c-1.5-1.7-2.7-2.9-3.5-3.8c-0.8-0.8-1.4-1.5-1.9-2c-0.6-0.5-1.3-1.2-2.2-2.1 c-0.9-0.8-2.2-2-3.9-3.6l1.5-1.5c1.5,1.4,2.6,2.2,3.3,2.2c0.7,0,1.8-0.7,3.2-2.1l17.9-18.1c1.4-1.5,2.1-2.5,2.1-3.3 c0-0.7-0.8-1.8-2.2-3.2L635.8,212.5L635.8,212.5z"></path> <linearGradient id="SVGID_15_" gradientUnits="userSpaceOnUse" x1="63742.4883" y1="-31414.8027" x2="63742.4883" y2="-52869.9023" gradientTransform="matrix(2.834646e-02 0 0 -2.834646e-02 -1192.2189 -759.2331)"> <stop offset="0" style="stop-color:#808080"></stop> <stop offset="0.3843" style="stop-color:#BFBFBF"></stop> <stop offset="0.4588" style="stop-color:#333333"></stop> <stop offset="1" style="stop-color:#FEFEFE"></stop> </linearGradient> <path class="st15" d="M656.1,232.7c0.8,1.2,1.4,2.1,2,3c0.6,0.8,1,1.5,1.5,2.1c0.4,0.5,0.9,1.1,1.4,1.8c0.6,0.7,1.3,1.6,2.3,2.7 l-9.9,33.8l16.4-12.4c2-1.5,3.1-2.8,3.2-3.6c0.1-0.9-0.5-2.2-1.8-3.9l1.7-1.3c0.8,1.2,1.5,2.2,2.1,3.1c0.6,0.9,1.1,1.6,1.6,2.3 c0.3,0.4,0.7,0.9,1.3,1.5c0.5,0.6,1.3,1.5,2.3,2.7l-1.7,1.3c-1.2-1.5-2.2-2.3-3-2.4c-0.8-0.1-2.2,0.6-4.3,2.2l-12.6,9.5 c-2.7,2-5,3.7-6.8,5.1c-1.9,1.4-3.7,2.7-5.6,4.1l-1.4-2.4l11.7-40.3l-20.6,15.6c-2.1,1.6-3.2,2.8-3.3,3.6c-0.1,0.8,0.5,2.1,1.9,3.9 l-1.7,1.2c-0.9-1.4-1.6-2.4-2.2-3.2c-0.6-0.8-1.1-1.5-1.5-2.1c-0.3-0.3-0.6-0.8-1.1-1.4c-0.5-0.6-1.4-1.6-2.6-3.1l1.7-1.3 c1.3,1.6,2.3,2.5,3.1,2.6c0.8,0.1,2.3-0.6,4.3-2.2l19.4-14.6c1.6-1.2,2.5-2.2,2.5-2.9c0.1-0.7-0.5-1.9-1.7-3.4l-0.3-0.4 L656.1,232.7L656.1,232.7z M687.7,276.4l14.9,30.4l-8.7,5.5l-0.8-1.6c2.6-1.8,4.2-3.4,4.7-5c0.5-1.5,0.1-3.6-1.1-6.1l-2-4 l-26.9,13.2c-1.8,0.9-2.8,1.7-3.1,2.4c-0.2,0.7,0.1,1.9,1,3.7l0.3,0.5l-1.9,0.9c-0.6-1.5-1.2-2.8-1.8-4.1c-0.6-1.3-1.1-2.5-1.6-3.5 c-0.3-0.7-0.8-1.6-1.4-2.7c-0.6-1.1-1.5-2.8-2.7-5l1.9-0.9l0.3,0.5c0.9,1.7,1.6,2.7,2.3,3c0.7,0.2,1.9-0.1,3.7-1l26.9-13.2l-1.9-4 c-1.3-2.6-2.7-4.1-4.2-4.7c-1.5-0.5-3.8-0.3-6.8,0.7L678,280L687.7,276.4L687.7,276.4z M717.3,348c-1.2,0.4-2.5,0.9-4,1.5 c-1.5,0.6-3.3,1.3-5.6,2.2l-0.5-1.7c2.9-1.3,4.7-2.7,5.3-4.2c0.7-1.5,0.4-3.9-0.6-7.3l-2.5-7.8l-14.3,4.6l1.2,3.6 c0.7,2.3,1.5,3.6,2.4,4c0.9,0.4,2.5,0.2,5.1-0.4l0.5,1.7c-0.5,0.1-1.2,0.3-2.2,0.6c-2.4,0.7-4,1.2-4.8,1.4 c-1.3,0.4-3.5,1.2-6.6,2.3c-0.5,0.2-0.8,0.3-1,0.4l-0.5-1.7c2.8-1.1,4.5-2,5.1-3c0.6-0.9,0.6-2.5-0.1-4.7l-1.2-3.6l-16.4,5.3 l3.1,9.7c1.1,3.4,2.5,5.6,4,6.5c1.6,0.9,4.1,0.9,7.6,0.1l0.5,1.7c-2.1,0.5-4,0.9-5.8,1.4c-1.8,0.5-3.5,0.9-5.1,1.4l-9.9-30.8l2-0.6 c0.6,1.9,1.2,2.9,1.9,3.3c0.6,0.3,1.9,0.2,3.8-0.4l24.2-7.8c1.9-0.6,3-1.2,3.3-1.9c0.3-0.6,0.2-1.9-0.4-3.8l2.1-0.7l2.1,6.6 c1.5,4.6,2.9,8.8,4.1,12.5C715.3,342,716.4,345.2,717.3,348L717.3,348z M721,362.2c0,0.3,0.1,0.7,0.2,1.2c0.4,2.9,0.6,5,0.8,6.2 c0.2,1.2,0.6,3.2,1.2,6.2c0.1,0.6,0.2,1.1,0.3,1.4l-2.1,0.4c-0.2-1.1-0.5-1.9-0.8-2.4c-0.4-0.5-0.8-0.7-1.4-0.6 c-0.3,0.1-0.6,0.1-0.8,0.3c-0.2,0.1-0.6,0.4-1.1,0.8l-8.3,7.4l11.1,4.7c0.5,0.2,0.9,0.3,1.1,0.4c0.2,0,0.5,0,0.7,0 c0.4-0.1,0.7-0.4,0.8-0.9c0.1-0.5,0.1-1.3,0-2.2l-0.1-0.3l2.1-0.4c0.1,1.4,0.3,2.5,0.4,3.5c0.1,0.9,0.2,1.8,0.3,2.5 c0.1,0.5,0.2,1.1,0.4,1.8c0.2,0.7,0.4,1.9,0.8,3.4l-2.1,0.4l0-0.2c-0.2-1.3-0.6-2.3-1.2-3.1c-0.6-0.7-1.6-1.4-3-2.1l-12.6-5.8 l-13.9,12.8c-1.4,1.3-2.3,2.3-2.7,3c-0.3,0.7-0.4,1.4-0.3,2.1l0,0.2l-2.1,0.3c-0.3-1.8-0.5-3.4-0.6-4.6c-0.2-1.2-0.3-2.1-0.4-2.7 c-0.1-0.9-0.3-1.9-0.6-3.3c-0.3-1.4-0.6-2.9-0.9-4.8l2.1-0.4c0.2,1.4,0.5,2.3,0.9,2.8c0.4,0.5,0.9,0.7,1.5,0.6 c0.3,0,0.6-0.2,0.9-0.3c0.3-0.2,0.6-0.4,1-0.7l9.9-9l-12.6-5.4c-0.4-0.2-0.8-0.3-1.2-0.4c-0.4-0.1-0.7-0.1-0.9-0.1 c-0.5,0.1-0.8,0.4-1,0.9c-0.2,0.5-0.2,1.2-0.1,2.1l0.1,0.5l-2.1,0.3c-0.1-1.1-0.2-2.2-0.4-3.2c-0.1-1-0.3-1.9-0.4-2.8 c-0.1-0.6-0.2-1.3-0.4-2.2c-0.2-0.9-0.4-1.9-0.7-3l2.1-0.3l0,0.2c0.2,1.3,0.6,2.3,1.2,3s1.7,1.4,3.3,2.2l14.4,6.6l12.2-11.1 c1.5-1.3,2.4-2.3,2.7-3c0.3-0.7,0.5-1.4,0.3-2.2l-0.1-0.4L721,362.2L721,362.2z M728,440.9c-0.3,1.6-0.6,3-0.8,4.2 c-0.2,1.2-0.4,2.1-0.5,2.8c-0.2,1.3-0.4,3.6-0.7,6.9c0,0.5-0.1,0.8-0.1,1l-2.1-0.3c0.1-1.3,0.1-2.3-0.1-2.8 c-0.2-0.5-0.6-0.8-1.2-0.9c-0.3,0-0.6,0-1,0c-0.4,0-1,0.1-1.6,0.2l-24.7,4.2l20.6,10.3l3.1-0.6c1.6-0.3,2.6-0.7,3.1-1.2 c0.4-0.5,0.8-1.4,1-2.6l2.1,0.3c-0.1,0.6-0.2,1.4-0.4,2.4c-0.5,2.4-0.8,3.9-0.9,4.6c-0.2,1.3-0.4,3.6-0.7,6.8c0,0.5-0.1,1-0.1,1.2 l-2.1-0.3c0.1-1.5,0.1-2.6-0.1-3.1c-0.2-0.5-0.7-0.8-1.4-0.9c-0.2,0-0.5,0-0.9,0c-0.3,0-0.9,0.1-1.5,0.2l-24.5,4l22.3,11 c0.4,0.2,0.8,0.4,1.2,0.5c0.4,0.1,0.8,0.2,1.1,0.3c0.7,0.1,1.3-0.1,1.7-0.6c0.4-0.5,0.7-1.5,1-3l2.1,0.3c-0.3,1.3-0.5,2.4-0.6,3.2 c-0.2,0.8-0.3,1.5-0.4,2.1c-0.1,0.6-0.1,1.3-0.2,2.1c-0.1,0.8-0.1,1.8-0.2,3l-2.1-0.3c0-1.2-0.1-2.1-0.3-2.6 c-0.3-0.5-0.8-1-1.5-1.4l-22.9-11.7c-0.6-0.3-1.8-0.9-3.5-1.8c-1.8-0.9-3.8-2-6.2-3.3l0.7-2.6l27.8-5.3l-17.1-8.7 c-1.2-0.6-2.6-1.3-4-2.1c-1.4-0.8-2.9-1.6-4.5-2.5l0.7-2.6l34.6-6.7c1.5-0.3,2.5-0.7,2.9-1.2c0.4-0.5,0.7-1.4,0.9-2.6L728,440.9 L728,440.9z M706.2,537.2c-1.2-0.4-2.6-0.8-4.1-1.2c-1.5-0.4-3.5-1-5.8-1.6l0.6-1.7c3.1,0.7,5.3,0.7,6.8-0.1 c1.4-0.8,2.7-2.9,3.9-6.2l2.7-7.7l-14.1-5l-1.3,3.6c-0.8,2.3-1,3.8-0.5,4.6c0.5,0.8,1.9,1.7,4.3,2.7l-0.6,1.7 c-0.5-0.2-1.2-0.5-2.1-0.8c-2.3-0.9-3.9-1.5-4.7-1.8c-1.3-0.5-3.5-1.2-6.6-2.1c-0.5-0.1-0.8-0.3-1-0.3l0.6-1.7 c2.9,0.9,4.8,1.1,5.9,0.7c1.1-0.4,2-1.6,2.7-3.8l1.3-3.6l-16.2-5.7l-3.4,9.6c-1.2,3.4-1.4,5.9-0.7,7.6c0.7,1.7,2.7,3.2,6,4.7 l-0.6,1.7c-1.9-0.9-3.8-1.7-5.5-2.4c-1.7-0.7-3.3-1.4-4.9-2l10.7-30.5l2,0.7c-0.6,1.8-0.8,3.1-0.5,3.8c0.3,0.7,1.4,1.3,3.3,2 l24,8.4c1.9,0.7,3.1,0.8,3.8,0.5c0.6-0.3,1.3-1.4,2-3.2l2,0.7l-2.3,6.5c-1.6,4.6-3.1,8.7-4.3,12.4 C708.2,531.3,707.1,534.5,706.2,537.2L706.2,537.2z M682.8,583.4l-20.1,27.3l-8.9-5.2l1-1.4c2.8,1.5,5,2.1,6.6,1.9 c1.6-0.3,3.2-1.5,4.9-3.8l2.6-3.6l-24.1-17.8c-1.6-1.2-2.8-1.7-3.5-1.6c-0.7,0.1-1.6,1-2.8,2.6l-0.3,0.5l-1.7-1.2 c1-1.2,2-2.4,2.8-3.5c0.9-1.1,1.7-2.1,2.3-3.1c0.5-0.6,1.1-1.5,1.8-2.5c0.7-1,1.8-2.6,3.2-4.7l1.7,1.2l-0.4,0.5 c-1.2,1.6-1.7,2.7-1.6,3.4c0.1,0.7,1,1.7,2.6,2.9l24.1,17.8l2.6-3.6c1.7-2.3,2.4-4.3,2.2-5.9c-0.2-1.6-1.5-3.5-3.7-5.7l1-1.4 L682.8,583.4z M633.6,615.8c-0.3,0.3-0.6,0.6-0.9,0.9c-0.3,0.3-0.7,0.7-1.1,1.1c-2.3,2.3-3.4,4.4-3.5,6.3c-0.1,1.9,0.9,3.9,3,6 c1.9,1.9,3.8,2.8,5.7,2.7c1.9-0.1,3.9-1.2,6-3.4c0.4-0.4,1.1-1.2,2-2.2c0.1-0.1,0.2-0.2,0.2-0.2L633.6,615.8z M654.5,620.6 c-0.9,0.8-1.7,1.6-2.6,2.4c-0.9,0.8-1.7,1.7-2.6,2.5c-0.7,0.7-1.7,1.8-3,3.2c-1.3,1.4-2.3,2.4-2.9,3.1c-3.4,3.5-6.6,5.5-9.4,6.1 c-2.8,0.6-5.3-0.2-7.6-2.4c-2.2-2.2-3.2-4.5-3-7c0.2-2.5,1.6-5.3,4.3-8.3c-2.7,2.4-5.1,3.8-7.1,4c-2,0.2-4.1-0.5-6.5-2.4 c-0.6-0.5-1.5-1.2-2.5-2.1c-2.3-2.1-4-2.6-5-1.6c-0.5,0.5-0.8,1.1-0.7,1.8c0,0.7,0.4,1.4,1,2.4l-1.2,0.9c-1.3-1.7-1.9-3.4-1.9-4.9 c0-1.5,0.8-3,2.2-4.4c1.6-1.6,3.2-2.4,4.8-2.3c1.6,0.1,3.3,1.1,5.3,3.1c0.2,0.2,0.6,0.6,1,1c0.4,0.5,0.8,0.8,1,1.1 c2.3,2.3,4.3,3.4,6,3.3c1.6-0.1,3.6-1.4,6-3.8l2-2l-8.3-8.2c-1.4-1.4-2.5-2.1-3.2-2.1c-0.7,0-1.8,0.7-3.1,2.1l-1.5-1.5 c1.6-1.5,2.8-2.6,3.6-3.4c0.8-0.8,1.5-1.4,1.9-1.9c0.5-0.5,1.2-1.2,2-2.1c0.8-0.9,2-2.1,3.5-3.9l1.5,1.5c-1.4,1.4-2.1,2.4-2.1,3.2 c0,0.7,0.7,1.8,2.1,3.2l18.1,17.9c1.4,1.4,2.5,2.1,3.2,2.1c0.7,0,1.8-0.7,3.2-2.1L654.5,620.6L654.5,620.6z M619.4,655.2 c-0.5,0.3-1.1,0.7-2,1.2c-2.3,1.4-3.8,2.4-4.6,2.9c-0.9,0.6-2.6,1.9-5.1,3.8c-0.6,0.5-1.1,0.8-1.4,1.1l-1.2-1.8 c1.6-1.1,2.5-2,2.6-2.7c0.1-0.7-0.3-1.9-1.5-3.5l-9.8-14.3c-1.4-2-2.3-3.3-3-4c-0.6-0.7-1.2-1.2-1.8-1.6c-1.5-0.9-3.1-1.2-4.9-0.9 c-1.8,0.3-3.8,1.2-5.9,2.6c-1.5,1-2.7,2.1-3.5,3.3c-0.8,1.2-1.3,2.4-1.4,3.7c-0.1,1,0.1,2.1,0.6,3.3c0.5,1.2,1.6,3.1,3.4,5.7 l8.7,12.8c1.5,2.2,2.7,3.4,3.4,3.6c0.8,0.2,1.9-0.3,3.5-1.4l1.2,1.8c-1.1,0.6-2,1.2-2.8,1.7c-0.8,0.5-1.6,1-2.2,1.4 c-0.4,0.3-1,0.7-1.6,1.2c-0.6,0.5-1.5,1.1-2.5,1.9l-1.2-1.8c1.4-1,2.2-1.8,2.3-2.5c0.1-0.7-0.6-2.2-2.2-4.5l-9.1-13.3 c-1.7-2.5-2.8-4.5-3.4-5.9c-0.5-1.4-0.8-2.8-0.8-4.2c0.1-1.9,0.8-3.8,2.1-5.6c1.3-1.8,3.2-3.6,5.8-5.4c2.5-1.7,4.8-2.8,7-3.4 c2.2-0.6,4.3-0.5,6.3,0.1c1.2,0.4,2.3,1,3.4,2c1,1,2.5,2.8,4.4,5.6l9.6,14c1.1,1.7,2.1,2.6,2.8,2.7c0.7,0.1,1.9-0.4,3.5-1.5 L619.4,655.2L619.4,655.2z M552.4,692.1l0.5,2.1l-1.5,0.7c-0.5-1-0.9-1.9-1.2-2.7c-0.4-0.8-0.7-1.4-0.9-2c-0.4-0.8-0.8-1.6-1.3-2.5 c-0.5-0.9-1-1.8-1.5-2.8l1.5-0.8c1.7,2.8,3.7,4.5,6,5.4c2.3,0.8,4.6,0.6,7.2-0.6c1.9-1,3.2-2.3,3.9-4c0.7-1.7,0.5-3.5-0.3-5.3 c-0.7-1.5-1.8-2.5-3.1-3c-1.3-0.5-3.8-0.6-7.3-0.2c-5.4,0.5-9.2,0.4-11.4-0.4c-2.1-0.8-3.8-2.4-5-4.8c-1.5-3.1-1.6-6.1-0.3-9 c1.3-3,3.8-5.3,7.4-7.1c1.9-0.9,3.7-1.5,5.7-1.6c1.9-0.2,3.9,0,5.9,0.5l-0.6-2.7l1.4-0.7c0.3,0.5,0.6,1.3,1.1,2.3 c0.9,1.9,1.4,3.1,1.7,3.7c0.2,0.5,0.8,1.5,1.6,3.1c0.5,1,0.9,1.7,1.2,2.3l-1.7,0.8c-1.8-3.3-4.1-5.4-6.7-6.5 c-2.6-1-5.4-0.9-8.2,0.5c-2.1,1-3.4,2.4-4.1,4.1c-0.7,1.7-0.5,3.5,0.4,5.4c0.7,1.5,1.8,2.5,3.2,3c1.4,0.5,3.5,0.6,6.4,0.3 c0.4,0,0.9-0.1,1.6-0.2c3.7-0.4,6.4-0.5,8.2-0.2c1.7,0.3,3.2,0.9,4.3,1.8c1.2,0.9,2.1,2.1,2.9,3.8c1.5,3.1,1.7,6.1,0.5,8.9 c-1.2,2.8-3.5,5.1-7,6.9c-1.7,0.9-3.5,1.4-5.3,1.7C556,692.4,554.2,692.4,552.4,692.1L552.4,692.1z M537.7,701.6L505.5,712 l-4.2-9.4l1.7-0.5c1.4,2.9,2.8,4.6,4.2,5.4c1.5,0.7,3.5,0.7,6.2-0.2l4.2-1.4l-9.2-28.5c-0.6-1.9-1.3-3.1-1.9-3.4 c-0.6-0.3-1.9-0.2-3.8,0.4l-0.6,0.2l-0.6-2c1.5-0.4,3-0.8,4.3-1.2c1.4-0.4,2.6-0.8,3.7-1.1c0.8-0.2,1.7-0.6,2.9-1 c1.2-0.4,3-1.1,5.4-1.9l0.6,2l-0.6,0.2c-1.8,0.6-2.9,1.2-3.3,1.8c-0.3,0.6-0.2,1.9,0.4,3.8l9.2,28.5l4.2-1.4c2.7-0.9,4.5-2,5.2-3.5 c0.8-1.4,0.9-3.7,0.3-6.8l1.6-0.5L537.7,701.6L537.7,701.6z"></path> <linearGradient id="SVGID_16_" gradientUnits="userSpaceOnUse" x1="55891.0977" y1="-48611.3711" x2="55891.0977" y2="-37143.1484" gradientTransform="matrix(2.834646e-02 0 0 -2.834646e-02 -1192.2189 -759.2331)"> <stop offset="0" style="stop-color:#4D4D4D"></stop> <stop offset="0.5216" style="stop-color:#A5A5A5"></stop> <stop offset="1" style="stop-color:#FEFEFE"></stop> </linearGradient> <path class="st16" d="M355.1,709.9L323,699l2.3-10.1l1.6,0.6c-0.6,3.1-0.5,5.4,0.2,6.8c0.7,1.4,2.4,2.6,5.1,3.5l4.2,1.4l9.6-28.4 c0.7-1.9,0.8-3.2,0.5-3.8c-0.3-0.6-1.4-1.3-3.3-1.9l-0.6-0.2l0.7-2c1.5,0.6,2.9,1.1,4.2,1.6c1.3,0.5,2.5,0.9,3.6,1.3 c0.8,0.3,1.7,0.6,2.9,0.9c1.2,0.4,3,0.9,5.5,1.6l-0.7,2l-0.6-0.2c-1.8-0.6-3.1-0.8-3.7-0.5c-0.6,0.3-1.3,1.4-1.9,3.3l-9.6,28.4 l4.2,1.4c2.7,0.9,4.8,1,6.3,0.3c1.5-0.7,2.9-2.5,4.3-5.3l1.6,0.6L355.1,709.9L355.1,709.9z M294.9,684.1c3.1,1.6,6.3,1.5,9.5-0.4 c3.2-1.9,6.1-5.3,8.6-10.1c2.6-5,3.6-9.3,3.3-13c-0.4-3.7-2.2-6.4-5.5-8.1c-3.1-1.6-6.3-1.4-9.5,0.5c-3.3,1.9-6.2,5.3-8.7,10.1 c-2.5,4.9-3.6,9.3-3.2,13C289.9,679.7,291.7,682.4,294.9,684.1L294.9,684.1z M293.7,685.9c-5-2.6-8.2-6.3-9.7-11.1 c-1.4-4.8-0.8-9.9,1.9-15.2c2.6-5.1,6.4-8.5,11.3-10.2c4.9-1.7,9.9-1.2,14.8,1.3c5,2.6,8.2,6.3,9.7,11.1c1.5,4.8,0.9,9.8-1.8,15 c-2.7,5.3-6.5,8.7-11.4,10.4C303.6,688.9,298.6,688.4,293.7,685.9L293.7,685.9z M242.6,647l-2,1.6l-1.3-1c0.8-1,1.6-1.8,2.2-2.5 c0.6-0.7,1.2-1.4,1.6-2c0.8-1,2-2.6,3.7-4.8l0.3-0.4l1.4,1.1c-2,2.9-2.8,5.7-2.5,8.4c0.3,2.7,1.7,5,4.2,7c3.2,2.6,6.6,3.3,10.1,2.2 c3.5-1.1,7.1-4,10.9-8.8c3.5-4.4,5.4-8.4,5.6-11.9c0.2-3.5-1.2-6.4-4.2-8.9c-1.9-1.5-3.6-2.4-5.1-2.6c-1.5-0.2-2.7,0.2-3.5,1.2 l-2.8,3.5c-1.1,1.4-0.4,3.3,2.2,5.5c0.6,0.5,1.1,0.9,1.4,1.2l-1.3,1.6c-1.4-1.2-2.6-2.3-3.7-3.2c-1.1-0.9-2.1-1.8-3-2.5 c-0.6-0.4-1.3-1-2.2-1.7c-0.9-0.7-2.3-1.7-4-2.9l1.3-1.6c0.9,0.6,1.7,1,2.2,1c0.5,0,1-0.3,1.5-0.9l5.8-7.4l1.3,3 c2.2,0,4.2,0.3,6.1,1c1.9,0.7,3.9,1.9,5.9,3.5c4.5,3.6,7,7.7,7.4,12.4s-1.2,9.4-4.9,14.1c-3.9,4.9-8.3,7.7-13.4,8.4 c-5.1,0.7-9.8-0.7-14.4-4.3c-1.6-1.2-2.9-2.6-4-4.2C244.2,650.8,243.3,649.1,242.6,647L242.6,647z M206.5,614.5 c0.9-0.9,1.9-1.9,3-3.1c1.1-1.1,2.5-2.6,4.1-4.4l1.2,1.3c-2.1,2.4-3.1,4.4-3,6.1c0.1,1.7,1.3,3.8,3.7,6.3l5.6,6l10.9-10.3l-2.6-2.8 c-1.6-1.7-2.9-2.6-3.9-2.6c-0.9,0-2.4,0.9-4.4,2.5l-1.2-1.3c0.4-0.3,1-0.8,1.7-1.5c1.9-1.7,3.1-2.8,3.7-3.3c1-0.9,2.7-2.6,4.9-4.9 c0.3-0.4,0.6-0.6,0.8-0.8l1.2,1.3c-2.1,2.2-3.2,3.8-3.4,4.9c-0.2,1.1,0.5,2.5,2.1,4.2l2.6,2.8l12.5-11.8l-7-7.4 c-2.5-2.6-4.6-4-6.4-4.1c-1.8-0.1-4.1,1-6.9,3.2l-1.2-1.3c1.7-1.3,3.2-2.6,4.7-3.7c1.4-1.2,2.8-2.3,4.1-3.4l22.2,23.6l-1.5,1.4 c-1.3-1.4-2.4-2.1-3.1-2.2c-0.7,0-1.8,0.6-3.3,2l-18.5,17.4c-1.5,1.4-2.2,2.4-2.2,3.1c0,0.7,0.7,1.8,2,3.2l-1.6,1.5l-4.7-5 c-3.3-3.5-6.4-6.7-9.1-9.5C210.8,619,208.5,616.6,206.5,614.5z M195.4,600.6L177.3,572l8.1-6.4l0.9,1.5c-2.4,2.1-3.8,3.9-4.1,5.5 c-0.3,1.6,0.3,3.6,1.8,6l2.4,3.8l25.3-16c1.7-1.1,2.6-2,2.8-2.7c0.1-0.7-0.3-1.9-1.4-3.6l-0.3-0.5l1.8-1.1c0.8,1.4,1.5,2.7,2.2,3.9 c0.7,1.2,1.4,2.3,2,3.3c0.4,0.7,1,1.5,1.7,2.5c0.7,1,1.8,2.6,3.2,4.7l-1.8,1.1l-0.3-0.5c-1-1.6-1.9-2.6-2.6-2.7 c-0.7-0.2-1.9,0.3-3.6,1.4l-25.3,16l2.4,3.7c1.5,2.4,3.1,3.8,4.7,4.2c1.6,0.4,3.8-0.1,6.7-1.4l0.9,1.5L195.4,600.6L195.4,600.6z M170.8,560.4c-0.2-0.5-0.5-1.2-0.8-2.2c-1-2.5-1.6-4.2-2-5c-0.5-1-1.4-2.9-2.8-5.7c-0.4-0.7-0.6-1.2-0.8-1.6l2-0.9 c0.8,1.7,1.5,2.8,2.2,3c0.7,0.3,1.9,0,3.7-0.8l9.5-4.2l-7-15.7l-9.5,4.2c-1.8,0.8-2.9,1.6-3.1,2.2c-0.2,0.7,0,1.9,0.8,3.7l-2,0.9 c-0.2-0.5-0.4-1.1-0.7-1.9c-1-2.6-1.7-4.3-2.1-5.2c-0.5-1-1.4-2.9-2.8-5.6c-0.3-0.7-0.6-1.2-0.8-1.6l2-0.9c0.8,1.8,1.6,2.8,2.3,3 c0.7,0.3,1.9,0,3.7-0.8l23.2-10.4c1.9-0.8,2.9-1.6,3.1-2.3c0.2-0.7,0-1.9-0.8-3.7l1.9-0.8c0.5,1.4,1,2.7,1.5,3.9 c0.5,1.2,1,2.3,1.4,3.2c0.3,0.7,0.7,1.5,1.2,2.5c0.5,1,1.3,2.6,2.3,4.7l-1.9,0.9c-0.8-1.7-1.5-2.8-2.2-3c-0.7-0.3-1.9,0-3.7,0.8 l-11.8,5.3l7,15.7l11.8-5.3c1.8-0.8,2.9-1.6,3.1-2.3c0.3-0.7,0-1.9-0.8-3.7l1.9-0.9c0.8,2,1.4,3.5,1.8,4.6c0.4,1.1,0.8,1.9,1.1,2.6 c0.5,1.1,1,2.2,1.6,3.4c0.6,1.2,1.2,2.5,1.9,3.8l-1.9,0.9c-0.8-1.8-1.5-2.8-2.2-3.1c-0.7-0.3-1.9,0-3.7,0.8l-23.2,10.4 c-1.8,0.8-2.9,1.6-3.1,2.2c-0.2,0.7,0,1.9,0.8,3.7L170.8,560.4L170.8,560.4z M143.6,479.5c1.2-0.3,2.6-0.7,4.1-1.2 c1.5-0.4,3.4-1,5.8-1.7l0.4,1.7c-3,1-4.9,2.3-5.7,3.7c-0.8,1.5-0.8,3.9,0,7.3l1.8,8l14.6-3.4l-0.8-3.7c-0.5-2.3-1.2-3.7-2-4.2 c-0.8-0.4-2.5-0.5-5.1,0l-0.4-1.7c0.5-0.1,1.3-0.2,2.2-0.4c2.5-0.5,4.1-0.8,4.9-1c1.3-0.3,3.6-0.9,6.7-1.7c0.5-0.1,0.8-0.2,1-0.3 l0.4,1.7c-2.9,0.8-4.7,1.6-5.4,2.5c-0.7,0.9-0.8,2.4-0.3,4.6l0.8,3.7l16.8-3.9l-2.3-9.9c-0.8-3.5-2-5.8-3.5-6.8 c-1.5-1-4-1.2-7.6-0.7l-0.4-1.7c2.1-0.3,4.1-0.6,5.9-0.9c1.8-0.3,3.6-0.6,5.2-0.9l7.3,31.5l-2.1,0.5c-0.4-1.9-1-3-1.6-3.4 c-0.6-0.4-1.9-0.4-3.8,0.1l-24.8,5.7c-1.9,0.4-3.1,1-3.5,1.6c-0.4,0.6-0.3,1.9,0.1,3.8l-2.1,0.5l-1.5-6.7c-1.1-4.7-2.1-9-3-12.8 C145.1,485.6,144.3,482.3,143.6,479.5L143.6,479.5z M158.1,450.5c0-0.4,0-0.9-0.1-1.3c0-0.4-0.1-1-0.1-1.6 c-0.2-3.2-1.1-5.4-2.5-6.8c-1.4-1.3-3.6-1.9-6.5-1.6c-2.7,0.2-4.6,1.1-5.7,2.5c-1.2,1.5-1.6,3.7-1.4,6.7c0,0.6,0.2,1.6,0.3,3 c0,0.1,0,0.2,0.1,0.3L158.1,450.5z M140.8,463.2c0-1.2-0.1-2.4-0.2-3.5c-0.1-1.2-0.1-2.4-0.2-3.6c-0.1-1-0.2-2.4-0.4-4.4 c-0.2-1.9-0.3-3.3-0.4-4.2c-0.4-4.9,0.1-8.6,1.5-11.1c1.4-2.5,3.6-3.9,6.8-4.2c3.1-0.2,5.5,0.5,7.3,2.3c1.7,1.8,2.9,4.7,3.5,8.7 c0-3.7,0.5-6.3,1.6-8c1.1-1.7,3.1-2.8,6-3.4c0.8-0.2,1.8-0.3,3.2-0.5c3.1-0.4,4.6-1.3,4.5-2.8c-0.1-0.7-0.3-1.3-0.9-1.7 c-0.5-0.4-1.3-0.7-2.4-0.8l0.2-1.5c2.2,0.1,3.8,0.7,4.9,1.8c1.1,1,1.8,2.6,1.9,4.6c0.2,2.3-0.3,4-1.4,5.1c-1.1,1.1-3,1.8-5.8,2 c-0.3,0-0.8,0.1-1.4,0.1c-0.6,0-1.1,0.1-1.5,0.1c-3.3,0.3-5.4,1-6.4,2.4c-1,1.3-1.3,3.6-1.1,7l0.2,2.8l11.6-0.9 c2-0.2,3.3-0.5,3.7-1.1c0.5-0.6,0.6-1.8,0.5-3.7l2.1-0.2c0.1,2.2,0.1,3.8,0.2,4.9c0.1,1.1,0.1,2,0.2,2.7c0.1,0.8,0.2,1.7,0.3,2.9 s0.3,2.9,0.6,5.2l-2.1,0.2c-0.2-1.9-0.5-3.2-1.1-3.6c-0.6-0.5-1.8-0.6-3.8-0.5l-25.3,2c-2,0.2-3.2,0.5-3.7,1.1 c-0.5,0.6-0.6,1.8-0.5,3.8L140.8,463.2L140.8,463.2z M141.2,382.5c0.5-1.6,0.9-2.9,1.2-4.1c0.3-1.1,0.6-2.1,0.7-2.7 c0.3-1.3,0.7-3.6,1.3-6.8c0.1-0.5,0.1-0.8,0.2-1l2.1,0.5c-0.3,1.3-0.3,2.2-0.2,2.8c0.1,0.5,0.5,0.9,1.1,1c0.3,0.1,0.6,0.1,1,0.1 c0.4,0,1,0,1.6-0.1l25-2l-19.6-12.1l-3.1,0.3c-1.6,0.2-2.7,0.5-3.2,0.9c-0.5,0.5-0.9,1.3-1.2,2.5l-2.1-0.5c0.1-0.6,0.4-1.3,0.6-2.3 c0.7-2.3,1.1-3.8,1.3-4.5c0.3-1.3,0.7-3.5,1.3-6.7c0.1-0.5,0.2-0.9,0.2-1.2l2.1,0.5c-0.3,1.5-0.3,2.5-0.2,3.1 c0.2,0.5,0.6,0.9,1.3,1c0.2,0.1,0.5,0.1,0.9,0.1c0.3,0,0.9,0,1.6-0.1l24.8-1.8l-21.2-13c-0.4-0.2-0.8-0.4-1.2-0.6 c-0.4-0.2-0.8-0.3-1-0.4c-0.7-0.2-1.3,0-1.8,0.5c-0.4,0.5-0.8,1.4-1.2,2.9l-2.1-0.5c0.4-1.3,0.7-2.4,0.9-3.1c0.2-0.8,0.4-1.4,0.5-2 c0.1-0.6,0.3-1.2,0.4-2c0.1-0.8,0.3-1.8,0.5-3l2.1,0.5c-0.1,1.2-0.1,2.1,0.1,2.6c0.2,0.6,0.7,1.1,1.4,1.5l21.8,13.7 c0.6,0.3,1.7,1.1,3.4,2.1c1.7,1.1,3.7,2.4,5.9,3.9l-1,2.5l-28.1,2.8l16.3,10.2c1.2,0.7,2.5,1.5,3.8,2.4c1.4,0.9,2.8,1.8,4.3,2.8 l-1,2.5l-35.1,3.6c-1.5,0.2-2.5,0.5-3,1c-0.5,0.5-0.9,1.3-1.1,2.5L141.2,382.5L141.2,382.5z M172.3,288.5c1.2,0.5,2.5,1,4,1.6 c1.5,0.6,3.4,1.3,5.7,2.1l-0.7,1.6c-3-1-5.3-1.2-6.8-0.5c-1.5,0.7-3,2.6-4.4,5.8l-3.4,7.5l13.7,6.2l1.6-3.4c1-2.2,1.3-3.7,0.9-4.6 c-0.4-0.9-1.7-1.9-4-3.1l0.8-1.6c0.5,0.2,1.1,0.6,2,1c2.2,1.1,3.7,1.8,4.5,2.2c1.3,0.6,3.4,1.5,6.4,2.7c0.5,0.2,0.8,0.3,1,0.4 l-0.7,1.6c-2.8-1.1-4.7-1.5-5.8-1.3c-1.1,0.3-2.1,1.4-3,3.5l-1.6,3.4l15.7,7.1l4.2-9.3c1.5-3.3,1.9-5.8,1.3-7.5 c-0.6-1.7-2.5-3.4-5.6-5.2l0.7-1.6c1.9,1,3.6,2,5.2,2.9c1.6,0.9,3.2,1.7,4.7,2.5l-13.4,29.5l-1.9-0.9c0.8-1.8,1.1-3,0.8-3.7 c-0.3-0.7-1.3-1.4-3.1-2.3l-23.2-10.5c-1.8-0.8-3.1-1.1-3.7-0.8c-0.7,0.3-1.4,1.3-2.3,3l-2-0.9l2.9-6.3c2-4.4,3.8-8.4,5.4-12 C169.8,294.2,171.1,291.1,172.3,288.5L172.3,288.5z M222.3,224.1l-1.5-2.1l1.1-1.3c0.9,0.9,1.7,1.6,2.4,2.3 c0.7,0.7,1.3,1.2,1.9,1.7c1,0.9,2.5,2.2,4.6,3.9l0.3,0.3l-1.2,1.3c-2.8-2.1-5.6-3.1-8.3-2.9c-2.7,0.2-5.1,1.4-7.2,3.8 c-2.7,3.1-3.6,6.4-2.7,10c0.9,3.5,3.7,7.3,8.2,11.3c4.3,3.7,8.1,5.8,11.6,6.2c3.5,0.4,6.5-0.9,9.1-3.8c1.6-1.8,2.5-3.5,2.9-5 c0.3-1.5,0-2.7-1.1-3.6l-3.4-3c-1.4-1.2-3.3-0.5-5.6,2c-0.6,0.6-1,1-1.3,1.4l-1.5-1.4c1.3-1.3,2.4-2.5,3.4-3.6c1-1,1.9-2,2.6-2.9 c0.5-0.5,1.1-1.2,1.8-2.1c0.7-0.9,1.8-2.2,3.1-3.9l1.5,1.4c-0.7,0.9-1,1.6-1.1,2.2c0,0.5,0.3,1.1,0.9,1.6l7.1,6.2l-3.1,1.1 c-0.1,2.2-0.5,4.2-1.3,6c-0.8,1.9-2.1,3.8-3.8,5.8c-3.8,4.3-8.1,6.6-12.8,6.8c-4.7,0.2-9.3-1.6-13.8-5.6c-4.7-4.1-7.3-8.7-7.8-13.8 c-0.5-5.1,1.1-9.8,5-14.2c1.3-1.5,2.8-2.8,4.4-3.8C218.4,225.6,220.2,224.7,222.3,224.1L222.3,224.1z M250.5,197.3 c-2.7,2.1-4,5.1-3.6,8.8c0.3,3.7,2.2,7.8,5.6,12.1c3.4,4.4,6.9,7.2,10.4,8.4c3.5,1.2,6.8,0.7,9.7-1.6c2.7-2.1,3.9-5.1,3.6-8.8 c-0.3-3.8-2.2-7.8-5.5-12.1c-3.4-4.4-6.9-7.2-10.4-8.4C256.6,194.5,253.4,195,250.5,197.3L250.5,197.3z M249.4,195.4 c4.5-3.5,9.2-4.8,14.2-4.1c5,0.7,9.3,3.5,13,8.1c3.5,4.6,5,9.4,4.4,14.6c-0.6,5.2-3,9.5-7.4,12.8c-4.4,3.4-9.1,4.8-14.1,4.1 c-5-0.7-9.3-3.4-12.8-7.9c-3.6-4.7-5.2-9.6-4.6-14.8C242.5,203.1,245,198.8,249.4,195.4z M272.6,179c1.6-0.8,2.9-1.4,4-2 c1.1-0.6,2-1,2.6-1.4c0.8-0.4,2.3-1.4,4.6-2.9c0.8-0.5,1.5-1,2-1.2l1.1,1.9c-1.3,0.8-2.1,1.4-2.3,1.9c-0.3,0.5-0.3,1,0.1,1.5 c0.2,0.3,0.4,0.6,0.7,0.9c0.3,0.3,0.7,0.7,1.1,1l19.3,16.8l-4.9-24.9c-0.1-0.6-0.2-1.1-0.3-1.4c-0.1-0.3-0.2-0.6-0.4-0.9 c-0.4-0.6-0.9-1-1.6-0.9c-0.7,0-1.7,0.4-2.9,1.1l-1.1-1.9c1.2-0.6,2.2-1.1,2.9-1.4c0.8-0.4,1.4-0.7,1.9-1c0.4-0.2,0.9-0.5,1.5-1 c0.6-0.4,1.5-1,2.7-1.7l1.1,1.9c-1.1,0.7-1.7,1.4-2,1.9c-0.3,0.5-0.3,1.2-0.1,2l4.8,26.1c0.3,1.5,0.5,3.2,0.8,4.9 c0.3,1.7,0.5,3.5,0.8,5.3l-2.5,1l-27.3-22.7l-0.2-0.1c-1.8-1.5-3.5-1.8-5.3-0.8L272.6,179L272.6,179z M341.7,145.5 c0.5,1.2,1.1,2.5,1.8,3.9c0.7,1.4,1.5,3.3,2.6,5.5l-1.7,0.7c-1.5-2.8-3-4.5-4.5-5.1c-1.6-0.6-4-0.2-7.2,1.1l-7.6,3l5.5,14l3.5-1.4 c2.2-0.9,3.5-1.8,3.8-2.6c0.3-0.9,0.1-2.6-0.7-5l1.7-0.6c0.2,0.5,0.4,1.2,0.7,2.1c0.8,2.4,1.4,3.9,1.7,4.7c0.5,1.3,1.4,3.4,2.7,6.4 c0.2,0.5,0.3,0.8,0.4,1l-1.7,0.6c-1.2-2.7-2.3-4.4-3.3-4.9c-1-0.6-2.5-0.4-4.6,0.4l-3.5,1.4l6.3,16l9.5-3.7 c3.4-1.3,5.4-2.8,6.2-4.4c0.8-1.6,0.6-4.2-0.4-7.6l1.7-0.7c0.6,2,1.2,4,1.7,5.7c0.6,1.8,1.1,3.4,1.7,5l-30.1,11.8l-0.8-2 c1.8-0.7,2.9-1.4,3.2-2.1c0.3-0.7,0.1-1.9-0.6-3.8l-9.3-23.7c-0.7-1.9-1.4-2.9-2.1-3.2c-0.7-0.3-1.9-0.1-3.7,0.6l-0.8-2l6.4-2.5 c4.5-1.8,8.6-3.4,12.2-4.8C335.9,147.8,339.1,146.5,341.7,145.5L341.7,145.5z M373.7,155.8c0.4-0.1,0.8-0.1,1.3-0.2 c0.4-0.1,1-0.2,1.6-0.3c3.2-0.6,5.3-1.6,6.5-3.2c1.2-1.5,1.5-3.7,1-6.6c-0.5-2.6-1.5-4.5-3.1-5.5c-1.6-1-3.9-1.2-6.8-0.7 c-0.6,0.1-1.6,0.3-2.9,0.6c-0.1,0-0.2,0.1-0.3,0.1L373.7,155.8L373.7,155.8z M359.3,139.9c1.2-0.2,2.3-0.3,3.5-0.5 c1.2-0.2,2.4-0.4,3.5-0.6c1-0.2,2.4-0.5,4.3-0.8c1.9-0.4,3.3-0.7,4.2-0.8c4.8-0.9,8.5-0.7,11.2,0.4c2.7,1.1,4.3,3.2,4.8,6.3 c0.5,3.1,0,5.5-1.6,7.5c-1.6,1.9-4.4,3.3-8.3,4.3c3.6-0.4,6.3-0.1,8.1,0.8c1.8,0.9,3.1,2.8,4,5.7c0.2,0.7,0.5,1.8,0.8,3.1 c0.7,3,1.8,4.4,3.2,4.2c0.7-0.1,1.3-0.5,1.6-1c0.3-0.6,0.5-1.4,0.5-2.5l1.5,0c0.1,2.2-0.4,3.9-1.3,5.1c-0.9,1.2-2.4,2-4.4,2.4 c-2.3,0.4-4,0.1-5.2-0.9c-1.2-1-2.1-2.8-2.5-5.5c-0.1-0.3-0.1-0.8-0.2-1.4c-0.1-0.6-0.2-1.1-0.2-1.5c-0.6-3.2-1.6-5.3-3-6.1 c-1.4-0.8-3.8-1-7.1-0.4l-2.7,0.5l2.1,11.5c0.4,2,0.8,3.2,1.4,3.6c0.6,0.4,1.8,0.4,3.7,0.1l0.4,2.1c-2.1,0.3-3.8,0.5-4.9,0.7 c-1.1,0.2-2,0.3-2.7,0.4c-0.7,0.1-1.7,0.3-2.8,0.6c-1.2,0.2-2.9,0.6-5.1,1.1l-0.4-2.1c1.9-0.3,3.1-0.8,3.5-1.4 c0.4-0.6,0.4-1.9,0.1-3.8l-4.5-25c-0.4-2-0.8-3.1-1.4-3.5c-0.6-0.4-1.9-0.4-3.8-0.1L359.3,139.9L359.3,139.9z M405.4,132.2 c1.4,0.1,2.6,0.1,3.6,0.1c1,0,1.8,0,2.6,0c0.6,0,1.4-0.1,2.3-0.1c0.9-0.1,2.1-0.2,3.5-0.3l21.8,27.7l-0.6-20.5 c-0.1-2.6-0.4-4.1-1-4.7c-0.6-0.6-2-0.9-4.2-0.8l-0.1-2.2c1.4,0.1,2.7,0.1,3.7,0.1c1,0,2,0,2.8,0c0.5,0,1.2-0.1,2-0.1 c0.8-0.1,2-0.2,3.6-0.3l0.1,2.2c-1.9,0.1-3.2,0.4-3.7,1c-0.6,0.6-0.8,2.1-0.7,4.7l0.4,15.8c0.1,3.4,0.2,6.2,0.2,8.5s0,4.6,0,6.9 l-2.8-0.2l-25.9-33l0.7,25.9c0.1,2.7,0.4,4.3,1,4.8c0.6,0.5,2,0.8,4.2,0.7l0,2.1c-1.6-0.1-2.9-0.1-3.9-0.1c-1,0-1.8,0-2.5,0 c-0.4,0-1,0-1.8,0.1c-0.8,0.1-2.1,0.2-4,0.3l-0.1-2.1c2.1-0.1,3.4-0.4,3.9-1c0.6-0.6,0.8-2.2,0.8-4.8l-0.7-24.3 c-0.1-2-0.4-3.3-0.9-3.8c-0.6-0.5-1.8-0.7-3.7-0.6l-0.5,0L405.4,132.2L405.4,132.2z M491.3,137.5c0.6,0.2,1.4,0.4,2.4,0.7 c2.6,0.7,4.3,1.2,5.2,1.4c1.1,0.3,3.3,0.7,6.4,1.2c0.8,0.1,1.4,0.2,1.8,0.3l-0.5,2.1c-2-0.5-3.3-0.5-3.9-0.1 c-0.6,0.4-1.2,1.5-1.6,3.5l-5.7,24.8c-0.5,2-0.5,3.3-0.1,3.9c0.4,0.6,1.6,1.1,3.6,1.6l-0.5,2.1c-2.2-0.6-3.8-1.1-4.9-1.3 c-1.1-0.3-2-0.5-2.7-0.7c-0.8-0.2-1.7-0.4-2.9-0.6c-1.2-0.2-2.9-0.6-5.2-1l0.5-2.1c2,0.5,3.3,0.5,3.9,0.1c0.6-0.4,1.1-1.5,1.6-3.5 l5.7-24.8c0.5-2,0.5-3.3,0.1-3.9c-0.4-0.6-1.6-1.1-3.6-1.6L491.3,137.5L491.3,137.5z M520.1,143.6c1.3,0.6,2.3,1.1,3.2,1.5 c0.9,0.4,1.7,0.7,2.4,1c0.6,0.2,1.3,0.5,2.1,0.8c0.9,0.3,2,0.7,3.4,1.1l9.1,34.1l7.5-19.1c0.9-2.4,1.2-4,0.9-4.8 c-0.4-0.8-1.5-1.6-3.6-2.4l0.8-2c1.3,0.6,2.4,1.1,3.4,1.5c0.9,0.4,1.8,0.8,2.6,1.1c0.5,0.2,1.1,0.4,1.9,0.7 c0.8,0.3,1.9,0.6,3.4,1.1l-0.8,2c-1.8-0.7-3.1-0.8-3.8-0.5c-0.7,0.3-1.6,1.7-2.5,4.1l-5.8,14.7c-1.2,3.1-2.3,5.8-3.2,7.9 c-0.9,2.1-1.8,4.3-2.7,6.4l-2.5-1.3L525,151l-9.5,24.1c-1,2.5-1.3,4.1-0.9,4.8c0.4,0.7,1.6,1.5,3.6,2.3l-0.8,1.9 c-1.5-0.7-2.6-1.2-3.5-1.6c-0.9-0.4-1.7-0.7-2.3-1c-0.4-0.2-1-0.4-1.7-0.6c-0.7-0.3-2-0.7-3.8-1.3l0.8-2c1.9,0.7,3.3,0.9,4,0.6 c0.8-0.3,1.6-1.7,2.6-4.1l8.9-22.6c0.7-1.9,1-3.2,0.6-3.8c-0.3-0.7-1.4-1.4-3.2-2.1l-0.5-0.2L520.1,143.6z M595.9,204.8l-10.3,12.9 l2.8,2.2c2.7,2.2,5,3.2,6.9,3.1c1.8-0.1,3.7-1.3,5.5-3.6c1.9-2.4,2.7-4.5,2.3-6.4c-0.3-1.9-1.8-4-4.6-6.1L595.9,204.8L595.9,204.8z M607,190.9l-9.7,12.3l3.1,2.5c2.2,1.8,4.2,2.5,5.9,2.3c1.7-0.2,3.4-1.4,5.2-3.6c1.8-2.3,2.6-4.2,2.4-5.9c-0.2-1.7-1.6-3.5-4.2-5.5 L607,190.9L607,190.9z M599.5,182.2c0.8,0.7,1.7,1.5,2.5,2.2c0.8,0.7,1.7,1.4,2.5,2.1c1.6,1.3,3.3,2.6,5.1,3.9 c1.8,1.3,2.7,2,2.8,2.1c3.6,2.8,5.7,5.6,6.5,8.1c0.7,2.6,0.1,5.1-1.9,7.7c-1.7,2.2-3.8,3.4-6.1,3.6c-2.3,0.2-4.8-0.6-7.5-2.4 l-0.1,0.1c2.8,2.5,4.5,5,5,7.6c0.5,2.5-0.2,5-2,7.3c-2.1,2.7-4.6,3.9-7.5,3.6c-2.9-0.3-6.4-2-10.5-5.3c-1-0.8-2.3-1.9-3.9-3.2 c-1.6-1.3-2.7-2.2-3.2-2.7c-0.8-0.7-1.7-1.4-2.7-2.1c-1-0.7-2-1.5-3-2.2l1.3-1.7c1.5,1.2,2.7,1.8,3.4,1.7c0.7-0.1,1.7-0.9,2.9-2.5 l16.1-20.3c1.1-1.4,1.6-2.5,1.4-3.1c-0.2-0.7-1-1.6-2.4-2.8L599.5,182.2L599.5,182.2z M633.1,210c0.4,0.4,1,1,1.7,1.8 c1.8,2,3.1,3.3,3.7,3.9c0.8,0.8,2.5,2.3,4.8,4.3c0.6,0.5,1,0.9,1.3,1.2l-1.5,1.6c-1.5-1.4-2.6-2.1-3.3-2.1c-0.7,0-1.8,0.7-3.2,2.2 l-17.6,18.3c-1.4,1.5-2.1,2.6-2.1,3.3c0.1,0.7,0.8,1.8,2.3,3.2l-1.5,1.5c-1.6-1.7-2.7-2.9-3.5-3.7c-0.8-0.8-1.5-1.5-1.9-2 c-0.6-0.5-1.3-1.2-2.2-2c-0.9-0.8-2.2-2-4-3.5l1.5-1.5c1.5,1.4,2.6,2.1,3.3,2.1c0.7,0,1.8-0.7,3.2-2.2l17.6-18.3 c1.4-1.5,2.1-2.6,2.1-3.3c0-0.7-0.8-1.8-2.3-3.2L633.1,210L633.1,210z"></path> <linearGradient id="SVGID_17_" gradientUnits="userSpaceOnUse" x1="63801.1484" y1="-48611.3711" x2="63801.1484" y2="-37143.168" gradientTransform="matrix(2.834646e-02 0 0 -2.834646e-02 -1192.2189 -759.2331)"> <stop offset="0" style="stop-color:#4D4D4D"></stop> <stop offset="0.5216" style="stop-color:#A5A5A5"></stop> <stop offset="1" style="stop-color:#FEFEFE"></stop> </linearGradient> <path class="st17" d="M653.6,230c0.8,1.2,1.5,2.1,2,2.9c0.6,0.8,1.1,1.5,1.5,2.1c0.4,0.5,0.9,1.1,1.5,1.8c0.6,0.7,1.4,1.6,2.3,2.7 l-9.5,34l16.2-12.6c2-1.6,3.1-2.8,3.2-3.6c0.1-0.9-0.5-2.1-1.9-3.9l1.7-1.3c0.8,1.2,1.5,2.2,2.1,3c0.6,0.8,1.2,1.6,1.7,2.2 c0.3,0.4,0.7,0.9,1.3,1.5c0.5,0.6,1.3,1.5,2.4,2.7l-1.7,1.3c-1.2-1.5-2.2-2.3-3-2.4c-0.8-0.1-2.2,0.6-4.2,2.2l-12.5,9.7 c-2.7,2.1-4.9,3.8-6.8,5.2c-1.8,1.4-3.7,2.8-5.6,4.1l-1.5-2.4l11.3-40.4l-20.5,15.9c-2.1,1.6-3.2,2.9-3.3,3.7 c-0.1,0.8,0.6,2.1,1.9,3.8l-1.7,1.3c-0.9-1.3-1.6-2.4-2.2-3.2c-0.6-0.8-1.1-1.5-1.5-2c-0.3-0.3-0.6-0.8-1.1-1.4 c-0.5-0.6-1.4-1.6-2.6-3.1l1.7-1.3c1.3,1.6,2.3,2.5,3.1,2.6c0.8,0.1,2.3-0.6,4.3-2.2l19.2-14.9c1.6-1.2,2.4-2.2,2.5-3 c0.1-0.7-0.5-1.9-1.7-3.4l-0.3-0.4L653.6,230L653.6,230z M685.8,273.3l15.3,30.2l-8.7,5.6l-0.8-1.5c2.6-1.8,4.1-3.5,4.6-5 c0.5-1.5,0.1-3.6-1.2-6.1l-2-4L666.4,306c-1.8,0.9-2.8,1.7-3,2.4c-0.2,0.7,0.1,1.9,1,3.7l0.3,0.5l-1.9,1c-0.6-1.5-1.3-2.8-1.9-4.1 c-0.6-1.3-1.2-2.4-1.7-3.5c-0.4-0.7-0.8-1.6-1.4-2.7c-0.6-1.1-1.5-2.8-2.8-5l1.9-0.9l0.3,0.5c0.9,1.7,1.6,2.7,2.3,3 c0.7,0.2,1.9-0.1,3.7-1l26.7-13.5l-2-3.9c-1.3-2.6-2.7-4.1-4.3-4.6c-1.5-0.5-3.8-0.3-6.8,0.8l-0.8-1.5L685.8,273.3L685.8,273.3z M716.2,344.5c-1.2,0.5-2.5,1-4,1.6c-1.5,0.6-3.3,1.3-5.6,2.3l-0.6-1.7c2.9-1.3,4.6-2.7,5.3-4.3c0.6-1.5,0.4-4-0.7-7.3l-2.6-7.8 l-14.2,4.8l1.2,3.6c0.8,2.3,1.6,3.6,2.4,4c0.9,0.4,2.5,0.2,5.1-0.5l0.5,1.7c-0.5,0.1-1.2,0.4-2.2,0.6c-2.4,0.7-4,1.2-4.8,1.5 c-1.3,0.4-3.5,1.2-6.5,2.4c-0.5,0.2-0.8,0.3-1,0.4l-0.6-1.7c2.8-1.1,4.5-2.1,5.1-3c0.6-0.9,0.6-2.5-0.2-4.6l-1.2-3.6l-16.3,5.5 l3.2,9.7c1.2,3.4,2.5,5.6,4.1,6.4c1.6,0.8,4.1,0.8,7.6,0l0.6,1.7c-2.1,0.5-4,1-5.8,1.4c-1.8,0.5-3.5,0.9-5.1,1.4l-10.3-30.7l2-0.7 c0.6,1.8,1.3,2.9,1.9,3.3c0.6,0.3,1.9,0.2,3.8-0.5l24.1-8.1c1.9-0.6,3-1.3,3.3-1.9c0.3-0.7,0.2-1.9-0.4-3.8l2-0.7l2.2,6.5 c1.6,4.6,3,8.8,4.2,12.4C714.2,338.6,715.3,341.8,716.2,344.5L716.2,344.5z M720.1,358.7c0,0.3,0.1,0.7,0.2,1.2 c0.4,2.9,0.7,5,0.9,6.2c0.2,1.2,0.6,3.2,1.3,6.2c0.1,0.6,0.2,1.1,0.3,1.4l-2.1,0.4c-0.2-1.1-0.5-1.9-0.8-2.4 c-0.4-0.5-0.8-0.7-1.4-0.6c-0.3,0.1-0.6,0.1-0.8,0.3c-0.2,0.1-0.6,0.4-1.1,0.8l-8.2,7.5l11.1,4.6c0.5,0.2,0.9,0.3,1.1,0.3 c0.2,0,0.5,0,0.7,0c0.4-0.1,0.7-0.4,0.8-0.9c0.1-0.5,0.1-1.3-0.1-2.2l-0.1-0.3l2.1-0.4c0.2,1.4,0.3,2.5,0.4,3.5 c0.1,0.9,0.2,1.8,0.4,2.5c0.1,0.5,0.2,1,0.4,1.8c0.2,0.7,0.4,1.9,0.8,3.4l-2.1,0.4l0-0.2c-0.2-1.3-0.7-2.3-1.3-3.1 c-0.6-0.7-1.6-1.4-3-2l-12.7-5.7l-13.8,12.9c-1.4,1.4-2.3,2.4-2.6,3c-0.3,0.7-0.4,1.4-0.3,2.1l0,0.2l-2.1,0.4 c-0.3-1.8-0.5-3.4-0.7-4.6c-0.2-1.2-0.3-2.1-0.4-2.7c-0.2-0.8-0.4-1.9-0.6-3.3c-0.3-1.3-0.6-2.9-1-4.8l2.1-0.4 c0.2,1.4,0.6,2.3,0.9,2.8c0.4,0.5,0.9,0.7,1.5,0.6c0.3,0,0.6-0.2,0.9-0.3c0.3-0.2,0.6-0.4,1-0.8l9.8-9.1l-12.7-5.3 c-0.4-0.2-0.8-0.3-1.2-0.4c-0.4-0.1-0.7-0.1-0.9,0c-0.5,0.1-0.8,0.4-1,0.9c-0.2,0.5-0.2,1.2,0,2.1l0.1,0.5l-2.1,0.4 c-0.1-1.1-0.3-2.2-0.4-3.2c-0.2-1-0.3-1.9-0.5-2.8c-0.1-0.6-0.3-1.3-0.4-2.2c-0.2-0.9-0.4-1.9-0.7-3l2.1-0.4l0,0.2 c0.2,1.3,0.6,2.3,1.3,3c0.6,0.7,1.7,1.4,3.3,2.1l14.5,6.4l12.1-11.3c1.5-1.3,2.4-2.3,2.7-3c0.3-0.7,0.4-1.4,0.3-2.2l-0.1-0.4 L720.1,358.7L720.1,358.7z M728.1,437.3c-0.3,1.6-0.6,3-0.8,4.2c-0.2,1.2-0.3,2.1-0.4,2.8c-0.2,1.3-0.4,3.6-0.6,6.9 c0,0.5,0,0.8-0.1,1l-2.1-0.3c0.1-1.3,0.1-2.3-0.1-2.8c-0.2-0.5-0.6-0.8-1.2-0.9c-0.3,0-0.6,0-1,0c-0.4,0-1,0.1-1.6,0.2l-24.7,4.5 l20.7,10l3.1-0.7c1.6-0.3,2.6-0.7,3.1-1.3c0.4-0.5,0.8-1.4,1-2.6l2.1,0.3c-0.1,0.6-0.2,1.4-0.4,2.4c-0.4,2.4-0.7,3.9-0.8,4.6 c-0.2,1.3-0.4,3.6-0.6,6.8c0,0.5-0.1,1-0.1,1.2l-2.1-0.3c0.1-1.5,0.1-2.6-0.2-3.1c-0.2-0.5-0.7-0.8-1.4-0.9c-0.2,0-0.5,0-0.9,0 c-0.3,0-0.9,0.1-1.5,0.3l-24.5,4.3l22.4,10.7c0.4,0.2,0.8,0.3,1.2,0.5c0.4,0.1,0.8,0.2,1.1,0.3c0.8,0.1,1.3-0.1,1.7-0.6 c0.4-0.5,0.7-1.5,0.9-3l2.1,0.3c-0.3,1.3-0.5,2.4-0.6,3.2c-0.1,0.8-0.3,1.5-0.3,2.1c-0.1,0.6-0.1,1.3-0.2,2.1 c-0.1,0.8-0.1,1.8-0.2,3l-2.1-0.3c0-1.2-0.1-2.1-0.4-2.6c-0.3-0.5-0.8-1-1.6-1.4l-23.1-11.5c-0.6-0.3-1.8-0.9-3.6-1.8 c-1.8-0.9-3.9-2-6.2-3.3l0.7-2.6l27.7-5.6l-17.2-8.5c-1.3-0.6-2.6-1.3-4-2c-1.4-0.8-3-1.6-4.5-2.4l0.7-2.6l34.5-7.2 c1.5-0.3,2.5-0.8,2.9-1.3c0.4-0.5,0.7-1.4,0.9-2.6L728.1,437.3L728.1,437.3z M707.5,533.9c-1.2-0.4-2.6-0.7-4.1-1.2 c-1.5-0.4-3.5-0.9-5.8-1.6l0.6-1.7c3.1,0.7,5.4,0.6,6.8-0.2c1.4-0.8,2.7-2.9,3.8-6.2l2.6-7.8l-14.2-4.8l-1.2,3.6 c-0.8,2.3-0.9,3.8-0.5,4.6c0.5,0.8,1.9,1.7,4.3,2.7l-0.6,1.7c-0.5-0.2-1.2-0.5-2.1-0.8c-2.3-0.9-3.9-1.5-4.7-1.7 c-1.3-0.4-3.5-1.1-6.6-2c-0.5-0.1-0.8-0.2-1-0.3l0.6-1.7c2.9,0.8,4.8,1.1,5.9,0.7c1.1-0.4,1.9-1.6,2.7-3.8l1.2-3.6l-16.3-5.5 l-3.3,9.7c-1.2,3.4-1.4,6-0.6,7.6c0.8,1.6,2.8,3.2,6.1,4.6l-0.6,1.7c-1.9-0.9-3.8-1.7-5.5-2.4c-1.7-0.7-3.4-1.4-4.9-2l10.4-30.7 l2,0.7c-0.6,1.8-0.8,3.1-0.4,3.8c0.3,0.6,1.4,1.3,3.3,1.9l24.1,8.1c1.9,0.6,3.1,0.8,3.8,0.5c0.6-0.3,1.3-1.4,1.9-3.3l2,0.7 l-2.2,6.5c-1.6,4.6-3,8.8-4.2,12.5C709.4,527.9,708.3,531.1,707.5,533.9L707.5,533.9z M684.6,580.3l-19.8,27.5l-9-5.1l1-1.4 c2.8,1.5,5,2.1,6.6,1.8c1.6-0.3,3.2-1.6,4.9-3.9l2.6-3.6l-24.3-17.5c-1.7-1.2-2.8-1.7-3.5-1.6c-0.7,0.1-1.6,1-2.8,2.6l-0.3,0.5 l-1.7-1.2c1-1.2,1.9-2.4,2.8-3.5c0.9-1.1,1.6-2.2,2.3-3.1c0.5-0.6,1-1.5,1.7-2.5c0.7-1,1.8-2.6,3.2-4.8l1.7,1.2l-0.4,0.5 c-1.1,1.6-1.7,2.7-1.6,3.4c0.1,0.7,1,1.7,2.6,2.8L675,590l2.6-3.6c1.7-2.3,2.4-4.3,2.1-5.9c-0.2-1.6-1.5-3.5-3.8-5.7l1-1.4 L684.6,580.3L684.6,580.3z M635.9,613.4c-0.3,0.3-0.6,0.6-0.9,0.9c-0.3,0.3-0.7,0.7-1.1,1.1c-2.2,2.3-3.4,4.4-3.4,6.4 c0,1.9,1,3.9,3.1,5.9c1.9,1.9,3.8,2.7,5.7,2.6c1.9-0.1,3.9-1.3,6-3.4c0.4-0.4,1.1-1.2,2-2.2c0.1-0.1,0.2-0.2,0.2-0.2L635.9,613.4 L635.9,613.4z M656.8,617.8c-0.9,0.8-1.7,1.6-2.5,2.5c-0.8,0.8-1.7,1.7-2.5,2.6c-0.7,0.7-1.7,1.8-3,3.2c-1.3,1.4-2.3,2.5-2.9,3.1 c-3.4,3.5-6.5,5.6-9.3,6.2c-2.8,0.7-5.3-0.1-7.6-2.3c-2.2-2.2-3.3-4.5-3.1-7c0.2-2.5,1.6-5.3,4.2-8.4c-2.7,2.5-5.1,3.8-7,4.1 c-2,0.3-4.2-0.5-6.5-2.3c-0.6-0.5-1.5-1.1-2.5-2.1c-2.4-2.1-4-2.6-5-1.5c-0.5,0.5-0.7,1.1-0.7,1.8c0,0.7,0.4,1.4,1,2.4l-1.2,0.9 c-1.3-1.7-2-3.4-2-4.9c0-1.5,0.7-3,2.1-4.5c1.6-1.7,3.2-2.4,4.8-2.3c1.6,0.1,3.3,1.1,5.3,3c0.2,0.2,0.6,0.6,1,1 c0.4,0.5,0.8,0.8,1,1c2.4,2.3,4.4,3.3,6,3.2c1.6-0.2,3.6-1.4,5.9-3.8l1.9-2l-8.4-8.1c-1.4-1.4-2.5-2.1-3.3-2.1 c-0.7,0-1.8,0.7-3.1,2.1l-1.5-1.5c1.6-1.5,2.8-2.6,3.6-3.4c0.8-0.8,1.4-1.4,1.9-1.9c0.5-0.5,1.2-1.2,2-2.1c0.8-0.9,2-2.2,3.5-3.9 l1.5,1.5c-1.4,1.4-2,2.5-2,3.2c0,0.7,0.7,1.8,2.2,3.2l18.3,17.7c1.4,1.4,2.5,2.1,3.2,2c0.7,0,1.8-0.7,3.1-2.1L656.8,617.8 L656.8,617.8z M622.1,652.9c-0.5,0.3-1.1,0.7-2,1.2c-2.3,1.4-3.8,2.4-4.5,2.9c-0.9,0.6-2.6,1.9-5,3.8c-0.6,0.5-1.1,0.8-1.4,1.1 l-1.2-1.8c1.6-1.1,2.4-2,2.6-2.8c0.1-0.7-0.4-1.9-1.5-3.5l-10-14.2c-1.4-2-2.4-3.3-3-4c-0.6-0.7-1.2-1.2-1.9-1.5 c-1.5-0.9-3.1-1.2-4.9-0.9c-1.8,0.3-3.8,1.2-5.9,2.7c-1.5,1-2.6,2.2-3.5,3.4c-0.8,1.2-1.3,2.4-1.4,3.7c-0.1,1,0.1,2.1,0.6,3.3 c0.5,1.2,1.7,3,3.5,5.6l8.9,12.7c1.6,2.2,2.7,3.4,3.5,3.5c0.8,0.2,1.9-0.3,3.5-1.4l1.2,1.8c-1,0.6-2,1.2-2.8,1.7 c-0.8,0.5-1.6,1-2.2,1.5c-0.4,0.3-1,0.7-1.6,1.2c-0.6,0.5-1.4,1.1-2.4,2l-1.2-1.8c1.4-1,2.1-1.8,2.2-2.6c0.1-0.7-0.7-2.2-2.2-4.4 l-9.2-13.1c-1.7-2.5-2.9-4.4-3.5-5.8c-0.6-1.4-0.8-2.8-0.8-4.2c0-1.9,0.7-3.8,2-5.7c1.3-1.8,3.2-3.7,5.7-5.4c2.4-1.7,4.8-2.9,7-3.4 c2.2-0.6,4.3-0.6,6.3,0c1.2,0.3,2.3,1,3.4,2c1.1,0.9,2.6,2.8,4.5,5.6l9.8,13.9c1.2,1.7,2.1,2.5,2.8,2.6c0.7,0.1,1.9-0.4,3.4-1.5 L622.1,652.9z M555.6,690.6l0.6,2.1l-1.4,0.7c-0.5-1-0.9-1.9-1.3-2.7c-0.4-0.8-0.7-1.4-0.9-1.9c-0.4-0.8-0.8-1.6-1.3-2.5 c-0.5-0.9-1-1.8-1.5-2.8l1.5-0.8c1.7,2.7,3.8,4.5,6,5.3c2.3,0.8,4.7,0.5,7.1-0.7c1.9-1,3.2-2.3,3.9-4.1c0.6-1.7,0.5-3.5-0.4-5.3 c-0.8-1.5-1.8-2.5-3.1-3c-1.3-0.5-3.8-0.5-7.3-0.1c-5.4,0.6-9.2,0.5-11.4-0.3c-2.2-0.8-3.8-2.4-5-4.8c-1.5-3-1.7-6-0.4-9 c1.3-3,3.7-5.4,7.3-7.2c1.8-0.9,3.7-1.5,5.6-1.7c1.9-0.2,3.9,0,5.9,0.5l-0.6-2.7l1.4-0.7c0.3,0.5,0.7,1.3,1.1,2.3 c0.9,1.9,1.5,3.1,1.8,3.7c0.2,0.5,0.8,1.5,1.6,3.1c0.5,1,0.9,1.7,1.2,2.3l-1.7,0.8c-1.9-3.2-4.1-5.4-6.8-6.4 c-2.7-1-5.4-0.8-8.2,0.6c-2.1,1-3.4,2.4-4.1,4.1c-0.7,1.7-0.5,3.5,0.5,5.4c0.8,1.5,1.8,2.5,3.2,3c1.4,0.5,3.5,0.6,6.4,0.2 c0.3,0,0.9-0.1,1.6-0.2c3.7-0.5,6.4-0.6,8.2-0.3c1.7,0.3,3.2,0.9,4.4,1.7c1.2,0.9,2.2,2.1,3,3.7c1.6,3.1,1.8,6,0.6,8.9 c-1.1,2.9-3.4,5.2-6.9,6.9c-1.7,0.9-3.5,1.5-5.2,1.8C559.2,690.9,557.4,690.9,555.6,690.6L555.6,690.6z M541,700.3l-32.1,10.8 l-4.3-9.4l1.6-0.6c1.4,2.8,2.9,4.6,4.3,5.3c1.5,0.7,3.5,0.6,6.2-0.3l4.2-1.4l-9.5-28.4c-0.6-1.9-1.3-3-1.9-3.3 c-0.6-0.3-1.9-0.1-3.8,0.5l-0.6,0.2l-0.7-2c1.5-0.4,3-0.8,4.3-1.2c1.4-0.4,2.6-0.8,3.7-1.2c0.8-0.3,1.7-0.6,2.9-1 c1.2-0.4,3-1.1,5.3-2l0.7,2l-0.6,0.2c-1.8,0.6-2.9,1.2-3.3,1.9c-0.3,0.6-0.2,1.9,0.5,3.8l9.5,28.4l4.2-1.4c2.7-0.9,4.4-2.1,5.2-3.5 c0.7-1.5,0.8-3.7,0.2-6.8l1.6-0.5L541,700.3L541,700.3z"></path> <linearGradient id="SVGID_18_" gradientUnits="userSpaceOnUse" x1="57282.3828" y1="-49201.8242" x2="57282.3828" y2="-47860.3086" gradientTransform="matrix(2.834646e-02 0 0 -2.834646e-02 -1192.2189 -759.2331)"> <stop offset="0" style="stop-color:#333333"></stop> <stop offset="1" style="stop-color:#FEFEFE"></stop> </linearGradient> <path class="st18" d="M384.6,627c0.9-0.3,1.9-0.5,2.9-0.6c1-0.1,2.2-0.2,3.6-0.2c1,0,2.4,0,4,0.1c1.7,0.1,2.8,0.1,3.4,0.1 c1.6,0,2.6-1.7,3.1-5.1l0-0.2h1.5l-1.3,9.6c-1,0-1.7,0.1-2.1,0.1c-0.5,0-0.9,0-1.3,0c-1.3,0-3.4-0.1-6.3-0.2 c-2.8-0.1-5-0.2-6.5-0.2c-0.7,0-1.5,0-2.5,0.1s-2,0.1-3.2,0.2l-0.3-0.3c0.5-1.2,1.3-2.4,2.3-3.6c1-1.2,2.2-2.4,3.5-3.5 c0.3-0.2,0.7-0.6,1.3-1c6-4.9,9-9.3,9-13.4c0-2.6-0.6-4.6-1.8-6c-1.2-1.4-2.9-2.1-5.2-2.1c-2,0-3.6,0.6-4.9,1.8 c-1.3,1.2-2,2.7-2,4.6c1.1,0.2,2.1,0.6,2.8,1.3c0.7,0.6,1,1.3,1,2.1c0,0.6-0.2,1.2-0.6,1.5c-0.4,0.4-0.9,0.6-1.6,0.6 c-1.1,0-2.1-0.4-2.8-1.3c-0.7-0.9-1.1-2.1-1.1-3.5c0-2.7,1-4.9,3-6.6c2-1.7,4.5-2.6,7.7-2.6c3.3,0,5.9,0.9,7.9,2.6c2,1.7,3,4,3,6.8 c0,2.4-0.7,4.5-2.1,6.5c-1.4,2-3.8,4.2-7.4,6.6c-0.4,0.2-0.9,0.6-1.6,1.1C387.3,624.2,385.4,625.8,384.6,627z M418.6,600.4 c-2,0-3.5,1.4-4.6,4.1c-1.1,2.7-1.7,6.5-1.7,11.3c0,4.4,0.5,7.7,1.5,10c1,2.3,2.5,3.5,4.4,3.5c2,0,3.5-1.4,4.6-4.1 c1.1-2.7,1.7-6.5,1.7-11.3c0-4.4-0.5-7.8-1.5-10.1C422.1,601.5,420.6,600.4,418.6,600.4L418.6,600.4z M418.6,598.7 c3.6,0,6.4,1.4,8.5,4.3c2.1,2.9,3.1,6.8,3.1,11.8c0,4.9-1.1,8.8-3.2,11.8c-2.2,3-5,4.4-8.5,4.4c-3.5,0-6.3-1.4-8.4-4.3 c-2.1-2.9-3.2-6.7-3.2-11.5c0-5.1,1.1-9.1,3.2-12.1C412.2,600.2,415,598.7,418.6,598.7L418.6,598.7z M448.3,598.7v26.9 c0,1.6,0.2,2.5,0.7,2.9c0.4,0.3,1.5,0.5,3.2,0.5h0.6v1.7c-2.1-0.1-3.7-0.1-4.8-0.2c-1.1,0-1.9,0-2.6,0c-0.9,0-2,0-3.3,0 c-1.3,0-2.9,0.1-5,0.2V629h1.1c2.1,0,3.3-0.2,3.9-0.6c0.5-0.4,0.8-1.3,0.8-2.9v-23.1c-1.1,0.2-2.1,0.4-3.1,0.6 c-0.9,0.2-1.8,0.5-2.6,0.7v-1.9c1.1-0.3,3-0.8,5.6-1.4C445.6,599.8,447.4,599.2,448.3,598.7L448.3,598.7z M477.7,616.4 c-1.1,1-2.3,1.8-3.6,2.3c-1.3,0.5-2.7,0.8-4.2,0.8c-2.8,0-5.1-0.9-6.8-2.7c-1.7-1.8-2.5-4.2-2.5-7.2c0-3.3,1-5.9,3-7.9 c2-2,4.7-3,8-3c3.7,0,6.6,1.4,8.6,4.2c2,2.8,3.1,6.7,3.1,11.8c0,5.1-1.2,9.1-3.6,12c-2.4,2.9-5.7,4.4-9.9,4.4 c-2.6,0-4.7-0.6-6.4-1.9c-1.7-1.3-2.6-2.8-2.6-4.7c0-0.8,0.2-1.5,0.6-2c0.4-0.5,0.9-0.8,1.6-0.8c0.7,0,1.3,0.3,1.7,0.8 c0.4,0.6,0.6,1.3,0.6,2.2c0,0.3,0,0.6-0.1,1c-0.1,0.4-0.2,0.8-0.3,1.2c0.4,0.7,1.1,1.3,2,1.7c0.9,0.4,1.9,0.6,3,0.6 c2.5,0,4.5-1.1,5.7-3.2C477,624,477.7,620.7,477.7,616.4L477.7,616.4z M477.7,614.4c0-0.3,0-0.6,0-0.9c0-0.3,0-0.8,0-1.4 c0-4-0.5-7-1.5-8.9c-1-1.9-2.6-2.9-4.7-2.9c-1.7,0-3.1,0.7-4.2,2.2c-1,1.5-1.5,3.5-1.5,6.1c0,2.6,0.5,4.7,1.6,6.2 c1.1,1.5,2.5,2.2,4.4,2.2c1,0,2.1-0.2,3.1-0.8C476,616,476.9,615.3,477.7,614.4L477.7,614.4z"></path> <path class="st13" d="M387.4,627c0.9-0.3,1.9-0.5,2.8-0.6c1-0.1,2.2-0.2,3.6-0.2c1,0,2.4,0,4,0.1c1.6,0.1,2.8,0.1,3.4,0.1 c1.6,0,2.6-1.7,3.1-5.1l0-0.2h1.5l-1.3,9.6c-0.9,0-1.6,0.1-2.1,0.1c-0.5,0-0.9,0-1.3,0c-1.3,0-3.4-0.1-6.2-0.2 c-2.8-0.1-5-0.2-6.5-0.2c-0.7,0-1.5,0-2.5,0.1c-0.9,0.1-2,0.1-3.1,0.2l-0.3-0.3c0.5-1.2,1.3-2.4,2.3-3.6c1-1.2,2.1-2.4,3.5-3.5 c0.3-0.2,0.7-0.6,1.3-1c5.9-4.9,8.8-9.3,8.8-13.4c0-2.6-0.6-4.6-1.8-6c-1.2-1.4-2.9-2.1-5.1-2.1c-2,0-3.6,0.6-4.9,1.8 s-1.9,2.7-2,4.6c1.1,0.2,2,0.6,2.7,1.3c0.7,0.6,1,1.3,1,2.1c0,0.6-0.2,1.2-0.6,1.5c-0.4,0.4-0.9,0.6-1.5,0.6c-1.1,0-2-0.4-2.7-1.3 c-0.7-0.9-1.1-2.1-1.1-3.5c0-2.7,1-4.9,2.9-6.6c1.9-1.7,4.5-2.6,7.6-2.6c3.2,0,5.8,0.9,7.8,2.6c2,1.7,3,4,3,6.8 c0,2.4-0.7,4.5-2,6.5c-1.4,2-3.8,4.2-7.3,6.6c-0.3,0.2-0.9,0.6-1.5,1.1C390.1,624.2,388.2,625.8,387.4,627L387.4,627z M421.1,600.4 c-1.9,0-3.5,1.4-4.6,4.1c-1.1,2.7-1.7,6.5-1.7,11.3c0,4.4,0.5,7.7,1.5,10c1,2.3,2.5,3.5,4.4,3.5c2,0,3.5-1.4,4.6-4.1 c1.1-2.7,1.7-6.5,1.7-11.3c0-4.4-0.5-7.8-1.5-10.1C424.5,601.5,423,600.4,421.1,600.4L421.1,600.4z M421,598.7 c3.5,0,6.3,1.4,8.3,4.3c2.1,2.9,3.1,6.8,3.1,11.8c0,4.9-1.1,8.8-3.2,11.8c-2.1,3-4.9,4.4-8.4,4.4c-3.5,0-6.2-1.4-8.3-4.3 c-2.1-2.9-3.1-6.7-3.1-11.5c0-5.1,1.1-9.1,3.2-12.1C414.7,600.2,417.5,598.7,421,598.7L421,598.7z M450.4,598.7v26.9 c0,1.6,0.2,2.5,0.6,2.9c0.4,0.3,1.5,0.5,3.1,0.5h0.6v1.7c-2.1-0.1-3.7-0.1-4.7-0.2c-1,0-1.9,0-2.5,0c-0.9,0-2,0-3.2,0 c-1.2,0-2.9,0.1-4.9,0.2V629h1.1c2,0,3.3-0.2,3.8-0.6c0.5-0.4,0.8-1.3,0.8-2.9v-23.1c-1.1,0.2-2.1,0.4-3,0.6 c-0.9,0.2-1.8,0.5-2.6,0.7v-1.9c1.1-0.3,3-0.8,5.5-1.4C447.6,599.8,449.4,599.2,450.4,598.7L450.4,598.7z M479.4,616.4 c-1.1,1-2.2,1.8-3.5,2.3c-1.3,0.5-2.6,0.8-4.1,0.8c-2.8,0-5-0.9-6.7-2.7c-1.7-1.8-2.5-4.2-2.5-7.2c0-3.3,1-5.9,3-7.9 c2-2,4.6-3,7.9-3c3.7,0,6.5,1.4,8.5,4.2c2,2.8,3,6.7,3,11.8c0,5.1-1.2,9.1-3.6,12c-2.4,2.9-5.6,4.4-9.7,4.4c-2.5,0-4.6-0.6-6.3-1.9 c-1.7-1.3-2.6-2.8-2.6-4.7c0-0.8,0.2-1.5,0.6-2c0.4-0.5,0.9-0.8,1.6-0.8c0.7,0,1.3,0.3,1.7,0.8c0.4,0.6,0.6,1.3,0.6,2.2 c0,0.3,0,0.6-0.1,1c-0.1,0.4-0.2,0.8-0.3,1.2c0.4,0.7,1.1,1.3,1.9,1.7c0.9,0.4,1.9,0.6,3,0.6c2.5,0,4.4-1.1,5.7-3.2 C478.7,624,479.3,620.7,479.4,616.4L479.4,616.4z M479.4,614.4c0-0.3,0-0.6,0-0.9c0-0.3,0-0.8,0-1.4c0-4-0.5-7-1.5-8.9 c-1-1.9-2.5-2.9-4.7-2.9c-1.7,0-3.1,0.7-4.1,2.2c-1,1.5-1.5,3.5-1.5,6.1c0,2.6,0.5,4.7,1.6,6.2c1.1,1.5,2.5,2.2,4.4,2.2 c1,0,2-0.2,3.1-0.8C477.7,616,478.6,615.3,479.4,614.4L479.4,614.4z"></path> </g> </svg> 