<?xml version="1.0" encoding="UTF-8"?> <svg xmlns="http://www.w3.org/2000/svg" xmlns:xlink="http://www.w3.org/1999/xlink" viewBox="0 0 1125.25 321.5"> <defs> <style>.cls-1{fill:none;clip-rule:evenodd;}.cls-2,.cls-71,.cls-72{fill:#969797;}.cls-2{fill-rule:evenodd;}.cls-3{clip-path:url(#clip-path);}.cls-4{fill:#8b8f8a;}.cls-5{fill:#8c918a;}.cls-6{fill:#8e918b;}.cls-7{fill:#8e928a;}.cls-8{fill:#8d928b;}.cls-9{fill:#8f938b;}.cls-10{fill:#8f948b;}.cls-11{fill:#8f968b;}.cls-12{fill:#8f958a;}.cls-13{fill:#8f978b;}.cls-14{fill:#91988a;}.cls-15{fill:#919989;}.cls-16{fill:#939a89;}.cls-17{fill:#919a88;}.cls-18{fill:#939b8a;}.cls-19{fill:#949d8a;}.cls-20{fill:#929d8a;}.cls-21{fill:#959e89;}.cls-22{fill:#95a08a;}.cls-23{fill:#95a189;}.cls-24{fill:#96a38a;}.cls-25{fill:#96a489;}.cls-26{fill:#98a68a;}.cls-27{fill:#98a789;}.cls-28{fill:#9aa889;}.cls-29{fill:#98a88a;}.cls-30{fill:#98a888;}.cls-31{fill:#9aa988;}.cls-32{fill:#9baa89;}.cls-33{fill:#9a8;}.cls-34{fill:#9bab88;}.cls-35{fill:#9cae89;}.cls-36{fill:#9caf8a;}.cls-37{fill:#9daf88;}.cls-38{fill:#9eb188;}.cls-39{fill:#9fb489;}.cls-40{fill:#a0b288;}.cls-41{fill:#9fb588;}.cls-42{fill:#a2b688;}.cls-43{fill:#a1b888;}.cls-44{fill:#a3b789;}.cls-45{fill:#a2ba89;}.cls-46{fill:#a3b888;}.cls-47{fill:#a3ba88;}.cls-48{fill:#a4bb87;}.cls-49{fill:#a2bb88;}.cls-50{fill:#a4bc88;}.cls-51{fill:#a6bd87;}.cls-52{fill:#a6bf87;}.cls-53{fill:#a7c188;}.cls-54{fill:#a7c186;}.cls-55{fill:#a8c488;}.cls-56{fill:#aac789;}.cls-57{fill:#aac787;}.cls-58{fill:#aac887;}.cls-59{fill:#aac988;}.cls-60{fill:#aac986;}.cls-61{fill:#abcb87;}.cls-62{fill:#aecb86;}.cls-63{fill:#abcc87;}.cls-64{fill:#aecd87;}.cls-65{fill:#aece87;}.cls-66{fill:#aece85;}.cls-67{fill:#aecf86;}.cls-68{fill:#aed186;}.cls-69{fill:#b0d086;}.cls-70{fill:#b0d286;}.cls-72{font-size:66.35px;font-family:ArialMT, Arial;}</style> <clipPath id="clip-path"> <path class="cls-1" d="M69.74,27.21A79.54,79.54,0,1,1,18.66,127.43,79.54,79.54,0,0,1,69.74,27.21ZM177.07,66.1q1.47,3.51,2.67,7.18c.34,1,.65,2.09.95,3.13a69.27,69.27,0,1,1-57,111.89c-1,.37-2.05.73-3.09,1.07-2.45.8-4.91,1.48-7.38,2.06A79.55,79.55,0,1,0,177.07,66.1Zm6.86,27.79a92.29,92.29,0,0,1-44.23,86.77,52.07,52.07,0,1,0,44.23-86.77ZM78.23,53.35a52.06,52.06,0,1,0,65.6,33.43,52.06,52.06,0,0,0-65.6-33.43ZM72.92,37a69.26,69.26,0,1,0,87.27,44.48A69.26,69.26,0,0,0,72.92,37Z"></path> </clipPath> </defs> <g id="Слой_7" data-name="Слой 7"> <path class="cls-2" d="M416.05,180.68a32.26,32.26,0,0,1-1.52,9.39,27.18,27.18,0,0,1-13.77,16.44,28.79,28.79,0,0,1-13.4,2.86H297.48a12.51,12.51,0,0,1-4.72-.9A12.24,12.24,0,0,1,289,206a11.51,11.51,0,0,1-2.48-3.76,12,12,0,0,1-.9-4.75V90.74A12.2,12.2,0,0,1,289,82.25a12,12,0,0,1,3.8-2.55,12.51,12.51,0,0,1,4.72-.9H376.7a30.94,30.94,0,0,1,9.39,1.56,28.54,28.54,0,0,1,9.32,4.94,27.62,27.62,0,0,1,7.21,8.89,28.66,28.66,0,0,1,2.86,13.39V112a48.57,48.57,0,0,1-2.08,13.52,45.17,45.17,0,0,1-6.74,13.7,41.07,41.07,0,0,1,7.49,5.94,36.59,36.59,0,0,1,6.15,8,42,42,0,0,1,4.2,10.29,49.1,49.1,0,0,1,1.55,12.68v4.53Zm-23.68-4.53a22.66,22.66,0,0,0-1.46-8.33,18.23,18.23,0,0,0-4.11-6.34,17.15,17.15,0,0,0-6.37-4,22.85,22.85,0,0,0-8.36-1.43H318.71V132.17h42.7a23.59,23.59,0,0,0,8.36-1.43,17.79,17.79,0,0,0,6.4-4,18.18,18.18,0,0,0,4.05-6.34,23.36,23.36,0,0,0,1.39-8.33v-4.45c0-3.42-1.61-5.13-4.91-5.13H309.23v83.24h78.13a13.86,13.86,0,0,0,1.56-.1,4.26,4.26,0,0,0,1.65-.52,4.13,4.13,0,0,0,1.27-1.56,7.19,7.19,0,0,0,.53-3v-4.35Zm68.09,33.22H436.78V78.8h23.68V209.37Zm158.17-10.1a12,12,0,0,1-1,4.72,12.49,12.49,0,0,1-2.55,3.8,11.43,11.43,0,0,1-3.79,2.48,11.68,11.68,0,0,1-4.63.93,12.51,12.51,0,0,1-4.42-.83,10.1,10.1,0,0,1-4-2.65l-86.5-90.32v92H488.13V88.9a11.21,11.21,0,0,1,2.05-6.58,12.54,12.54,0,0,1,5.25-4.42,11.67,11.67,0,0,1,6.9-.68,11.18,11.18,0,0,1,6.12,3.29L595,170.77v-92h23.68V199.27Zm145.49-96.82H712V209.37H688.28V102.45H636V78.8H764.12v23.65ZM888.88,156H814.1V132.17h74.78V156Zm10.62,53.36V185.69H814.28c-3.14,0-5.56-.81-7.18-2.46s-2.45-4-2.45-7.08v-73.7H899.5V78.8H792.9a12.6,12.6,0,0,0-4.76.9,11.48,11.48,0,0,0-3.76,2.55,11.9,11.9,0,0,0-2.51,3.83,12.32,12.32,0,0,0-.91,4.66v85.41c0,6.12,1.09,11.28,3.33,15.51a31.3,31.3,0,0,0,19.08,16,38.1,38.1,0,0,0,10.73,1.74ZM982,125.42,1021.9,78.8h32.32L998,144.26l55.82,65.11h-32.14L982,163.12l-39.5,46.25H910.26L966,144.26,910.07,78.8h32Z"></path> </g> <g id="Слой_6" data-name="Слой 6"> <g class="cls-3"> <rect class="cls-4" x="28.65" y="44.88" width="8.41" height="225.7" transform="translate(-46.99 17.79) rotate(-17.94)"></rect> <rect class="cls-4" x="36.53" y="43.54" width="0.96" height="225.7" transform="translate(-46.38 19.01) rotate(-17.94)"></rect> <rect class="cls-5" x="37.13" y="43.34" width="0.96" height="225.7" transform="translate(-46.26 19.17) rotate(-17.93)"></rect> <rect class="cls-5" x="37.74" y="43.15" width="0.96" height="225.7" transform="translate(-46.2 19.36) rotate(-17.94)"></rect> <rect class="cls-6" x="38.34" y="42.95" width="0.96" height="225.7" transform="translate(-46.11 19.54) rotate(-17.94)"></rect> <rect class="cls-6" x="38.95" y="42.76" width="0.96" height="225.7" transform="translate(-45.99 19.7) rotate(-17.93)"></rect> <rect class="cls-7" x="39.56" y="42.56" width="0.96" height="225.7" transform="translate(-45.93 19.89) rotate(-17.94)"></rect> <rect class="cls-7" x="40.16" y="42.36" width="0.96" height="225.7" transform="translate(-45.81 20.05) rotate(-17.93)"></rect> <rect class="cls-7" x="40.77" y="42.17" width="0.96" height="225.7" transform="translate(-45.75 20.25) rotate(-17.94)"></rect> <rect class="cls-7" x="41.37" y="41.97" width="0.96" height="225.7" transform="translate(-45.66 20.43) rotate(-17.94)"></rect> <rect class="cls-8" x="41.98" y="41.77" width="0.96" height="225.7" transform="translate(-45.53 20.58) rotate(-17.93)"></rect> <rect class="cls-8" x="42.59" y="41.58" width="0.96" height="225.7" transform="translate(-45.48 20.78) rotate(-17.94)"></rect> <rect class="cls-9" x="43.19" y="41.38" width="0.96" height="225.7" transform="translate(-45.36 20.94) rotate(-17.93)"></rect> <rect class="cls-9" x="43.8" y="41.19" width="0.96" height="225.7" transform="translate(-45.3 21.13) rotate(-17.94)"></rect> <rect class="cls-10" x="44.4" y="40.99" width="0.96" height="225.7" transform="translate(-45.21 21.31) rotate(-17.94)"></rect> <rect class="cls-10" x="45.01" y="40.79" width="0.96" height="225.7" transform="translate(-45.09 21.47) rotate(-17.93)"></rect> <rect class="cls-10" x="45.62" y="40.6" width="0.96" height="225.7" transform="translate(-45.04 21.67) rotate(-17.94)"></rect> <rect class="cls-10" x="46.22" y="40.4" width="0.96" height="225.7" transform="matrix(0.95, -0.31, 0.31, 0.95, -45.01, 21.89)"></rect> <rect class="cls-11" x="46.83" y="40.2" width="0.96" height="225.7" transform="translate(-44.82 21.99) rotate(-17.93)"></rect> <rect class="cls-11" x="47.43" y="40.01" width="0.96" height="225.7" transform="translate(-44.77 22.2) rotate(-17.94)"></rect> <rect class="cls-10" x="48.04" y="39.81" width="0.96" height="225.7" transform="translate(-44.65 22.35) rotate(-17.93)"></rect> <rect class="cls-10" x="48.65" y="39.62" width="0.96" height="225.7" transform="translate(-44.59 22.55) rotate(-17.94)"></rect> <rect class="cls-12" x="49.25" y="39.42" width="0.96" height="225.7" transform="translate(-44.49 22.72) rotate(-17.94)"></rect> <rect class="cls-12" x="49.86" y="39.22" width="0.96" height="225.7" transform="translate(-44.38 22.88) rotate(-17.93)"></rect> <rect class="cls-12" x="50.46" y="39.03" width="0.96" height="225.7" transform="translate(-44.32 23.08) rotate(-17.94)"></rect> <rect class="cls-12" x="51.07" y="38.83" width="0.96" height="225.7" transform="translate(-44.2 23.24) rotate(-17.93)"></rect> <rect class="cls-13" x="51.68" y="38.64" width="0.96" height="225.7" transform="translate(-44.1 23.41) rotate(-17.93)"></rect> <rect class="cls-13" x="52.28" y="38.44" width="0.96" height="225.7" transform="translate(-44.05 23.62) rotate(-17.94)"></rect> <rect class="cls-12" x="52.89" y="38.24" width="0.96" height="225.7" transform="translate(-43.93 23.77) rotate(-17.93)"></rect> <rect class="cls-12" x="53.49" y="38.05" width="0.96" height="225.7" transform="translate(-43.87 23.97) rotate(-17.94)"></rect> <rect class="cls-14" x="54.1" y="37.85" width="0.96" height="225.7" transform="translate(-43.78 24.15) rotate(-17.94)"></rect> <rect class="cls-14" x="54.71" y="37.65" width="0.96" height="225.7" transform="translate(-43.66 24.3) rotate(-17.93)"></rect> <rect class="cls-14" x="55.31" y="37.46" width="0.96" height="225.7" transform="translate(-43.6 24.5) rotate(-17.94)"></rect> <rect class="cls-14" x="55.92" y="37.26" width="0.96" height="225.7" transform="translate(-43.48 24.66) rotate(-17.93)"></rect> <rect class="cls-15" x="56.52" y="37.07" width="0.96" height="225.7" transform="translate(-43.42 24.86) rotate(-17.94)"></rect> <rect class="cls-16" x="57.13" y="36.87" width="0.96" height="225.7" transform="translate(-43.33 25.03) rotate(-17.94)"></rect> <rect class="cls-16" x="57.74" y="36.67" width="0.96" height="225.7" transform="translate(-43.21 25.19) rotate(-17.93)"></rect> <rect class="cls-16" x="58.34" y="36.48" width="0.96" height="225.7" transform="translate(-43.15 25.39) rotate(-17.94)"></rect> <rect class="cls-15" x="58.95" y="36.28" width="0.96" height="225.7" transform="translate(-43.03 25.54) rotate(-17.93)"></rect> <rect class="cls-15" x="59.55" y="36.08" width="0.96" height="225.7" transform="translate(-42.97 25.74) rotate(-17.94)"></rect> <rect class="cls-15" x="60.16" y="35.89" width="0.96" height="225.7" transform="translate(-42.96 25.99) rotate(-17.98)"></rect> <rect class="cls-15" x="60.77" y="35.69" width="0.96" height="225.7" transform="translate(-42.76 26.07) rotate(-17.93)"></rect> <rect class="cls-17" x="61.37" y="35.5" width="0.96" height="225.7" transform="translate(-42.7 26.27) rotate(-17.94)"></rect> <rect class="cls-18" x="61.98" y="35.3" width="0.96" height="225.7" transform="translate(-42.61 26.45) rotate(-17.94)"></rect> <rect class="cls-18" x="62.58" y="35.1" width="0.96" height="225.7" transform="translate(-42.49 26.6) rotate(-17.93)"></rect> <rect class="cls-18" x="63.19" y="34.91" width="0.96" height="225.7" transform="translate(-42.43 26.8) rotate(-17.94)"></rect> <rect class="cls-19" x="63.8" y="34.71" width="0.96" height="225.7" transform="translate(-42.31 26.96) rotate(-17.93)"></rect> <rect class="cls-19" x="64.4" y="34.52" width="0.96" height="225.7" transform="translate(-42.24 27.15) rotate(-17.94)"></rect> <rect class="cls-19" x="65.01" y="34.32" width="0.96" height="225.7" transform="translate(-42.16 27.34) rotate(-17.94)"></rect> <rect class="cls-19" x="65.61" y="34.12" width="0.96" height="225.7" transform="translate(-42.04 27.49) rotate(-17.93)"></rect> <rect class="cls-20" x="66.22" y="33.93" width="0.96" height="225.7" transform="translate(-41.98 27.69) rotate(-17.94)"></rect> <rect class="cls-19" x="66.83" y="33.73" width="0.96" height="225.7" transform="translate(-41.85 27.83) rotate(-17.93)"></rect> <rect class="cls-19" x="67.43" y="33.53" width="0.96" height="225.7" transform="translate(-41.77 28.02) rotate(-17.93)"></rect> <rect class="cls-19" x="68.04" y="33.34" width="0.96" height="225.7" transform="translate(-41.71 28.22) rotate(-17.94)"></rect> <rect class="cls-21" x="68.64" y="33.14" width="0.96" height="225.7" transform="translate(-41.59 28.37) rotate(-17.93)"></rect> <rect class="cls-21" x="69.25" y="32.95" width="0.96" height="225.7" transform="translate(-41.52 28.57) rotate(-17.94)"></rect> <rect class="cls-21" x="69.86" y="32.75" width="0.96" height="225.7" transform="translate(-41.38 28.7) rotate(-17.92)"></rect> <rect class="cls-21" x="70.46" y="32.55" width="0.96" height="225.7" transform="translate(-41.35 28.93) rotate(-17.94)"></rect> <rect class="cls-22" x="71.07" y="32.36" width="0.96" height="225.7" transform="translate(-41.26 29.11) rotate(-17.94)"></rect> <rect class="cls-22" x="71.67" y="32.16" width="0.96" height="225.7" transform="translate(-41.13 29.25) rotate(-17.93)"></rect> <rect class="cls-22" x="72.28" y="31.96" width="0.96" height="225.7" transform="translate(-41.05 29.44) rotate(-17.93)"></rect> <rect class="cls-22" x="72.89" y="31.77" width="0.96" height="225.7" transform="translate(-40.96 29.61) rotate(-17.93)"></rect> <rect class="cls-22" x="73.49" y="31.57" width="0.96" height="225.7" transform="translate(-40.9 29.82) rotate(-17.94)"></rect> <rect class="cls-22" x="74.1" y="31.38" width="0.96" height="225.7" transform="translate(-40.88 30.06) rotate(-17.98)"></rect> <rect class="cls-22" x="74.7" y="31.18" width="0.96" height="225.7" transform="translate(-40.67 30.12) rotate(-17.92)"></rect> <rect class="cls-22" x="75.31" y="30.98" width="0.96" height="225.7" transform="translate(-40.63 30.35) rotate(-17.94)"></rect> <rect class="cls-23" x="75.92" y="30.79" width="0.96" height="225.7" transform="translate(-40.54 30.52) rotate(-17.94)"></rect> <rect class="cls-23" x="76.52" y="30.59" width="0.96" height="225.7" transform="translate(-40.42 30.67) rotate(-17.93)"></rect> <rect class="cls-23" x="77.13" y="30.39" width="0.96" height="225.7" transform="translate(-40.33 30.85) rotate(-17.93)"></rect> <rect class="cls-23" x="77.73" y="30.2" width="0.96" height="225.7" transform="translate(-40.24 31.03) rotate(-17.93)"></rect> <rect class="cls-24" x="78.34" y="30" width="0.96" height="225.7" transform="translate(-40.15 31.21) rotate(-17.93)"></rect> <rect class="cls-24" x="78.95" y="29.81" width="0.96" height="225.7" transform="translate(-40.09 31.41) rotate(-17.94)"></rect> <rect class="cls-24" x="79.55" y="29.61" width="0.96" height="225.7" transform="translate(-39.95 31.53) rotate(-17.92)"></rect> <rect class="cls-24" x="80.16" y="29.41" width="0.96" height="225.7" transform="translate(-39.91 31.76) rotate(-17.94)"></rect> <rect class="cls-24" x="80.76" y="29.22" width="0.96" height="225.7" transform="translate(-39.82 31.94) rotate(-17.94)"></rect> <rect class="cls-24" x="81.37" y="29.02" width="0.96" height="225.7" transform="translate(-39.7 32.09) rotate(-17.93)"></rect> <rect class="cls-24" x="81.98" y="28.83" width="0.96" height="225.7" transform="translate(-39.61 32.27) rotate(-17.93)"></rect> <rect class="cls-24" x="82.58" y="28.63" width="0.96" height="225.7" transform="translate(-39.52 32.45) rotate(-17.93)"></rect> <rect class="cls-25" x="83.19" y="28.43" width="0.96" height="225.7" transform="translate(-39.46 32.65) rotate(-17.94)"></rect> <rect class="cls-25" x="83.79" y="28.24" width="0.96" height="225.7" transform="translate(-39.37 32.83) rotate(-17.94)"></rect> <rect class="cls-25" x="84.4" y="28.04" width="0.96" height="225.7" transform="translate(-39.24 32.96) rotate(-17.92)"></rect> <rect class="cls-25" x="85.01" y="27.84" width="0.96" height="225.7" transform="translate(-39.19 33.18) rotate(-17.94)"></rect> <rect class="cls-26" x="85.61" y="27.65" width="0.96" height="225.7" transform="translate(-39.08 33.33) rotate(-17.93)"></rect> <rect class="cls-26" x="86.22" y="27.45" width="0.96" height="225.7" transform="translate(-39.01 33.54) rotate(-17.94)"></rect> <rect class="cls-26" x="86.82" y="27.26" width="0.96" height="225.7" transform="translate(-38.9 33.69) rotate(-17.93)"></rect> <rect class="cls-26" x="87.43" y="27.06" width="0.96" height="225.7" transform="translate(-38.81 33.86) rotate(-17.93)"></rect> <rect class="cls-27" x="88.04" y="26.86" width="0.96" height="225.7" transform="translate(-38.81 34.16) rotate(-17.98)"></rect> <rect class="cls-27" x="88.64" y="26.67" width="0.96" height="225.7" transform="matrix(0.95, -0.31, 0.31, 0.95, -38.7, 34.3)"></rect> <rect class="cls-27" x="89.25" y="26.47" width="0.96" height="225.7" transform="translate(-38.51 34.36) rotate(-17.92)"></rect> <rect class="cls-28" x="89.85" y="26.27" width="0.96" height="225.7" transform="translate(-38.47 34.6) rotate(-17.94)"></rect> <rect class="cls-27" x="90.46" y="26.08" width="0.96" height="225.7" transform="translate(-38.36 34.75) rotate(-17.93)"></rect> <rect class="cls-27" x="91.07" y="25.88" width="0.96" height="225.7" transform="translate(-38.29 34.95) rotate(-17.94)"></rect> <rect class="cls-27" x="91.67" y="25.69" width="0.96" height="225.7" transform="translate(-38.18 35.1) rotate(-17.93)"></rect> <rect class="cls-27" x="92.28" y="25.49" width="0.96" height="225.7" transform="translate(-38.09 35.28) rotate(-17.93)"></rect> <rect class="cls-29" x="92.88" y="25.29" width="0.96" height="225.7" transform="translate(-38.02 35.49) rotate(-17.94)"></rect> <rect class="cls-29" x="93.49" y="25.1" width="0.96" height="225.7" transform="translate(-37.91 35.63) rotate(-17.93)"></rect> <rect class="cls-30" x="94.1" y="24.9" width="0.96" height="225.7" transform="translate(-37.82 35.81) rotate(-17.93)"></rect> <rect class="cls-31" x="94.7" y="24.71" width="0.96" height="225.7" transform="translate(-37.74 36.01) rotate(-17.94)"></rect> <rect class="cls-32" x="95.31" y="24.51" width="0.96" height="225.7" transform="translate(-37.64 36.16) rotate(-17.93)"></rect> <rect class="cls-32" x="95.91" y="24.31" width="0.96" height="225.7" transform="translate(-37.57 36.37) rotate(-17.94)"></rect> <rect class="cls-32" x="96.52" y="24.12" width="0.96" height="225.7" transform="translate(-37.44 36.49) rotate(-17.92)"></rect> <rect class="cls-32" x="97.13" y="23.92" width="0.96" height="225.7" transform="translate(-37.38 36.72) rotate(-17.94)"></rect> <rect class="cls-33" x="97.73" y="23.72" width="0.96" height="225.7" transform="translate(-37.3 36.9) rotate(-17.94)"></rect> <rect class="cls-33" x="98.34" y="23.53" width="0.96" height="225.7" transform="translate(-37.19 37.05) rotate(-17.93)"></rect> <rect class="cls-33" x="98.94" y="23.33" width="0.96" height="225.7" transform="translate(-37.1 37.23) rotate(-17.93)"></rect> <rect class="cls-34" x="99.55" y="23.14" width="0.96" height="225.7" transform="translate(-37 37.39) rotate(-17.93)"></rect> <rect class="cls-34" x="100.16" y="22.94" width="0.96" height="225.7" transform="translate(-36.92 37.58) rotate(-17.93)"></rect> <rect class="cls-34" x="100.76" y="22.74" width="0.96" height="225.7" transform="translate(-36.85 37.79) rotate(-17.94)"></rect> <rect class="cls-34" x="101.37" y="22.55" width="0.96" height="225.7" transform="translate(-36.74 37.93) rotate(-17.93)"></rect> <rect class="cls-34" x="101.97" y="22.35" width="0.96" height="225.7" transform="translate(-36.73 38.23) rotate(-17.98)"></rect> <rect class="cls-35" x="102.58" y="22.15" width="0.96" height="225.7" transform="translate(-36.65 38.42) rotate(-17.98)"></rect> <rect class="cls-35" x="103.19" y="21.96" width="0.96" height="225.7" transform="translate(-36.47 38.46) rotate(-17.93)"></rect> <rect class="cls-35" x="103.79" y="21.76" width="0.96" height="225.7" transform="translate(-36.4 38.67) rotate(-17.94)"></rect> <rect class="cls-35" x="104.4" y="21.57" width="0.96" height="225.7" transform="translate(-36.3 38.84) rotate(-17.94)"></rect> <rect class="cls-36" x="105" y="21.37" width="0.96" height="225.7" transform="translate(-36.2 39) rotate(-17.93)"></rect> <rect class="cls-36" x="105.61" y="21.17" width="0.96" height="225.7" transform="translate(-36.13 39.21) rotate(-17.94)"></rect> <rect class="cls-36" x="106.22" y="20.98" width="0.96" height="225.7" transform="translate(-36.02 39.35) rotate(-17.93)"></rect> <rect class="cls-36" x="106.82" y="20.78" width="0.96" height="225.7" transform="translate(-35.95 39.56) rotate(-17.94)"></rect> <rect class="cls-37" x="107.43" y="20.59" width="0.96" height="225.7" transform="translate(-35.86 39.74) rotate(-17.94)"></rect> <rect class="cls-37" x="108.03" y="20.39" width="0.96" height="225.7" transform="translate(-35.75 39.88) rotate(-17.93)"></rect> <rect class="cls-37" x="108.64" y="20.19" width="0.96" height="225.7" transform="translate(-35.68 40.09) rotate(-17.94)"></rect> <rect class="cls-37" x="109.25" y="20" width="0.96" height="225.7" transform="translate(-35.57 40.24) rotate(-17.93)"></rect> <rect class="cls-37" x="109.85" y="19.8" width="0.96" height="225.7" transform="translate(-35.5 40.45) rotate(-17.94)"></rect> <rect class="cls-37" x="110.46" y="19.6" width="0.96" height="225.7" transform="translate(-35.41 40.62) rotate(-17.94)"></rect> <rect class="cls-37" x="111.06" y="19.41" width="0.96" height="225.7" transform="translate(-35.3 40.77) rotate(-17.93)"></rect> <rect class="cls-37" x="111.67" y="19.21" width="0.96" height="225.7" transform="translate(-35.23 40.98) rotate(-17.94)"></rect> <rect class="cls-38" x="112.28" y="19.02" width="0.96" height="225.7" transform="translate(-35.12 41.12) rotate(-17.93)"></rect> <rect class="cls-38" x="112.88" y="18.82" width="0.96" height="225.7" transform="translate(-35.05 41.33) rotate(-17.94)"></rect> <rect class="cls-38" x="113.49" y="18.62" width="0.96" height="225.7" transform="translate(-34.96 41.51) rotate(-17.94)"></rect> <rect class="cls-38" x="114.09" y="18.43" width="0.96" height="225.7" transform="translate(-34.85 41.65) rotate(-17.93)"></rect> <rect class="cls-38" x="114.7" y="18.23" width="0.96" height="225.7" transform="translate(-34.78 41.86) rotate(-17.94)"></rect> <rect class="cls-38" x="115.31" y="18.04" width="0.96" height="225.7" transform="translate(-34.67 42.01) rotate(-17.93)"></rect> <rect class="cls-38" x="115.91" y="17.84" width="0.96" height="225.7" transform="translate(-34.64 42.29) rotate(-17.97)"></rect> <rect class="cls-38" x="116.52" y="17.64" width="0.96" height="225.7" transform="translate(-34.57 42.5) rotate(-17.98)"></rect> <rect class="cls-39" x="117.12" y="17.45" width="0.96" height="225.7" transform="translate(-34.4 42.53) rotate(-17.93)"></rect> <rect class="cls-39" x="117.73" y="17.25" width="0.96" height="225.7" transform="translate(-34.33 42.75) rotate(-17.94)"></rect> <rect class="cls-40" x="118.34" y="17.05" width="0.96" height="225.7" transform="translate(-34.24 42.93) rotate(-17.94)"></rect> <rect class="cls-40" x="118.94" y="16.86" width="0.96" height="225.7" transform="translate(-34.13 43.07) rotate(-17.93)"></rect> <rect class="cls-39" x="119.55" y="16.66" width="0.96" height="225.7" transform="translate(-34.06 43.27) rotate(-17.94)"></rect> <rect class="cls-39" x="120.15" y="16.47" width="0.96" height="225.7" transform="translate(-33.95 43.42) rotate(-17.93)"></rect> <rect class="cls-39" x="120.76" y="16.27" width="0.96" height="225.7" transform="translate(-33.88 43.63) rotate(-17.94)"></rect> <rect class="cls-39" x="121.37" y="16.07" width="0.96" height="225.7" transform="translate(-33.79 43.81) rotate(-17.94)"></rect> <rect class="cls-41" x="121.97" y="15.88" width="0.96" height="225.7" transform="translate(-33.68 43.94) rotate(-17.93)"></rect> <rect class="cls-42" x="122.58" y="15.68" width="0.96" height="225.7" transform="translate(-33.61 44.17) rotate(-17.94)"></rect> <rect class="cls-42" x="123.18" y="15.48" width="0.96" height="225.7" transform="translate(-33.5 44.31) rotate(-17.93)"></rect> <rect class="cls-42" x="123.79" y="15.29" width="0.96" height="225.7" transform="translate(-33.43 44.52) rotate(-17.94)"></rect> <rect class="cls-41" x="124.4" y="15.09" width="0.96" height="225.7" transform="translate(-33.34 44.69) rotate(-17.94)"></rect> <rect class="cls-41" x="125" y="14.9" width="0.96" height="225.7" transform="translate(-33.24 44.84) rotate(-17.93)"></rect> <rect class="cls-41" x="125.61" y="14.7" width="0.96" height="225.7" transform="translate(-33.16 45.05) rotate(-17.94)"></rect> <rect class="cls-41" x="126.21" y="14.5" width="0.96" height="225.7" transform="translate(-33.06 45.19) rotate(-17.93)"></rect> <rect class="cls-43" x="126.82" y="14.31" width="0.96" height="225.7" transform="translate(-32.96 45.36) rotate(-17.93)"></rect> <rect class="cls-44" x="127.43" y="14.11" width="0.96" height="225.7" transform="translate(-32.89 45.58) rotate(-17.94)"></rect> <rect class="cls-44" x="128.03" y="13.91" width="0.96" height="225.7" transform="translate(-32.79 45.72) rotate(-17.93)"></rect> <rect class="cls-44" x="128.64" y="13.72" width="0.96" height="225.7" transform="translate(-32.71 45.94) rotate(-17.94)"></rect> <rect class="cls-43" x="129.24" y="13.52" width="0.96" height="225.7" transform="translate(-32.62 46.12) rotate(-17.94)"></rect> <rect class="cls-43" x="129.85" y="13.33" width="0.96" height="225.7" transform="translate(-32.52 46.25) rotate(-17.93)"></rect> <rect class="cls-43" x="130.45" y="13.13" width="0.96" height="225.7" transform="translate(-32.5 46.58) rotate(-17.98)"></rect> <rect class="cls-43" x="131.06" y="12.93" width="0.96" height="225.7" transform="translate(-32.36 46.65) rotate(-17.94)"></rect> <rect class="cls-45" x="131.67" y="12.74" width="0.96" height="225.7" transform="translate(-32.25 46.79) rotate(-17.93)"></rect> <rect class="cls-46" x="132.27" y="12.54" width="0.96" height="225.7" transform="translate(-32.18 47) rotate(-17.94)"></rect> <rect class="cls-47" x="132.88" y="12.34" width="0.96" height="225.7" transform="translate(-32.07 47.14) rotate(-17.93)"></rect> <rect class="cls-47" x="133.49" y="12.15" width="0.96" height="225.7" transform="translate(-32 47.36) rotate(-17.94)"></rect> <rect class="cls-48" x="134.09" y="11.95" width="0.96" height="225.7" transform="translate(-31.91 47.53) rotate(-17.94)"></rect> <rect class="cls-48" x="134.7" y="11.76" width="0.96" height="225.7" transform="translate(-31.8 47.67) rotate(-17.93)"></rect> <rect class="cls-48" x="135.3" y="11.56" width="0.96" height="225.7" transform="translate(-31.73 47.89) rotate(-17.94)"></rect> <rect class="cls-48" x="135.91" y="11.36" width="0.96" height="225.7" transform="translate(-31.62 48.03) rotate(-17.93)"></rect> <rect class="cls-49" x="136.52" y="11.17" width="0.96" height="225.7" transform="translate(-31.55 48.24) rotate(-17.94)"></rect> <rect class="cls-48" x="137.12" y="10.97" width="0.96" height="225.7" transform="translate(-31.44 48.38) rotate(-17.93)"></rect> <rect class="cls-48" x="137.73" y="10.78" width="0.96" height="225.7" transform="translate(-31.35 48.56) rotate(-17.93)"></rect> <rect class="cls-48" x="138.33" y="10.58" width="0.96" height="225.7" transform="translate(-31.28 48.77) rotate(-17.94)"></rect> <rect class="cls-50" x="138.94" y="10.38" width="0.96" height="225.7" transform="translate(-31.17 48.91) rotate(-17.93)"></rect> <rect class="cls-50" x="139.54" y="10.19" width="0.96" height="225.7" transform="translate(-31.08 49.09) rotate(-17.93)"></rect> <rect class="cls-50" x="140.15" y="9.99" width="0.96" height="225.7" transform="translate(-31.01 49.3) rotate(-17.94)"></rect> <rect class="cls-50" x="140.76" y="9.79" width="0.96" height="225.7" transform="translate(-30.9 49.44) rotate(-17.93)"></rect> <rect class="cls-51" x="141.36" y="9.6" width="0.96" height="225.7" transform="translate(-30.83 49.66) rotate(-17.94)"></rect> <rect class="cls-51" x="141.97" y="9.4" width="0.96" height="225.7" transform="translate(-30.7 49.76) rotate(-17.92)"></rect> <rect class="cls-51" x="142.57" y="9.21" width="0.96" height="225.7" transform="translate(-30.65 50.01) rotate(-17.94)"></rect> <rect class="cls-51" x="143.18" y="9.01" width="0.96" height="225.7" transform="translate(-30.56 50.19) rotate(-17.94)"></rect> <rect class="cls-52" x="143.79" y="8.81" width="0.96" height="225.7" transform="translate(-30.45 50.33) rotate(-17.93)"></rect> <rect class="cls-52" x="144.39" y="8.62" width="0.96" height="225.7" transform="translate(-30.41 50.63) rotate(-17.97)"></rect> <rect class="cls-52" x="145" y="8.42" width="0.96" height="225.7" transform="translate(-30.29 50.72) rotate(-17.94)"></rect> <rect class="cls-52" x="145.61" y="8.22" width="0.96" height="225.7" transform="translate(-30.18 50.86) rotate(-17.93)"></rect> <rect class="cls-52" x="146.21" y="8.03" width="0.96" height="225.7" transform="translate(-30.11 51.08) rotate(-17.94)"></rect> <rect class="cls-52" x="146.82" y="7.83" width="0.96" height="225.7" transform="translate(-29.99 51.17) rotate(-17.92)"></rect> <rect class="cls-52" x="147.42" y="7.64" width="0.96" height="225.7" transform="translate(-29.93 51.43) rotate(-17.94)"></rect> <rect class="cls-52" x="148.03" y="7.44" width="0.96" height="225.7" transform="translate(-29.84 51.61) rotate(-17.94)"></rect> <rect class="cls-53" x="148.64" y="7.24" width="0.96" height="225.7" transform="translate(-29.73 51.74) rotate(-17.93)"></rect> <rect class="cls-53" x="149.24" y="7.05" width="0.96" height="225.7" transform="translate(-29.64 51.92) rotate(-17.93)"></rect> <rect class="cls-53" x="149.85" y="6.85" width="0.96" height="225.7" transform="translate(-29.55 52.08) rotate(-17.93)"></rect> <rect class="cls-53" x="150.45" y="6.66" width="0.96" height="225.7" transform="translate(-29.48 52.32) rotate(-17.94)"></rect> <rect class="cls-54" x="151.06" y="6.46" width="0.96" height="225.7" transform="translate(-29.39 52.49) rotate(-17.94)"></rect> <rect class="cls-54" x="151.66" y="6.26" width="0.96" height="225.7" transform="translate(-29.27 52.59) rotate(-17.92)"></rect> <rect class="cls-54" x="152.27" y="6.07" width="0.96" height="225.7" transform="translate(-29.2 52.83) rotate(-17.94)"></rect> <rect class="cls-54" x="152.88" y="5.87" width="0.96" height="225.7" transform="translate(-29.12 53.02) rotate(-17.94)"></rect> <rect class="cls-55" x="153.48" y="5.67" width="0.96" height="225.7" transform="translate(-29.01 53.16) rotate(-17.93)"></rect> <rect class="cls-55" x="154.09" y="5.48" width="0.96" height="225.7" transform="translate(-28.92 53.34) rotate(-17.93)"></rect> <rect class="cls-55" x="154.69" y="5.28" width="0.96" height="225.7" transform="translate(-28.83 53.5) rotate(-17.93)"></rect> <rect class="cls-55" x="155.3" y="5.09" width="0.96" height="225.7" transform="translate(-28.76 53.73) rotate(-17.94)"></rect> <rect class="cls-55" x="155.91" y="4.89" width="0.96" height="225.7" transform="translate(-28.67 53.91) rotate(-17.94)"></rect> <rect class="cls-55" x="156.51" y="4.69" width="0.96" height="225.7" transform="translate(-28.55 54) rotate(-17.92)"></rect> <rect class="cls-55" x="157.12" y="4.5" width="0.96" height="225.7" transform="translate(-28.48 54.25) rotate(-17.94)"></rect> <rect class="cls-55" x="157.72" y="4.3" width="0.96" height="225.7" transform="translate(-28.38 54.4) rotate(-17.93)"></rect> <rect class="cls-55" x="158.33" y="4.1" width="0.96" height="225.7" transform="translate(-28.34 54.7) rotate(-17.97)"></rect> <rect class="cls-55" x="158.94" y="3.91" width="0.96" height="225.7" transform="translate(-28.2 54.75) rotate(-17.93)"></rect> <rect class="cls-55" x="159.54" y="3.71" width="0.96" height="225.7" transform="matrix(0.95, -0.31, 0.31, 0.95, -28.11, 54.92)"></rect> <rect class="cls-55" x="160.15" y="3.52" width="0.96" height="225.7" transform="translate(-28.04 55.15) rotate(-17.94)"></rect> <rect class="cls-56" x="160.76" y="3.32" width="0.96" height="225.7" transform="translate(-27.95 55.33) rotate(-17.94)"></rect> <rect class="cls-56" x="161.36" y="3.12" width="0.96" height="225.7" transform="translate(-27.83 55.42) rotate(-17.92)"></rect> <rect class="cls-56" x="161.97" y="2.93" width="0.96" height="225.7" transform="translate(-27.77 55.68) rotate(-17.94)"></rect> <rect class="cls-56" x="162.57" y="2.73" width="0.96" height="225.7" transform="translate(-27.67 55.82) rotate(-17.93)"></rect> <rect class="cls-57" x="163.18" y="2.54" width="0.96" height="225.7" transform="translate(-27.59 56.04) rotate(-17.94)"></rect> <rect class="cls-57" x="163.78" y="2.34" width="0.96" height="225.7" transform="translate(-27.49 56.17) rotate(-17.93)"></rect> <rect class="cls-57" x="164.39" y="2.14" width="0.96" height="225.7" transform="translate(-27.4 56.35) rotate(-17.93)"></rect> <rect class="cls-57" x="165" y="1.95" width="0.96" height="225.7" transform="translate(-27.32 56.57) rotate(-17.94)"></rect> <rect class="cls-58" x="165.6" y="1.75" width="0.96" height="225.7" transform="translate(-27.22 56.7) rotate(-17.93)"></rect> <rect class="cls-58" x="166.21" y="1.55" width="0.96" height="225.7" transform="translate(-27.13 56.88) rotate(-17.93)"></rect> <rect class="cls-58" x="166.81" y="1.36" width="0.96" height="225.7" transform="translate(-27.05 57.1) rotate(-17.94)"></rect> <rect class="cls-58" x="167.42" y="1.16" width="0.96" height="225.7" transform="translate(-26.95 57.23) rotate(-17.93)"></rect> <rect class="cls-58" x="168.03" y="0.97" width="0.96" height="225.7" transform="translate(-26.87 57.45) rotate(-17.94)"></rect> <rect class="cls-58" x="168.63" y="0.77" width="0.96" height="225.7" transform="translate(-26.75 57.54) rotate(-17.92)"></rect> <rect class="cls-58" x="169.24" y="0.57" width="0.96" height="225.7" transform="translate(-26.69 57.81) rotate(-17.94)"></rect> <rect class="cls-58" x="169.84" y="0.38" width="0.96" height="225.7" transform="translate(-26.6 57.99) rotate(-17.94)"></rect> <rect class="cls-59" x="170.45" y="0.18" width="0.96" height="225.7" transform="translate(-26.5 58.12) rotate(-17.93)"></rect> <rect class="cls-59" x="171.06" y="-0.02" width="0.96" height="225.7" transform="translate(-26.42 58.34) rotate(-17.94)"></rect> <rect class="cls-60" x="171.66" y="-0.21" width="0.96" height="225.7" transform="translate(-26.32 58.47) rotate(-17.93)"></rect> <rect class="cls-60" x="172.27" y="-0.41" width="0.96" height="225.7" transform="translate(-26.26 58.77) rotate(-17.97)"></rect> <rect class="cls-61" x="172.87" y="-0.6" width="0.96" height="225.7" transform="translate(-26.19 59.01) rotate(-17.98)"></rect> <rect class="cls-61" x="173.48" y="-0.8" width="0.96" height="225.7" transform="translate(-26.05 59) rotate(-17.93)"></rect> <rect class="cls-62" x="174.09" y="-1" width="0.96" height="225.7" transform="translate(-25.97 59.23) rotate(-17.94)"></rect> <rect class="cls-62" x="174.69" y="-1.19" width="0.96" height="225.7" transform="translate(-25.88 59.39) rotate(-17.94)"></rect> <rect class="cls-63" x="175.3" y="-1.39" width="0.96" height="225.7" transform="translate(-25.78 59.53) rotate(-17.93)"></rect> <rect class="cls-63" x="175.9" y="-1.59" width="0.96" height="225.7" transform="translate(-25.7 59.76) rotate(-17.94)"></rect> <rect class="cls-63" x="176.51" y="-1.78" width="0.96" height="225.7" transform="translate(-25.6 59.89) rotate(-17.93)"></rect> <rect class="cls-63" x="177.12" y="-1.98" width="0.96" height="225.7" transform="translate(-25.52 60.1) rotate(-17.94)"></rect> <rect class="cls-63" x="177.72" y="-2.17" width="0.96" height="225.7" transform="translate(-25.43 60.29) rotate(-17.94)"></rect> <rect class="cls-63" x="178.33" y="-2.37" width="0.96" height="225.7" transform="translate(-25.33 60.42) rotate(-17.93)"></rect> <rect class="cls-64" x="178.93" y="-2.57" width="0.96" height="225.7" transform="translate(-25.25 60.64) rotate(-17.94)"></rect> <rect class="cls-64" x="179.54" y="-2.76" width="0.96" height="225.7" transform="translate(-25.16 60.8) rotate(-17.94)"></rect> <rect class="cls-65" x="180.15" y="-2.96" width="0.96" height="225.7" transform="translate(-25.06 60.95) rotate(-17.93)"></rect> <rect class="cls-65" x="180.75" y="-3.15" width="0.96" height="225.7" transform="translate(-24.98 61.17) rotate(-17.94)"></rect> <rect class="cls-65" x="181.36" y="-3.35" width="0.96" height="225.7" transform="translate(-24.88 61.3) rotate(-17.93)"></rect> <rect class="cls-65" x="181.96" y="-3.55" width="0.96" height="225.7" transform="translate(-24.8 61.51) rotate(-17.94)"></rect> <rect class="cls-66" x="182.57" y="-3.74" width="0.96" height="225.7" transform="translate(-24.71 61.71) rotate(-17.94)"></rect> <rect class="cls-66" x="183.18" y="-3.94" width="0.96" height="225.7" transform="translate(-24.61 61.83) rotate(-17.93)"></rect> <rect class="cls-65" x="183.78" y="-4.14" width="0.96" height="225.7" transform="translate(-24.53 62.06) rotate(-17.94)"></rect> <rect class="cls-65" x="184.39" y="-4.33" width="0.96" height="225.7" transform="translate(-24.43 62.19) rotate(-17.93)"></rect> <rect class="cls-67" x="184.99" y="-4.53" width="0.96" height="225.7" transform="translate(-24.35 62.41) rotate(-17.94)"></rect> <rect class="cls-67" x="185.6" y="-4.72" width="0.96" height="225.7" transform="translate(-24.26 62.59) rotate(-17.94)"></rect> <rect class="cls-67" x="186.21" y="-4.92" width="0.96" height="225.7" transform="matrix(0.95, -0.31, 0.31, 0.95, -24.19, 62.87)"></rect> <rect class="cls-67" x="186.81" y="-5.12" width="0.96" height="225.7" transform="translate(-24.11 63.09) rotate(-17.98)"></rect> <rect class="cls-68" x="187.42" y="-5.31" width="0.96" height="225.7" transform="translate(-23.99 63.12) rotate(-17.94)"></rect> <rect class="cls-68" x="188.02" y="-5.51" width="0.96" height="225.7" transform="translate(-23.89 63.25) rotate(-17.93)"></rect> <rect class="cls-69" x="188.63" y="-5.71" width="0.96" height="225.7" transform="translate(-23.81 63.48) rotate(-17.94)"></rect> <rect class="cls-69" x="189.24" y="-5.9" width="0.96" height="225.7" transform="translate(-23.71 63.61) rotate(-17.93)"></rect> <rect class="cls-70" x="189.84" y="-6.1" width="0.96" height="225.7" transform="translate(-23.63 63.83) rotate(-17.94)"></rect> <rect class="cls-70" x="189.11" y="-14.76" width="55.94" height="225.7" transform="translate(-19.66 71.63) rotate(-17.94)"></rect> </g> </g> <g id="Слой_5" data-name="Слой 5"> <path class="cls-2" d="M705.17,225.56a14.88,14.88,0,0,1-.13,2.14,4.5,4.5,0,0,1-.45,1.46,2.19,2.19,0,0,1-.75.81,1.73,1.73,0,0,1-.89.26H672V259h29.21a1.86,1.86,0,0,1,.89.22,2,2,0,0,1,.76.76,4.19,4.19,0,0,1,.45,1.4,15.58,15.58,0,0,1,.13,2.25,14.32,14.32,0,0,1-.13,2.14,4.68,4.68,0,0,1-.45,1.45,2.83,2.83,0,0,1-.76.84,1.5,1.5,0,0,1-.89.29H672v35.18a1.64,1.64,0,0,1-.26.89,1.75,1.75,0,0,1-.91.64,9.31,9.31,0,0,1-1.7.4,18.16,18.16,0,0,1-2.73.16,18.62,18.62,0,0,1-2.68-.16A9,9,0,0,1,662,305a1.74,1.74,0,0,1-.92-.64,1.65,1.65,0,0,1-.27-.89V225.31a4.24,4.24,0,0,1,1.34-3.56,4.67,4.67,0,0,1,2.85-1H703a1.65,1.65,0,0,1,.89.27,2,2,0,0,1,.75.84,4.73,4.73,0,0,1,.45,1.52,15.48,15.48,0,0,1,.13,2.18Zm66.05,78a1.55,1.55,0,0,1-.22.89,1.87,1.87,0,0,1-.82.63,6.75,6.75,0,0,1-1.54.38,18.41,18.41,0,0,1-2.31.13,19.7,19.7,0,0,1-2.43-.13,6.31,6.31,0,0,1-1.51-.38,1.59,1.59,0,0,1-.74-.63,1.83,1.83,0,0,1-.2-.89v-7.77a36.17,36.17,0,0,1-9.93,8.06,21.31,21.31,0,0,1-9.9,2.54,22.35,22.35,0,0,1-9.89-2,17.19,17.19,0,0,1-6.5-5.32,21.59,21.59,0,0,1-3.56-7.81,47.75,47.75,0,0,1-1.07-10.87v-35.6a1.68,1.68,0,0,1,.22-.89,2.22,2.22,0,0,1,.89-.64,5.12,5.12,0,0,1,1.7-.4c.68-.07,1.55-.09,2.6-.09s1.91,0,2.6.09a4.93,4.93,0,0,1,1.67.4,2.65,2.65,0,0,1,.87.64,1.47,1.47,0,0,1,.27.89V279a35.33,35.33,0,0,0,.76,8.26,15,15,0,0,0,2.27,5.28,10.6,10.6,0,0,0,3.89,3.4,11.87,11.87,0,0,0,5.48,1.2,13.74,13.74,0,0,0,8.06-2.87,45.35,45.35,0,0,0,8.52-8.41V244.81a1.6,1.6,0,0,1,.23-.89,2.08,2.08,0,0,1,.89-.64,4.92,4.92,0,0,1,1.65-.4c.69-.07,1.55-.09,2.64-.09s1.92,0,2.61.09a4.34,4.34,0,0,1,1.62.4,3.07,3.07,0,0,1,.9.64,1.35,1.35,0,0,1,.28.89v58.73Zm50.41-4.36a13.26,13.26,0,0,1-.27,3,3.07,3.07,0,0,1-.78,1.62,4.51,4.51,0,0,1-1.56,1,12.57,12.57,0,0,1-2.38.76c-.89.2-1.83.35-2.83.49a23,23,0,0,1-3,.2A22.25,22.25,0,0,1,803,305a12.76,12.76,0,0,1-5.35-3.65,15.34,15.34,0,0,1-3-6.19,36.8,36.8,0,0,1-.93-8.81V252.14h-8.26a1.81,1.81,0,0,1-1.58-1,7.43,7.43,0,0,1-.58-3.4,10.87,10.87,0,0,1,.16-2.07,7.06,7.06,0,0,1,.42-1.43,1.84,1.84,0,0,1,.69-.78,2,2,0,0,1,1-.22h8.19V229.25a1.57,1.57,0,0,1,.22-.84,1.92,1.92,0,0,1,.87-.69,5.35,5.35,0,0,1,1.67-.43,23.18,23.18,0,0,1,2.63-.13,23.7,23.7,0,0,1,2.67.13,5.21,5.21,0,0,1,1.65.43,2.05,2.05,0,0,1,.84.69,1.38,1.38,0,0,1,.27.84v13.94h15a1.75,1.75,0,0,1,.91.22,1.94,1.94,0,0,1,.67.78,4.57,4.57,0,0,1,.42,1.43,13.09,13.09,0,0,1,.14,2.07,7.43,7.43,0,0,1-.58,3.4,1.78,1.78,0,0,1-1.56,1h-15V284.8c0,4,.6,7.08,1.78,9.13s3.32,3.09,6.39,3.09a10.75,10.75,0,0,0,2.65-.29c.78-.2,1.47-.4,2.07-.62s1.11-.43,1.56-.63a2.75,2.75,0,0,1,1.16-.29,1.25,1.25,0,0,1,.62.16,1.13,1.13,0,0,1,.44.62,7.08,7.08,0,0,1,.29,1.25,11.71,11.71,0,0,1,.14,2Zm64.51,4.36a1.55,1.55,0,0,1-.22.89,1.93,1.93,0,0,1-.82.63,6.75,6.75,0,0,1-1.54.38,18.47,18.47,0,0,1-2.32.13,19.64,19.64,0,0,1-2.42-.13,6.55,6.55,0,0,1-1.52-.38,1.61,1.61,0,0,1-.73-.63,1.83,1.83,0,0,1-.2-.89v-7.77a36.32,36.32,0,0,1-9.93,8.06,21.32,21.32,0,0,1-9.91,2.54,22.33,22.33,0,0,1-9.88-2,17.19,17.19,0,0,1-6.5-5.32,21.59,21.59,0,0,1-3.56-7.81,47.19,47.19,0,0,1-1.07-10.87v-35.6a1.59,1.59,0,0,1,.22-.89,2.22,2.22,0,0,1,.89-.64,5.05,5.05,0,0,1,1.69-.4c.69-.07,1.56-.09,2.61-.09s1.91,0,2.6.09a4.93,4.93,0,0,1,1.67.4,2.65,2.65,0,0,1,.87.64,1.47,1.47,0,0,1,.27.89V279a36,36,0,0,0,.75,8.26,15.15,15.15,0,0,0,2.27,5.28,10.71,10.71,0,0,0,3.9,3.4,11.87,11.87,0,0,0,5.48,1.2,13.74,13.74,0,0,0,8.06-2.87,45.35,45.35,0,0,0,8.52-8.41V244.81a1.6,1.6,0,0,1,.23-.89,2.08,2.08,0,0,1,.89-.64,4.92,4.92,0,0,1,1.64-.4c.69-.07,1.56-.09,2.65-.09s1.92,0,2.61.09a4.39,4.39,0,0,1,1.62.4,3,3,0,0,1,.89.64,1.36,1.36,0,0,1,.29.89v58.73Zm54.28-54.92c0,1,0,1.76-.07,2.41a5.55,5.55,0,0,1-.27,1.53,1.84,1.84,0,0,1-.49.85,1,1,0,0,1-.8.29,3.45,3.45,0,0,1-1.27-.29c-.51-.2-1.06-.4-1.69-.58s-1.33-.38-2.11-.56a11.32,11.32,0,0,0-2.54-.26,8.59,8.59,0,0,0-3.21.64,12.63,12.63,0,0,0-3.27,2.18,27.15,27.15,0,0,0-3.63,4c-1.24,1.67-2.65,3.69-4.16,6.1v38.62a1.43,1.43,0,0,1-.27.89,2.15,2.15,0,0,1-.84.63,7.37,7.37,0,0,1-1.65.38,23.7,23.7,0,0,1-2.67.13,23.18,23.18,0,0,1-2.63-.13,7.58,7.58,0,0,1-1.67-.38,2,2,0,0,1-.87-.63,1.63,1.63,0,0,1-.22-.89V244.81a1.89,1.89,0,0,1,.2-.89,1.82,1.82,0,0,1,.78-.64,4.25,4.25,0,0,1,1.51-.4,22.92,22.92,0,0,1,2.43-.09,22.6,22.6,0,0,1,2.38.09,3.71,3.71,0,0,1,1.49.4,2.51,2.51,0,0,1,.76.64,1.89,1.89,0,0,1,.22.89v8.55a47.79,47.79,0,0,1,4.52-5.76,27,27,0,0,1,4-3.5,13.26,13.26,0,0,1,3.74-1.76,14.59,14.59,0,0,1,3.76-.49q.84,0,1.92.09a22.24,22.24,0,0,1,2.25.36,20.15,20.15,0,0,1,2.11.6,4.49,4.49,0,0,1,1.34.65,1.6,1.6,0,0,1,.51.62,3.47,3.47,0,0,1,.24.73,8.89,8.89,0,0,1,.14,1.34c0,.6,0,1.38,0,2.38Zm60.44,23a4.57,4.57,0,0,1-1.27,3.63,4.4,4.4,0,0,1-2.91,1.07H958.12a36.42,36.42,0,0,0,1,8.81,16.63,16.63,0,0,0,3.27,6.75,14.54,14.54,0,0,0,5.92,4.29,23.48,23.48,0,0,0,9,1.52,35.41,35.41,0,0,0,7.44-.69,43.37,43.37,0,0,0,5.65-1.52c1.58-.55,2.9-1.06,3.92-1.51a6.09,6.09,0,0,1,2.31-.69,1.54,1.54,0,0,1,.83.22,1.44,1.44,0,0,1,.53.69,4,4,0,0,1,.31,1.25,16.29,16.29,0,0,1,.09,2q0,.84-.06,1.47c0,.4-.09.78-.16,1.09a3,3,0,0,1-.33.89,4.68,4.68,0,0,1-.58.74,10,10,0,0,1-2.12,1.15,31.09,31.09,0,0,1-4.56,1.61,63.86,63.86,0,0,1-6.48,1.38,46.32,46.32,0,0,1-7.84.62,35.92,35.92,0,0,1-12.66-2,23.32,23.32,0,0,1-9.15-6,25.81,25.81,0,0,1-5.59-10,46.09,46.09,0,0,1-1.89-14,43.62,43.62,0,0,1,2-13.6,28.73,28.73,0,0,1,5.63-10.24,24.84,24.84,0,0,1,8.9-6.46,29.37,29.37,0,0,1,11.67-2.25,27.87,27.87,0,0,1,11.75,2.23,22.22,22.22,0,0,1,8,6,24.1,24.1,0,0,1,4.58,8.81,38.46,38.46,0,0,1,1.47,10.8v2ZM990,268.44q.21-8.49-3.76-13.34c-2.65-3.23-6.55-4.83-11.73-4.83a15.57,15.57,0,0,0-7,1.49,15.12,15.12,0,0,0-5,4,18.32,18.32,0,0,0-3.14,5.76,24.82,24.82,0,0,0-1.24,6.91Zm64.18,19.07a18.5,18.5,0,0,1-1.67,8,16.27,16.27,0,0,1-4.71,5.92,21.27,21.27,0,0,1-7.31,3.65,33,33,0,0,1-9.33,1.25,34.57,34.57,0,0,1-6-.49,32.38,32.38,0,0,1-5.1-1.22,27.77,27.77,0,0,1-3.81-1.54,10.67,10.67,0,0,1-2.27-1.45,3.47,3.47,0,0,1-1-1.82,11.84,11.84,0,0,1-.34-3.21,13.28,13.28,0,0,1,.14-2.07,9.74,9.74,0,0,1,.31-1.38,1.62,1.62,0,0,1,.55-.76,1.56,1.56,0,0,1,.83-.22,4.53,4.53,0,0,1,2.11.89c.94.58,2.1,1.23,3.45,1.92a31.39,31.39,0,0,0,4.86,1.91,21,21,0,0,0,6.43.89,18.78,18.78,0,0,0,4.94-.6,11.33,11.33,0,0,0,3.85-1.74,7.61,7.61,0,0,0,2.52-2.91,9.44,9.44,0,0,0,.87-4.21,6.67,6.67,0,0,0-1.27-4.16,12.22,12.22,0,0,0-3.34-3,27.05,27.05,0,0,0-4.7-2.31q-2.6-1-5.36-2.12c-1.83-.76-3.63-1.58-5.39-2.51a20.68,20.68,0,0,1-4.72-3.43,16,16,0,0,1-3.34-4.83,16.13,16.13,0,0,1-1.27-6.73,16.9,16.9,0,0,1,1.34-6.61,15.28,15.28,0,0,1,4-5.54,20.66,20.66,0,0,1,6.71-3.83,27.63,27.63,0,0,1,9.37-1.43,28.86,28.86,0,0,1,4.7.4,32.79,32.79,0,0,1,4.23,1,19.67,19.67,0,0,1,3.22,1.31,13.42,13.42,0,0,1,2,1.27,3.8,3.8,0,0,1,.91.91,2.89,2.89,0,0,1,.34.89c.06.32.13.72.2,1.18a14.67,14.67,0,0,1,.09,1.76,17.68,17.68,0,0,1-.09,1.92,4.43,4.43,0,0,1-.34,1.31,1.7,1.7,0,0,1-.55.76,1.29,1.29,0,0,1-.72.22,3.62,3.62,0,0,1-1.71-.73,27.22,27.22,0,0,0-2.87-1.54,29,29,0,0,0-4.14-1.54,18.51,18.51,0,0,0-5.46-.73,16.76,16.76,0,0,0-4.83.62,9,9,0,0,0-3.43,1.74,7.24,7.24,0,0,0-2,2.69,8,8,0,0,0-.69,3.36,6.92,6.92,0,0,0,1.31,4.28,12.15,12.15,0,0,0,3.38,3,31.17,31.17,0,0,0,4.77,2.36l5.43,2.13c1.85.76,3.67,1.58,5.48,2.5a20.53,20.53,0,0,1,4.78,3.31A14.89,14.89,0,0,1,1053,281,15.38,15.38,0,0,1,1054.22,287.51Z"></path> </g> <g id="Слой_4" data-name="Слой 4"> <rect class="cls-71" x="285.28" y="247.48" width="348.55" height="9.25"></rect> </g> <g id="Слой_3" data-name="Слой 3"> <text class="cls-72" transform="translate(1061.92 86.02)">®</text> </g> </svg> 