<?xml version="1.0" encoding="UTF-8"?> <!-- Generator: Adobe Illustrator 24.1.1, SVG Export Plug-In . SVG Version: 6.00 Build 0) --> <svg xmlns:xodm="http://www.corel.com/coreldraw/odm/2003" xmlns="http://www.w3.org/2000/svg" xmlns:xlink="http://www.w3.org/1999/xlink" id="Layer_1" x="0px" y="0px" viewBox="0 0 126.5 122.2" style="enable-background:new 0 0 126.5 122.2;" xml:space="preserve"> <style type="text/css"> .st0{fill-rule:evenodd;clip-rule:evenodd;fill:#E6E6E6;stroke:#999999;stroke-width:0.8198;stroke-miterlimit:10;} .st1{fill-rule:evenodd;clip-rule:evenodd;fill:url(#SVGID_1_);} .st2{fill-rule:evenodd;clip-rule:evenodd;fill:#073161;} .st3{fill-rule:evenodd;clip-rule:evenodd;fill:#0B4387;} .st4{fill-rule:evenodd;clip-rule:evenodd;fill:#1262C4;} .st5{fill-rule:evenodd;clip-rule:evenodd;fill:url(#SVGID_2_);} .st6{fill-rule:evenodd;clip-rule:evenodd;fill:#0E478C;} .st7{fill-rule:evenodd;clip-rule:evenodd;fill:#7BEAF2;} .st8{fill-rule:evenodd;clip-rule:evenodd;fill:url(#SVGID_3_);} .st9{fill-rule:evenodd;clip-rule:evenodd;fill:#69E0E8;} .st10{fill-rule:evenodd;clip-rule:evenodd;fill:#333333;} .st11{fill-rule:evenodd;clip-rule:evenodd;fill:#426EA1;} .st12{fill-rule:evenodd;clip-rule:evenodd;fill:#1D3B5E;} .st13{fill-rule:evenodd;clip-rule:evenodd;fill:#003333;} .st14{fill-rule:evenodd;clip-rule:evenodd;fill:#8BA8C4;} .st15{fill-rule:evenodd;clip-rule:evenodd;fill:#336699;} .st16{fill-rule:evenodd;clip-rule:evenodd;fill:url(#SVGID_4_);} .st17{fill-rule:evenodd;clip-rule:evenodd;fill:#FEFEFE;} .st18{fill-rule:evenodd;clip-rule:evenodd;fill:#697079;} .st19{fill-rule:evenodd;clip-rule:evenodd;fill:#E8C331;} .st20{fill-rule:evenodd;clip-rule:evenodd;fill:url(#SVGID_5_);} .st21{fill-rule:evenodd;clip-rule:evenodd;fill:#B8902B;} .st22{fill-rule:evenodd;clip-rule:evenodd;fill:#FFFFFF;} .st23{fill-rule:evenodd;clip-rule:evenodd;fill:#284854;} .st24{fill-rule:evenodd;clip-rule:evenodd;fill:url(#SVGID_6_);} .st25{fill-rule:evenodd;clip-rule:evenodd;fill:url(#SVGID_7_);} .st26{fill-rule:evenodd;clip-rule:evenodd;fill:url(#SVGID_8_);} .st27{fill-rule:evenodd;clip-rule:evenodd;fill:url(#SVGID_9_);} .st28{fill-rule:evenodd;clip-rule:evenodd;fill:url(#SVGID_10_);} .st29{clip-path:url(#SVGID_12_);} .st30{fill-rule:evenodd;clip-rule:evenodd;fill:url(#SVGID_13_);} .st31{fill:#E6E6E6;} .st32{fill:#7FEEFA;} .st33{fill-rule:evenodd;clip-rule:evenodd;fill:url(#SVGID_14_);} </style> <g> <path class="st0" d="M63.8,0.9c34.3,0,62,27,62,60.3c0,33.3-27.8,60.3-62,60.3s-62-27-62-60.3C1.8,27.9,29.5,0.9,63.8,0.9z"></path> <path class="st15" d="M63.8,22.6c15.3,0,27.7,12,27.7,26.9c0,9.1-4.6,17.1-11.6,21.9v6.4h-9V55l1.2-5.5l-3.3-2.2l-4.1,2.5l-5.1-1.9 l-3.2,1.6l1.2,5.4v23h-9.7v-6.4c-7-4.9-11.6-12.9-11.6-21.9C36.2,34.6,48.5,22.6,63.8,22.6L63.8,22.6z M58,51.4l2.5-1.5l4,1.7 l3.2-2.2l2.6,1.9l-0.9,4.9v21.1H59V56.2L58,51.4L58,51.4z M78.6,81.2v3.3H49v-3.3H78.6L78.6,81.2z M77.4,89v2.5c0,0.3,0,0.5,0,0.8 H50.2c0-0.3,0-0.5,0-0.8V89H77.4L77.4,89z M75.3,96.8c-2.1,2.9-4.3,3-8.2,3h-6.7c-3.8,0-6.1-0.2-8.2-3H75.3z"></path> </g> </svg> 