<?xml version="1.0" encoding="UTF-8"?> <svg xmlns="http://www.w3.org/2000/svg" xmlns:xlink="http://www.w3.org/1999/xlink" id="Layer_1" data-name="Layer 1" viewBox="0 0 630.68 493.4"> <defs> <style>.cls-1{fill:none;}.cls-2,.cls-34{fill:#e6e6e6;}.cls-2{stroke:#999;stroke-miterlimit:10;stroke-width:0.5px;}.cls-10,.cls-11,.cls-12,.cls-14,.cls-15,.cls-17,.cls-18,.cls-19,.cls-2,.cls-20,.cls-21,.cls-22,.cls-23,.cls-24,.cls-25,.cls-26,.cls-27,.cls-28,.cls-29,.cls-3,.cls-30,.cls-33,.cls-36,.cls-4,.cls-5,.cls-6,.cls-7,.cls-8,.cls-9{fill-rule:evenodd;}.cls-3{fill:url(#linear-gradient);}.cls-4{fill:#073161;}.cls-5{fill:#0b4387;}.cls-6{fill:#1262c4;}.cls-7{fill:url(#linear-gradient-2);}.cls-8{fill:#0e478c;}.cls-9{fill:#7beaf2;}.cls-10{fill:url(#linear-gradient-3);}.cls-11{fill:#69e0e8;}.cls-12,.cls-13{fill:#333;}.cls-14{fill:#1d3b5e;}.cls-15{fill:#033;}.cls-16{fill:#8ba8c4;}.cls-17{fill:#369;}.cls-18{fill:url(#linear-gradient-4);}.cls-19{fill:#fefefe;}.cls-20{fill:#697079;}.cls-21{fill:#e8c331;}.cls-22{fill:url(#linear-gradient-5);}.cls-23{fill:#b8902b;}.cls-24{fill:#fff;}.cls-25{fill:#284854;}.cls-26{fill:url(#linear-gradient-6);}.cls-27{fill:url(#linear-gradient-7);}.cls-28{fill:url(#linear-gradient-8);}.cls-29{fill:url(#linear-gradient-9);}.cls-30{fill:url(#linear-gradient-10);}.cls-31{clip-path:url(#clip-path);}.cls-32{isolation:isolate;}.cls-33{fill:url(#linear-gradient-11);}.cls-35{fill:#7feefa;}.cls-36{fill:url(#linear-gradient-12);}</style> <linearGradient id="linear-gradient" x1="19217.32" y1="-3057.2" x2="19217.32" y2="-4539.47" gradientTransform="matrix(0.03, 0, 0, -0.03, 160.32, 57.7)" gradientUnits="userSpaceOnUse"> <stop offset="0" stop-color="#7aa2ff"></stop> <stop offset="1" stop-color="#065aba"></stop> </linearGradient> <linearGradient id="linear-gradient-2" x1="19348.81" y1="-2846.71" x2="19348.81" y2="-2509.64" gradientTransform="matrix(0.03, 0, 0, -0.03, 160.32, 57.7)" gradientUnits="userSpaceOnUse"> <stop offset="0" stop-color="#5c2a61"></stop> <stop offset="1" stop-color="#7a527e"></stop> </linearGradient> <linearGradient id="linear-gradient-3" x1="19066.05" y1="-2907.57" x2="19066.05" y2="-2457.11" gradientTransform="matrix(0.03, 0, 0, -0.03, 160.32, 57.7)" gradientUnits="userSpaceOnUse"> <stop offset="0" stop-color="#751a7d"></stop> <stop offset="1" stop-color="#c35ecc"></stop> </linearGradient> <linearGradient id="linear-gradient-4" x1="-343.95" y1="-3904.19" x2="-343.95" y2="-2151.81" gradientTransform="matrix(0.03, 0, 0, -0.03, 160.32, 57.7)" gradientUnits="userSpaceOnUse"> <stop offset="0" stop-color="#0e1c30"></stop> <stop offset="1" stop-color="#8a99ac"></stop> </linearGradient> <linearGradient id="linear-gradient-5" x1="-343.95" y1="-3925.67" x2="-343.95" y2="-3140.65" gradientTransform="matrix(0.03, 0, 0, -0.03, 160.32, 57.7)" gradientUnits="userSpaceOnUse"> <stop offset="0" stop-color="#f8d97c"></stop> <stop offset="1" stop-color="#fbefcb"></stop> </linearGradient> <linearGradient id="linear-gradient-6" x1="8428.51" y1="-6042.55" x2="8428.51" y2="-5586.16" gradientTransform="matrix(0.03, 0, 0, -0.03, 160.32, 57.7)" gradientUnits="userSpaceOnUse"> <stop offset="0" stop-color="#0c2936"></stop> <stop offset="1" stop-color="#445a64"></stop> </linearGradient> <linearGradient id="linear-gradient-7" x1="9199.22" y1="-11974.69" x2="9199.22" y2="-6092.63" gradientTransform="matrix(0.03, 0, 0, -0.03, 160.32, 57.7)" gradientUnits="userSpaceOnUse"> <stop offset="0" stop-color="#214e65"></stop> <stop offset="1" stop-color="#018a99"></stop> </linearGradient> <linearGradient id="linear-gradient-8" x1="9199.22" y1="-12049.84" x2="9199.22" y2="-5996.2" gradientTransform="matrix(0.03, 0, 0, -0.03, 160.32, 57.7)" gradientUnits="userSpaceOnUse"> <stop offset="0" stop-color="#142e38"></stop> <stop offset="1" stop-color="#284854"></stop> </linearGradient> <linearGradient id="linear-gradient-9" x1="11810.04" y1="-8309.1" x2="11810.04" y2="-9716.33" gradientTransform="matrix(0.03, 0, 0, -0.03, 160.32, 57.7)" gradientUnits="userSpaceOnUse"> <stop offset="0" stop-color="#fff"></stop> <stop offset="1" stop-color="#c6c5c5"></stop> </linearGradient> <linearGradient id="linear-gradient-10" x1="12186" y1="-8449.63" x2="12186" y2="-9535.43" gradientTransform="matrix(0.03, 0, 0, -0.03, 160.32, 57.7)" gradientUnits="userSpaceOnUse"> <stop offset="0" stop-color="#214e65"></stop> <stop offset="1" stop-color="#028998"></stop> </linearGradient> <clipPath id="clip-path" transform="translate(-112.49 -121.91)"> <rect class="cls-1" x="292.07" y="290.03" width="96.51" height="35.33"></rect> </clipPath> <linearGradient id="linear-gradient-11" x1="6324.51" y1="-8612.66" x2="6324.51" y2="-6661.95" gradientTransform="matrix(0.03, 0, 0, -0.03, 160.32, 57.7)" gradientUnits="userSpaceOnUse"> <stop offset="0" stop-color="#214657"></stop> <stop offset="1" stop-color="#fefefe"></stop> </linearGradient> <linearGradient id="linear-gradient-12" x1="4939.69" y1="-8793.03" x2="5350.05" y2="-8660.02" gradientTransform="matrix(0.03, 0, 0, -0.03, 160.32, 57.7)" gradientUnits="userSpaceOnUse"> <stop offset="0" stop-color="#8e918c"></stop> <stop offset="1" stop-color="#afd188"></stop> </linearGradient> </defs> <path class="cls-2" d="M705.09,122.16c20.89,0,37.83,16.48,37.83,36.81S726,195.78,705.09,195.78,667.26,179.3,667.26,159s16.93-36.81,37.83-36.81Z" transform="translate(-112.49 -121.91)"></path> <path class="cls-3" d="M684.53,183.33l2-38.1,27.54-1.93,3.43,1.29h4.62l3.5,40L713,189.43s-28.53-6.17-28.46-6.1Z" transform="translate(-112.49 -121.91)"></path> <polygon class="cls-4" points="613.16 62.6 613.16 62.64 600.63 67.49 606.08 59.45 613.16 62.6"></polygon> <polygon class="cls-5" points="601.6 21.39 601.61 21.39 605.04 22.68 605.04 22.68 606.1 59.49 600.55 67.52 601.6 21.39"></polygon> <polygon class="cls-6" points="605.04 22.68 609.66 22.68 613.16 62.59 606.1 59.49 605.04 22.68"></polygon> <path class="cls-7" d="M716.3,144.1v-.3c-.19-5.08-.74-11.13-5.33-14a4.92,4.92,0,0,0-3.83-.93,8.23,8.23,0,0,0-1.2.39c-4.36,2.33-4.82,10.86-4.62,15l.64,0c0-2.14.19-8.18,1.5-10.87.95-2,2.27-4.18,5.23-3.9,4.75,1,5.89,6.25,6.66,10.2a27.61,27.61,0,0,1,.26,4.11s0,.08,0,.12l.7.25Z" transform="translate(-112.49 -121.91)"></path> <path class="cls-8" d="M693.82,146.33a1,1,0,1,1-1,1A1,1,0,0,1,693.82,146.33Z" transform="translate(-112.49 -121.91)"></path> <path class="cls-8" d="M707,145.71a1,1,0,1,1-1,1A1,1,0,0,1,707,145.71Z" transform="translate(-112.49 -121.91)"></path> <path class="cls-9" d="M693.8,146.1a1.26,1.26,0,1,1-1.19,1.26A1.22,1.22,0,0,1,693.8,146.1Zm0,.38a.86.86,0,0,1,.83.88.83.83,0,1,1-.83-.88Z" transform="translate(-112.49 -121.91)"></path> <path class="cls-9" d="M707,145.4a1.29,1.29,0,1,1-1.26,1.29A1.27,1.27,0,0,1,707,145.4Zm0,.4a.89.89,0,1,1-.88.89A.88.88,0,0,1,707,145.8Z" transform="translate(-112.49 -121.91)"></path> <path class="cls-10" d="M694.49,146.89s-1,.57-1-.68a28.86,28.86,0,0,1,2.56-11.76c1.44-2.88,3.57-5.18,6.75-5.85a3.59,3.59,0,0,1,2.94.53c1,.61,2,2.16,2.26,5.1a66.62,66.62,0,0,1-.69,11.05.54.54,0,0,0,.2.76l.26.41s-1.41.22-1.11-1c0,0,1.15-8.06.6-11.82a13.24,13.24,0,0,0-.49-2.09,3.39,3.39,0,0,0-3.67-2.42,8.6,8.6,0,0,0-2.46.91c-4.75,3.13-6.39,10.24-6.61,15.49h0a4.06,4.06,0,0,0,0,.68h0v0c0,.44.22.39.47.66Z" transform="translate(-112.49 -121.91)"></path> <path class="cls-11" d="M696.71,160.64a4,4,0,0,1,4.94,2.45,3.8,3.8,0,0,1-2.52,4.81,4,4,0,0,1-4.94-2.45A3.79,3.79,0,0,1,696.71,160.64ZM702,162.5a3.94,3.94,0,0,1,3.79,2.64,3.8,3.8,0,0,1-2.52,4.81,4,4,0,0,1-4.42-1.43l.36-.1.16-.06a3.47,3.47,0,0,0,3.74,1.12,3.3,3.3,0,0,0,2.19-4.19,3.4,3.4,0,0,0-3.12-2.29l0-.15c0-.12-.08-.23-.13-.35Zm.34,1.34a2.53,2.53,0,0,1,2.16,1.71,2.47,2.47,0,0,1-1.65,3.14,2.6,2.6,0,0,1-2.69-.69,4.39,4.39,0,0,0,2.18-4.16Zm-5.21-2a2.59,2.59,0,0,1,3.23,1.61,2.47,2.47,0,0,1-1.65,3.14,2.58,2.58,0,0,1-3.23-1.6A2.49,2.49,0,0,1,697.13,161.89Zm-.26-.78a3.43,3.43,0,0,1,4.3,2.13,3.31,3.31,0,0,1-2.2,4.19,3.44,3.44,0,0,1-4.3-2.14A3.3,3.3,0,0,1,696.87,161.11Z" transform="translate(-112.49 -121.91)"></path> <path class="cls-2" d="M705.09,253.17c20.89,0,37.83,16.48,37.83,36.81S726,326.79,705.09,326.79,667.26,310.31,667.26,290,684.19,253.17,705.09,253.17Z" transform="translate(-112.49 -121.91)"></path> <path class="cls-12" d="M698.42,313.64h0c.85,0,1.54,1,1.54,2.3h0c0,1.27-.69,2.3-1.54,2.3h0c-.86,0-1.55-1-1.55-2.3h0C696.87,314.67,697.56,313.64,698.42,313.64Z" transform="translate(-112.49 -121.91)"></path> <path class="cls-12" d="M712.16,313.64h0c.85,0,1.54,1,1.54,2.3h0c0,1.27-.69,2.3-1.54,2.3h0c-.85,0-1.54-1-1.54-2.3h0C710.62,314.67,711.31,313.64,712.16,313.64Z" transform="translate(-112.49 -121.91)"></path> <path class="cls-12" d="M700.37,262.24h9.84c.92,0,1.67.31,1.67,2.31v12.12h-.64V264.62c0-1.8-.63-1.67-1.46-1.67h-8.87c-.84,0-1.57-.13-1.57,1.67v12.05h-.65V264.55c0-2,.76-2.31,1.68-2.31Z" transform="translate(-112.49 -121.91)"></path> <rect class="cls-13" x="578.52" y="153.86" width="28.55" height="39.88" rx="3.63"></rect> <path class="cls-12" d="M691,306.06l28.55-16.48V312a3.64,3.64,0,0,1-3.63,3.63H694.64A3.64,3.64,0,0,1,691,312Z" transform="translate(-112.49 -121.91)"></path> <path class="cls-14" d="M698,313.64h0c.85,0,1.54,1,1.54,2.3h0c0,1.27-.69,2.3-1.54,2.3h0c-.85,0-1.54-1-1.54-2.3h0C696.48,314.67,697.17,313.64,698,313.64Z" transform="translate(-112.49 -121.91)"></path> <path class="cls-14" d="M711.76,313.64h0c.86,0,1.55,1,1.55,2.3h0c0,1.27-.69,2.3-1.55,2.3h0c-.85,0-1.54-1-1.54-2.3h0C710.22,314.67,710.91,313.64,711.76,313.64Z" transform="translate(-112.49 -121.91)"></path> <path class="cls-15" d="M700,262.24h9.84c.92,0,1.68.31,1.68,2.31v12.12h-.65V264.62c0-1.8-.62-1.67-1.46-1.67h-8.87c-.83,0-1.57-.13-1.57,1.67v12.05h-.64V264.55c0-2,.75-2.31,1.67-2.31Z" transform="translate(-112.49 -121.91)"></path> <rect class="cls-16" x="578.13" y="153.86" width="28.55" height="39.88" rx="3.63"></rect> <path class="cls-17" d="M690.62,306.06l28.55-16.48V312a3.64,3.64,0,0,1-3.64,3.63H694.25a3.64,3.64,0,0,1-3.63-3.63Z" transform="translate(-112.49 -121.91)"></path> <path class="cls-2" d="M705.09,378.94c20.89,0,37.83,16.48,37.83,36.81S726,452.56,705.09,452.56s-37.83-16.48-37.83-36.81S684.19,378.94,705.09,378.94Z" transform="translate(-112.49 -121.91)"></path> <polygon class="cls-17" points="581.42 285.47 603.78 285.47 603.78 282.26 581.42 282.26 581.42 285.47"></polygon> <polygon class="cls-17" points="581.23 301.57 590.26 301.57 590.26 298.36 581.23 298.36 581.23 301.57"></polygon> <polygon class="cls-17" points="581.23 292.96 590.26 292.96 590.26 289.75 581.23 289.75 581.23 292.96"></polygon> <polygon class="cls-17" points="594.94 301.57 603.97 301.57 603.97 298.36 594.94 298.36 594.94 301.57"></polygon> <polygon class="cls-17" points="594.94 292.96 603.97 292.96 603.97 289.75 594.94 289.75 594.94 292.96"></polygon> <path class="cls-17" d="M697.86,393.12h14.46a2,2,0,0,1,2,2v2.33h3.51a4,4,0,0,1,4.07,3.95v33.32h3.79v3.69H684.46v-3.69h3.16V401.37a4,4,0,0,1,4.06-3.95h4.15v-2.33A2,2,0,0,1,697.86,393.12Zm3.44,35.33h7.58v6.24H719V403.15a3.32,3.32,0,0,0-3.36-3.27H693.93a3.32,3.32,0,0,0-3.36,3.27v31.54H701.3Z" transform="translate(-112.49 -121.91)"></path> <path class="cls-2" d="M150.57,122.16c20.9,0,37.84,16.48,37.84,36.81s-16.94,36.81-37.84,36.81S112.74,179.3,112.74,159s16.94-36.81,37.83-36.81Z" transform="translate(-112.49 -121.91)"></path> <path class="cls-18" d="M161.58,132.75h-22a3.61,3.61,0,0,0-3.65,3.55v45.34a3.61,3.61,0,0,0,3.65,3.55h22a3.61,3.61,0,0,0,3.65-3.55V136.3A3.62,3.62,0,0,0,161.58,132.75Z" transform="translate(-112.49 -121.91)"></path> <polygon class="cls-19" points="26.37 57.29 49.79 57.29 49.79 14.27 26.37 14.27 26.37 57.29"></polygon> <path class="cls-20" d="M150.57,179.78A2.22,2.22,0,1,1,148.3,182,2.25,2.25,0,0,1,150.57,179.78Z" transform="translate(-112.49 -121.91)"></path> <path class="cls-21" d="M150.57,147.76a9.94,9.94,0,1,1-10.21,9.93A10.07,10.07,0,0,1,150.57,147.76Z" transform="translate(-112.49 -121.91)"></path> <path class="cls-22" d="M150.57,148.26a9.43,9.43,0,1,1-9.69,9.43,9.56,9.56,0,0,1,9.69-9.43Z" transform="translate(-112.49 -121.91)"></path> <path class="cls-23" d="M150.47,148.69h.21v.48h-.21Zm2.27.74.13-.46.2.05-.13.47Zm2.12.83.25-.42.18.11-.25.42-.18-.11Zm1.83,1.33.35-.34.15.15-.35.34-.15-.15Zm1.41,1.75.44-.24.1.18-.43.24a1.74,1.74,0,0,0-.11-.18Zm.91,2,.48-.13,0,.2-.48.13a1.94,1.94,0,0,1-.05-.2Zm.32,2.2h.5v.21h-.5v-.21Zm-.27,2.21.48.12,0,.2L159,160a1.17,1.17,0,0,1,.05-.2Zm-.85,2.06.43.24-.1.18-.44-.24a1.74,1.74,0,0,0,.11-.18Zm-1.37,1.78.35.35-.15.14-.35-.34.15-.15ZM155,165l.25.42-.18.1-.25-.42.18-.1Zm-2.1.88.13.46-.2.06-.13-.47Zm-2.26.31v.49h-.21v-.49h.21Zm-2.27-.26-.13.47-.21-.06.13-.46Zm-2.12-.83-.25.42-.19-.1.25-.42.19.1Zm-1.83-1.33-.36.34L144,164l.36-.35.15.15ZM143,162l-.43.24-.11-.18.44-.24.1.18Zm-.9-2-.48.12-.06-.2.49-.12a1.94,1.94,0,0,0,0,.2Zm-.32-2.2h-.5v-.21h.5v.21Zm.27-2.21-.49-.13.06-.2.48.13A1.17,1.17,0,0,0,142.09,155.59Zm.85-2.07-.44-.24.11-.18.43.24-.1.18Zm1.37-1.78-.36-.34.15-.15.36.34-.15.15Zm1.79-1.37-.25-.42.19-.11.25.42-.19.11Zm2.1-.88-.13-.47.21-.05.13.46Z" transform="translate(-112.49 -121.91)"></path> <path class="cls-23" d="M149.34,148.77l.21,0,.06.48-.11,0h-.1l-.06-.48Zm2.34.47.07-.48.21,0-.07.48Zm2.21.57.2-.45.19.08-.19.45Zm2,1.1.3-.38.17.13-.3.38A1.09,1.09,0,0,1,155.88,150.91Zm1.62,1.57.4-.29.13.16-.4.29-.13-.16Zm1.15,1.92.46-.18.08.19-.46.18a1.54,1.54,0,0,0-.08-.19Zm.6,2.15.5-.06,0,.2-.49.06s0-.06,0-.1A.34.34,0,0,0,159.25,156.55Zm0,2.22.49.07,0,.2-.49-.06,0-.21Zm-.58,2.15.46.19-.09.19-.46-.19Zm-1.14,1.93.39.3-.13.17-.39-.3.13-.17Zm-1.61,1.58.3.39-.17.12-.3-.38.17-.13Zm-2,1.12.18.45-.2.08-.18-.45Zm-2.21.58.06.49-.21,0-.06-.48h.1Zm-2.29,0-.07.47-.21,0,.07-.48Zm-2.21-.57-.19.44-.2-.08.2-.44Zm-2-1.11-.31.38-.17-.12.31-.39.17.13Zm-1.62-1.56-.4.29-.13-.17.4-.29.13.17ZM142.49,161l-.46.18L142,161l.46-.18C142.44,160.86,142.47,160.92,142.49,161Zm-.59-2.14-.5.06,0-.21.5-.06s0,.07,0,.1S141.89,158.8,141.9,158.84Zm0-2.23-.49-.06,0-.21.49.07Zm.59-2.15-.46-.19.08-.19.46.19c0,.06-.05.13-.08.19Zm1.14-1.93-.4-.3.13-.16.4.3a1.83,1.83,0,0,0-.13.16Zm1.6-1.58-.3-.38.18-.13.29.39Zm2-1.12-.19-.45.2-.08.19.45Z" transform="translate(-112.49 -121.91)"></path> <polygon class="cls-24" points="41.64 28.96 38.63 34.09 41.94 34.8 34.85 42.6 38.01 35.83 34.23 35.34 41.64 28.96"></polygon> <path class="cls-2" d="M150.57,253.17c20.9,0,37.84,16.48,37.84,36.81s-16.94,36.81-37.84,36.81S112.74,310.31,112.74,290,129.68,253.17,150.57,253.17Z" transform="translate(-112.49 -121.91)"></path> <path class="cls-17" d="M150.57,266.43a16.64,16.64,0,0,1,16.87,16.41,16.25,16.25,0,0,1-7.1,13.38v3.89h-5.47V286.17l.72-3.36-2-1.32-2.51,1.5L148,281.82l-2,1,.72,3.29v14h-5.92v-3.89a16.25,16.25,0,0,1-7.1-13.38,16.64,16.64,0,0,1,16.86-16.41ZM147.05,284l1.53-.89,2.43,1.05,2-1.34,1.57,1.18-.57,3v12.86h-6.36V286.92l-.57-2.95Zm12.57,18.19v2H141.53v-2Zm-.73,4.77v1.55c0,.16,0,.31,0,.46H142.27c0-.15,0-.3,0-.46v-1.55Zm-1.28,4.77c-1.27,1.73-2.64,1.83-5,1.83h-4.11c-2.35,0-3.71-.1-5-1.83Z" transform="translate(-112.49 -121.91)"></path> <path class="cls-2" d="M150.57,378.94c20.9,0,37.84,16.48,37.84,36.81s-16.94,36.81-37.84,36.81-37.83-16.48-37.83-36.81S129.68,378.94,150.57,378.94Z" transform="translate(-112.49 -121.91)"></path> <path class="cls-17" d="M129.4,424.54H133a1,1,0,0,1,1,.95v.69a1,1,0,0,1-1,.95h-3.6a1,1,0,0,1-1-.95v-.69A1,1,0,0,1,129.4,424.54ZM124,402.68h53.09v1.68H176a1,1,0,0,0-1,1V406a1,1,0,0,0,1,.95h1.09v17.58H176a1,1,0,0,0-1,.95v.69a1,1,0,0,0,1,.95h1.09v1.69H124v-1.69h1.77a1,1,0,0,0,1-.95v-.69a1,1,0,0,0-1-.95H124V407h1.77a1,1,0,0,0,1-.95v-.69a1,1,0,0,0-1-1H124v-1.68Zm45,1.68h3.59a1,1,0,0,1,1,1V406a1,1,0,0,1-1,.95H169a1,1,0,0,1-1-.95v-.69A1,1,0,0,1,169,404.36Zm-7.92,0h3.6a1,1,0,0,1,1,1V406a1,1,0,0,1-1,.95h-3.6a1,1,0,0,1-1-.95v-.69A1,1,0,0,1,161.08,404.36Zm-7.92,0h3.6a1,1,0,0,1,1,1V406a1,1,0,0,1-1,.95h-3.6a1,1,0,0,1-1-.95v-.69A1,1,0,0,1,153.16,404.36Zm-7.92,0h3.6a1,1,0,0,1,1,1V406a1,1,0,0,1-1,.95h-3.6a1,1,0,0,1-1-.95v-.69A1,1,0,0,1,145.24,404.36Zm-7.92,0h3.6a1,1,0,0,1,1,1V406a1,1,0,0,1-1,.95h-3.6a1,1,0,0,1-1-.95v-.69A1,1,0,0,1,137.32,404.36Zm-7.92,0H133a1,1,0,0,1,1,1V406a1,1,0,0,1-1,.95h-3.6a1,1,0,0,1-1-.95v-.69A1,1,0,0,1,129.4,404.36ZM169,424.54h3.59a1,1,0,0,1,1,.95v.69a1,1,0,0,1-1,.95H169a1,1,0,0,1-1-.95v-.69A1,1,0,0,1,169,424.54Zm-7.92,0h3.6a1,1,0,0,1,1,.95v.69a1,1,0,0,1-1,.95h-3.6a1,1,0,0,1-1-.95v-.69A1,1,0,0,1,161.08,424.54Zm-7.92,0h3.6a1,1,0,0,1,1,.95v.69a1,1,0,0,1-1,.95h-3.6a1,1,0,0,1-1-.95v-.69A1,1,0,0,1,153.16,424.54Zm-7.92,0h3.6a1,1,0,0,1,1,.95v.69a1,1,0,0,1-1,.95h-3.6a1,1,0,0,1-1-.95v-.69A1,1,0,0,1,145.24,424.54Zm-7.92,0h3.6a1,1,0,0,1,1,.95v.69a1,1,0,0,1-1,.95h-3.6a1,1,0,0,1-1-.95v-.69A1,1,0,0,1,137.32,424.54Z" transform="translate(-112.49 -121.91)"></path> <g id="_2161458186352" data-name=" 2161458186352"> <path class="cls-25" d="M292.39,228.55h213.7v-1.31c0-15.4-12.63-30.16-28.07-30.16H321.54c-16,0-29.15,15.25-29.15,31.24v.23Z" transform="translate(-112.49 -121.91)"></path> <path class="cls-26" d="M292.39,228.55h213.7v-1.31a29,29,0,0,0-.67-6.16H293.28a30.34,30.34,0,0,0-.89,7.24v.23Z" transform="translate(-112.49 -121.91)"></path> <path class="cls-27" d="M292.39,226H521.78a28.08,28.08,0,0,1,28,28V370.59a28.09,28.09,0,0,1-28,28H320.4a28.1,28.1,0,0,1-28-28V226Z" transform="translate(-112.49 -121.91)"></path> <path class="cls-28" d="M292.39,226H521.72a28.11,28.11,0,0,1,28.06,28V370.59a28.12,28.12,0,0,1-28.06,28H320.46a28.13,28.13,0,0,1-28.07-28V226Zm3.65,3.68H519.37a27,27,0,0,1,27,26.81V368.11a27,27,0,0,1-27,26.81H323.45c-14.76,0-27.41-12.07-27.41-26.81V229.71Z" transform="translate(-112.49 -121.91)"></path> <path class="cls-25" d="M549.64,285.21l-80.25.11a30.15,30.15,0,0,0-30.07,30h0a30.11,30.11,0,0,0,30.07,30l80.25-.12v-60Z" transform="translate(-112.49 -121.91)"></path> <path class="cls-29" d="M549.79,282.09H470.47a30.12,30.12,0,0,0-30.07,30h0a30.13,30.13,0,0,0,30.07,30h79.32v-60Z" transform="translate(-112.49 -121.91)"></path> <path class="cls-30" d="M530.51,326.74c10.54,0,17.28-3.64,17.51-12.84h1.74v-5.1H491.52c-1.64-7.15-6.42-12.48-14.69-12.48a15.07,15.07,0,1,0,0,30.13c8.28,0,13.1-5.37,14.7-12.55h54c.26,8.91-7.52,10.62-16.5,10.57l-26.5-.14a5.11,5.11,0,0,0-5.14-4.09,5.27,5.27,0,1,0,0,10.53,5.12,5.12,0,0,0,5.15-4.11l28,.08Zm-21.32-33.32a6.35,6.35,0,0,1,6.06,5.2h34.52v2H515.26a6.18,6.18,0,1,1-6.07-7.17Zm0,2.77a3.43,3.43,0,1,1-3.44,3.43A3.43,3.43,0,0,1,509.19,296.19Zm-32.36,6.32a8.88,8.88,0,1,1-8.9,8.88A8.88,8.88,0,0,1,476.83,302.51Zm20.52,20.09a2.91,2.91,0,1,1-2.92,2.91A2.91,2.91,0,0,1,497.35,322.6Z" transform="translate(-112.49 -121.91)"></path> <g class="cls-31"> <image class="cls-32" width="162" height="60" transform="translate(471.63 458.22) scale(0.6 0.59)" xlink:href="BintexPayWallet_ImgID1.png"></image> </g> <path class="cls-33" d="M296,292.33h83.81a3.36,3.36,0,0,1,3.35,3.35V315a3.35,3.35,0,0,1-3.35,3.34H296Z" transform="translate(-112.49 -121.91)"></path> <path class="cls-34" d="M319.06,311.54v-9.33h3.51a4.37,4.37,0,0,1,1.72.29,2.25,2.25,0,0,1,1,.87,2.32,2.32,0,0,1,.37,1.23,2.12,2.12,0,0,1-.33,1.13,2.29,2.29,0,0,1-1,.85,2.43,2.43,0,0,1,1.31.85,2.24,2.24,0,0,1,.45,1.41,2.67,2.67,0,0,1-.28,1.22,2.43,2.43,0,0,1-.68.87,3.1,3.1,0,0,1-1,.46,6.61,6.61,0,0,1-1.52.15Zm1.24-5.4h2a4.6,4.6,0,0,0,1.18-.11,1.31,1.31,0,0,0,.71-.47,1.35,1.35,0,0,0,.24-.82,1.45,1.45,0,0,0-.22-.81,1.13,1.13,0,0,0-.64-.49,5.22,5.22,0,0,0-1.42-.13H320.3v2.83Zm0,4.31h2.33a5.11,5.11,0,0,0,.84-.05,2.11,2.11,0,0,0,.72-.25,1.4,1.4,0,0,0,.47-.52,1.67,1.67,0,0,0,.18-.79,1.55,1.55,0,0,0-.27-.91,1.36,1.36,0,0,0-.74-.54,4.41,4.41,0,0,0-1.37-.16H320.3v3.22Zm7.38-6.93v-1.31h1.15v1.31Zm0,8v-6.76h1.15v6.76Zm2.9,0v-6.76h1v1a2.42,2.42,0,0,1,2.15-1.1,2.78,2.78,0,0,1,1.13.22,1.79,1.79,0,0,1,.77.57,2.09,2.09,0,0,1,.35.85,6.56,6.56,0,0,1,.07,1.11v4.15h-1.15v-4.11a3,3,0,0,0-.14-1,1.11,1.11,0,0,0-.47-.56,1.58,1.58,0,0,0-.8-.2,1.83,1.83,0,0,0-1.26.46,2.27,2.27,0,0,0-.53,1.76v3.69Zm9.76-1,.15,1a4.13,4.13,0,0,1-.86.11,2,2,0,0,1-1-.2,1.09,1.09,0,0,1-.48-.52,4,4,0,0,1-.14-1.36v-3.89h-.85v-.89H338v-1.67l1.15-.69v2.36h1.15v.89h-1.15v4a2,2,0,0,0,.06.63.45.45,0,0,0,.19.22.73.73,0,0,0,.39.09,3.92,3.92,0,0,0,.51-.05Zm5.75-1.17,1.19.16a2.83,2.83,0,0,1-1,1.61,3.52,3.52,0,0,1-4.28-.34,3.56,3.56,0,0,1-.87-2.56,3.69,3.69,0,0,1,.88-2.64,3,3,0,0,1,2.28-.94,2.86,2.86,0,0,1,2.21.92,3.66,3.66,0,0,1,.86,2.59c0,.07,0,.17,0,.31h-5a2.55,2.55,0,0,0,.63,1.7,1.88,1.88,0,0,0,1.41.59,1.78,1.78,0,0,0,1.08-.33,2.22,2.22,0,0,0,.7-1.07Zm-3.76-1.83h3.78a2.25,2.25,0,0,0-.44-1.28,1.75,1.75,0,0,0-1.42-.66,1.8,1.8,0,0,0-1.32.52,2.13,2.13,0,0,0-.6,1.42Zm5.62,4,2.47-3.5-2.29-3.26h1.41l1.08,1.6c.19.3.35.54.46.73l.52-.74,1.13-1.59h1.4l-2.3,3.26,2.45,3.5h-1.39l-1.41-2.08-.32-.5-1.81,2.58Z" transform="translate(-112.49 -121.91)"></path> <path class="cls-35" d="M355.58,311.54v-9.33h3a11.2,11.2,0,0,1,2.24.14,2.45,2.45,0,0,1,1.35.92,2.89,2.89,0,0,1,.54,1.81,3.14,3.14,0,0,1-.31,1.45,2.56,2.56,0,0,1-.79.92,2.75,2.75,0,0,1-1,.44,10.59,10.59,0,0,1-2,.14h-1.22v3.51Zm1.9-7.75v2.66h1a4.7,4.7,0,0,0,1.48-.15,1.24,1.24,0,0,0,.59-.46,1.28,1.28,0,0,0,.21-.73,1.2,1.2,0,0,0-.3-.84,1.34,1.34,0,0,0-.75-.42,9.71,9.71,0,0,0-1.36-.06Zm14.73,7.75h-2l-.81-2.12h-3.75l-.78,2.12h-2l3.63-9.33h2l3.75,9.33Zm-3.46-3.7-1.3-3.45-1.27,3.45Zm6.18,3.7v-3.92l-3.43-5.41h2.22l2.21,3.7,2.15-3.7h2.17l-3.43,5.42v3.91Z" transform="translate(-112.49 -121.91)"></path> <path class="cls-36" d="M303.22,297.8a5.52,5.52,0,1,1-3.55,6.95,5.51,5.51,0,0,1,3.55-6.95Zm7.46,2.69a5.52,5.52,0,1,1-4.44,8.69,4.84,4.84,0,0,0,.51-.14L307,309a4.81,4.81,0,1,0,4-7.76,1.87,1.87,0,0,0-.07-.22C310.81,300.82,310.74,300.65,310.68,300.49Zm.47,1.93a3.61,3.61,0,1,1-3.07,6A6.4,6.4,0,0,0,311.15,302.42Zm-7.34-2.81a3.61,3.61,0,1,1-2.33,4.55,3.62,3.62,0,0,1,2.33-4.55Zm-.37-1.14a4.81,4.81,0,1,1-3.09,6.06A4.81,4.81,0,0,1,303.44,298.47Z" transform="translate(-112.49 -121.91)"></path> </g> </svg> 