<?xml version="1.0" encoding="UTF-8"?> <!-- Generator: Adobe Illustrator 24.1.1, SVG Export Plug-In . SVG Version: 6.00 Build 0) --> <svg xmlns:xodm="http://www.corel.com/coreldraw/odm/2003" xmlns="http://www.w3.org/2000/svg" xmlns:xlink="http://www.w3.org/1999/xlink" id="Layer_1" x="0px" y="0px" viewBox="0 0 126.5 122.2" style="enable-background:new 0 0 126.5 122.2;" xml:space="preserve"> <style type="text/css"> .st0{fill-rule:evenodd;clip-rule:evenodd;fill:#E6E6E6;stroke:#999999;stroke-width:0.8198;stroke-miterlimit:10;} .st1{fill-rule:evenodd;clip-rule:evenodd;fill:url(#SVGID_1_);} .st2{fill-rule:evenodd;clip-rule:evenodd;fill:#073161;} .st3{fill-rule:evenodd;clip-rule:evenodd;fill:#0B4387;} .st4{fill-rule:evenodd;clip-rule:evenodd;fill:#1262C4;} .st5{fill-rule:evenodd;clip-rule:evenodd;fill:url(#SVGID_2_);} .st6{fill-rule:evenodd;clip-rule:evenodd;fill:#0E478C;} .st7{fill-rule:evenodd;clip-rule:evenodd;fill:#7BEAF2;} .st8{fill-rule:evenodd;clip-rule:evenodd;fill:url(#SVGID_3_);} .st9{fill-rule:evenodd;clip-rule:evenodd;fill:#69E0E8;} .st10{fill-rule:evenodd;clip-rule:evenodd;fill:#333333;} .st11{fill-rule:evenodd;clip-rule:evenodd;fill:#426EA1;} .st12{fill-rule:evenodd;clip-rule:evenodd;fill:#1D3B5E;} .st13{fill-rule:evenodd;clip-rule:evenodd;fill:#003333;} .st14{fill-rule:evenodd;clip-rule:evenodd;fill:#8BA8C4;} .st15{fill-rule:evenodd;clip-rule:evenodd;fill:#336699;} .st16{fill-rule:evenodd;clip-rule:evenodd;fill:url(#SVGID_4_);} .st17{fill-rule:evenodd;clip-rule:evenodd;fill:#FEFEFE;} .st18{fill-rule:evenodd;clip-rule:evenodd;fill:#697079;} .st19{fill-rule:evenodd;clip-rule:evenodd;fill:#E8C331;} .st20{fill-rule:evenodd;clip-rule:evenodd;fill:url(#SVGID_5_);} .st21{fill-rule:evenodd;clip-rule:evenodd;fill:#B8902B;} .st22{fill-rule:evenodd;clip-rule:evenodd;fill:#FFFFFF;} .st23{fill-rule:evenodd;clip-rule:evenodd;fill:#284854;} .st24{fill-rule:evenodd;clip-rule:evenodd;fill:url(#SVGID_6_);} .st25{fill-rule:evenodd;clip-rule:evenodd;fill:url(#SVGID_7_);} .st26{fill-rule:evenodd;clip-rule:evenodd;fill:url(#SVGID_8_);} .st27{fill-rule:evenodd;clip-rule:evenodd;fill:url(#SVGID_9_);} .st28{fill-rule:evenodd;clip-rule:evenodd;fill:url(#SVGID_10_);} .st29{clip-path:url(#SVGID_12_);} .st30{fill-rule:evenodd;clip-rule:evenodd;fill:url(#SVGID_13_);} .st31{fill:#E6E6E6;} .st32{fill:#7FEEFA;} .st33{fill-rule:evenodd;clip-rule:evenodd;fill:url(#SVGID_14_);} </style> <g> <path class="st0" d="M63.2,0.8c34.3,0,62,27,62,60.3c0,33.3-27.8,60.3-62,60.3c-34.3,0-62-27-62-60.3C1.2,27.8,29,0.8,63.2,0.8z"></path> <path class="st10" d="M52.3,99.9L52.3,99.9c1.4,0,2.5,1.7,2.5,3.8l0,0c0,2.1-1.1,3.8-2.5,3.8l0,0c-1.4,0-2.5-1.7-2.5-3.8l0,0 C49.8,101.6,50.9,99.9,52.3,99.9z"></path> <path class="st10" d="M74.8,99.9L74.8,99.9c1.4,0,2.5,1.7,2.5,3.8l0,0c0,2.1-1.1,3.8-2.5,3.8l0,0c-1.4,0-2.5-1.7-2.5-3.8l0,0 C72.3,101.6,73.4,99.9,74.8,99.9z"></path> <path class="st10" d="M55.5,15.7h16.1c1.5,0,2.8,0.5,2.8,3.8v19.9h-1.1V19.6c0-3-1-2.7-2.4-2.7H56.4c-1.4,0-2.6-0.2-2.6,2.7v19.7 h-1.1V19.4C52.7,16.2,54,15.7,55.5,15.7L55.5,15.7z"></path> <path class="st10" d="M46.1,37.9H81c3.3,0,6,2.7,6,6v53.5c0,3.3-2.7,6-6,6H46.1c-3.3,0-6-2.7-6-6V43.8 C40.2,40.5,42.8,37.9,46.1,37.9z"></path> <path class="st10" d="M40.2,87.5l46.8-27v36.8c0,3.3-2.7,6-6,6H46.1c-3.3,0-6-2.7-6-6V87.5z"></path> <path class="st12" d="M51.6,99.9L51.6,99.9c1.4,0,2.5,1.7,2.5,3.8l0,0c0,2.1-1.1,3.8-2.5,3.8l0,0c-1.4,0-2.5-1.7-2.5-3.8l0,0 C49.1,101.6,50.2,99.9,51.6,99.9z"></path> <path class="st12" d="M74.2,99.9L74.2,99.9c1.4,0,2.5,1.7,2.5,3.8l0,0c0,2.1-1.1,3.8-2.5,3.8l0,0c-1.4,0-2.5-1.7-2.5-3.8l0,0 C71.6,101.6,72.8,99.9,74.2,99.9z"></path> <path class="st13" d="M54.8,15.7H71c1.5,0,2.8,0.5,2.8,3.8v19.9h-1.1V19.6c0-3-1-2.7-2.4-2.7H55.7c-1.4,0-2.6-0.2-2.6,2.7v19.7 h-1.1V19.4C52.1,16.2,53.3,15.7,54.8,15.7L54.8,15.7z"></path> <path class="st14" d="M45.5,37.9h34.9c3.3,0,6,2.7,6,6v53.5c0,3.3-2.7,6-6,6H45.5c-3.3,0-6-2.7-6-6V43.8 C39.5,40.5,42.2,37.9,45.5,37.9z"></path> <path class="st15" d="M39.5,87.5l46.8-27v36.8c0,3.3-2.7,6-6,6H45.5c-3.3,0-6-2.7-6-6V87.5z"></path> </g> </svg> 