<?xml version="1.0" encoding="UTF-8"?> <!-- Generator: Adobe Illustrator 24.1.1, SVG Export Plug-In . SVG Version: 6.00 Build 0) --> <svg xmlns:xodm="http://www.corel.com/coreldraw/odm/2003" xmlns="http://www.w3.org/2000/svg" xmlns:xlink="http://www.w3.org/1999/xlink" id="Layer_1" x="0px" y="0px" viewBox="0 0 126.5 122.2" style="enable-background:new 0 0 126.5 122.2;" xml:space="preserve"> <style type="text/css"> .st0{fill-rule:evenodd;clip-rule:evenodd;fill:#E6E6E6;stroke:#999999;stroke-width:0.8198;stroke-miterlimit:10;} .st1{fill-rule:evenodd;clip-rule:evenodd;fill:url(#SVGID_1_);} .st2{fill-rule:evenodd;clip-rule:evenodd;fill:#073161;} .st3{fill-rule:evenodd;clip-rule:evenodd;fill:#0B4387;} .st4{fill-rule:evenodd;clip-rule:evenodd;fill:#1262C4;} .st5{fill-rule:evenodd;clip-rule:evenodd;fill:url(#SVGID_2_);} .st6{fill-rule:evenodd;clip-rule:evenodd;fill:#0E478C;} .st7{fill-rule:evenodd;clip-rule:evenodd;fill:#7BEAF2;} .st8{fill-rule:evenodd;clip-rule:evenodd;fill:url(#SVGID_3_);} .st9{fill-rule:evenodd;clip-rule:evenodd;fill:#69E0E8;} .st10{fill-rule:evenodd;clip-rule:evenodd;fill:#333333;} .st11{fill-rule:evenodd;clip-rule:evenodd;fill:#426EA1;} .st12{fill-rule:evenodd;clip-rule:evenodd;fill:#1D3B5E;} .st13{fill-rule:evenodd;clip-rule:evenodd;fill:#003333;} .st14{fill-rule:evenodd;clip-rule:evenodd;fill:#8BA8C4;} .st15{fill-rule:evenodd;clip-rule:evenodd;fill:#336699;} .st16{fill-rule:evenodd;clip-rule:evenodd;fill:url(#SVGID_4_);} .st17{fill-rule:evenodd;clip-rule:evenodd;fill:#FEFEFE;} .st18{fill-rule:evenodd;clip-rule:evenodd;fill:#697079;} .st19{fill-rule:evenodd;clip-rule:evenodd;fill:#E8C331;} .st20{fill-rule:evenodd;clip-rule:evenodd;fill:url(#SVGID_5_);} .st21{fill-rule:evenodd;clip-rule:evenodd;fill:#B8902B;} .st22{fill-rule:evenodd;clip-rule:evenodd;fill:#FFFFFF;} .st23{fill-rule:evenodd;clip-rule:evenodd;fill:#284854;} .st24{fill-rule:evenodd;clip-rule:evenodd;fill:url(#SVGID_6_);} .st25{fill-rule:evenodd;clip-rule:evenodd;fill:url(#SVGID_7_);} .st26{fill-rule:evenodd;clip-rule:evenodd;fill:url(#SVGID_8_);} .st27{fill-rule:evenodd;clip-rule:evenodd;fill:url(#SVGID_9_);} .st28{fill-rule:evenodd;clip-rule:evenodd;fill:url(#SVGID_10_);} .st29{clip-path:url(#SVGID_12_);} .st30{fill-rule:evenodd;clip-rule:evenodd;fill:url(#SVGID_13_);} .st31{fill:#E6E6E6;} .st32{fill:#7FEEFA;} .st33{fill-rule:evenodd;clip-rule:evenodd;fill:url(#SVGID_14_);} </style> <g> <path class="st0" d="M63.2,1c34.3,0,62,27,62,60.4c0,33.3-27.8,60.3-62,60.3s-62-27-62-60.3C1.2,28,29,1,63.2,1z"></path> <path class="st15" d="M28.5,75.7h5.9c0.9,0,1.6,0.7,1.6,1.6v1.1c0,0.9-0.7,1.6-1.6,1.6h-5.9c-0.9,0-1.6-0.7-1.6-1.6v-1.1 C26.9,76.4,27.6,75.7,28.5,75.7z M19.7,39.9h87v2.8H105c-0.9,0-1.6,0.7-1.6,1.6v1.1c0,0.9,0.7,1.6,1.6,1.6h1.8v28.8H105 c-0.9,0-1.6,0.7-1.6,1.6v1.1c0,0.9,0.7,1.6,1.6,1.6h1.8v2.8h-87V80h2.9c0.9,0,1.6-0.7,1.6-1.6v-1.1c0-0.9-0.7-1.6-1.6-1.6h-2.9 V46.9h2.9c0.9,0,1.6-0.7,1.6-1.6v-1.1c0-0.9-0.7-1.6-1.6-1.6h-2.9L19.7,39.9L19.7,39.9z M93.4,42.7h5.9c0.9,0,1.6,0.7,1.6,1.6v1.1 c0,0.9-0.7,1.6-1.6,1.6h-5.9c-0.9,0-1.6-0.7-1.6-1.6v-1.1C91.8,43.4,92.6,42.7,93.4,42.7z M80.5,42.7h5.9c0.9,0,1.6,0.7,1.6,1.6 v1.1c0,0.9-0.7,1.6-1.6,1.6h-5.9c-0.9,0-1.6-0.7-1.6-1.6v-1.1C78.9,43.4,79.6,42.7,80.5,42.7z M67.5,42.7h5.9 c0.9,0,1.6,0.7,1.6,1.6v1.1c0,0.9-0.7,1.6-1.6,1.6h-5.9c-0.9,0-1.6-0.7-1.6-1.6v-1.1C65.9,43.4,66.6,42.7,67.5,42.7z M54.5,42.7 h5.9c0.9,0,1.6,0.7,1.6,1.6v1.1c0,0.9-0.7,1.6-1.6,1.6h-5.9c-0.9,0-1.6-0.7-1.6-1.6v-1.1C52.9,43.4,53.6,42.7,54.5,42.7z M41.5,42.7h5.9c0.9,0,1.6,0.7,1.6,1.6v1.1c0,0.9-0.7,1.6-1.6,1.6h-5.9c-0.9,0-1.6-0.7-1.6-1.6v-1.1C39.9,43.4,40.6,42.7,41.5,42.7 z M28.5,42.7h5.9c0.9,0,1.6,0.7,1.6,1.6v1.1c0,0.9-0.7,1.6-1.6,1.6h-5.9c-0.9,0-1.6-0.7-1.6-1.6v-1.1 C26.9,43.4,27.6,42.7,28.5,42.7z M93.4,75.7h5.9c0.9,0,1.6,0.7,1.6,1.6v1.1c0,0.9-0.7,1.6-1.6,1.6h-5.9c-0.9,0-1.6-0.7-1.6-1.6 v-1.1C91.8,76.4,92.6,75.7,93.4,75.7z M80.5,75.7h5.9c0.9,0,1.6,0.7,1.6,1.6v1.1c0,0.9-0.7,1.6-1.6,1.6h-5.9 c-0.9,0-1.6-0.7-1.6-1.6v-1.1C78.9,76.4,79.6,75.7,80.5,75.7z M67.5,75.7h5.9c0.9,0,1.6,0.7,1.6,1.6v1.1c0,0.9-0.7,1.6-1.6,1.6 h-5.9c-0.9,0-1.6-0.7-1.6-1.6v-1.1C65.9,76.4,66.6,75.7,67.5,75.7z M54.5,75.7h5.9c0.9,0,1.6,0.7,1.6,1.6v1.1 c0,0.9-0.7,1.6-1.6,1.6h-5.9c-0.9,0-1.6-0.7-1.6-1.6v-1.1C52.9,76.4,53.6,75.7,54.5,75.7z M41.5,75.7h5.9c0.9,0,1.6,0.7,1.6,1.6 v1.1c0,0.9-0.7,1.6-1.6,1.6h-5.9c-0.9,0-1.6-0.7-1.6-1.6v-1.1C39.9,76.4,40.6,75.7,41.5,75.7z"></path> </g> </svg> 