<?xml version="1.0" encoding="UTF-8"?> <!-- Generator: Adobe Illustrator 24.1.1, SVG Export Plug-In . SVG Version: 6.00 Build 0) --> <svg xmlns:xodm="http://www.corel.com/coreldraw/odm/2003" xmlns="http://www.w3.org/2000/svg" xmlns:xlink="http://www.w3.org/1999/xlink" id="Layer_1" x="0px" y="0px" viewBox="0 0 126.5 122.2" style="enable-background:new 0 0 126.5 122.2;" xml:space="preserve"> <style type="text/css"> .st0{fill-rule:evenodd;clip-rule:evenodd;fill:#E6E6E6;stroke:#999999;stroke-width:0.8198;stroke-miterlimit:10;} .st1{fill-rule:evenodd;clip-rule:evenodd;fill:url(#SVGID_1_);} .st2{fill-rule:evenodd;clip-rule:evenodd;fill:#073161;} .st3{fill-rule:evenodd;clip-rule:evenodd;fill:#0B4387;} .st4{fill-rule:evenodd;clip-rule:evenodd;fill:#1262C4;} .st5{fill-rule:evenodd;clip-rule:evenodd;fill:url(#SVGID_2_);} .st6{fill-rule:evenodd;clip-rule:evenodd;fill:#0E478C;} .st7{fill-rule:evenodd;clip-rule:evenodd;fill:#7BEAF2;} .st8{fill-rule:evenodd;clip-rule:evenodd;fill:url(#SVGID_3_);} .st9{fill-rule:evenodd;clip-rule:evenodd;fill:#69E0E8;} .st10{fill-rule:evenodd;clip-rule:evenodd;fill:#333333;} .st11{fill-rule:evenodd;clip-rule:evenodd;fill:#426EA1;} .st12{fill-rule:evenodd;clip-rule:evenodd;fill:#1D3B5E;} .st13{fill-rule:evenodd;clip-rule:evenodd;fill:#003333;} .st14{fill-rule:evenodd;clip-rule:evenodd;fill:#8BA8C4;} .st15{fill-rule:evenodd;clip-rule:evenodd;fill:#336699;} .st16{fill-rule:evenodd;clip-rule:evenodd;fill:url(#SVGID_4_);} .st17{fill-rule:evenodd;clip-rule:evenodd;fill:#FEFEFE;} .st18{fill-rule:evenodd;clip-rule:evenodd;fill:#697079;} .st19{fill-rule:evenodd;clip-rule:evenodd;fill:#E8C331;} .st20{fill-rule:evenodd;clip-rule:evenodd;fill:url(#SVGID_5_);} .st21{fill-rule:evenodd;clip-rule:evenodd;fill:#B8902B;} .st22{fill-rule:evenodd;clip-rule:evenodd;fill:#FFFFFF;} .st23{fill-rule:evenodd;clip-rule:evenodd;fill:#284854;} .st24{fill-rule:evenodd;clip-rule:evenodd;fill:url(#SVGID_6_);} .st25{fill-rule:evenodd;clip-rule:evenodd;fill:url(#SVGID_7_);} .st26{fill-rule:evenodd;clip-rule:evenodd;fill:url(#SVGID_8_);} .st27{fill-rule:evenodd;clip-rule:evenodd;fill:url(#SVGID_9_);} .st28{fill-rule:evenodd;clip-rule:evenodd;fill:url(#SVGID_10_);} .st29{clip-path:url(#SVGID_12_);} .st30{fill-rule:evenodd;clip-rule:evenodd;fill:url(#SVGID_13_);} .st31{fill:#E6E6E6;} .st32{fill:#7FEEFA;} .st33{fill-rule:evenodd;clip-rule:evenodd;fill:url(#SVGID_14_);} </style> <g> <path class="st0" d="M63.2,0.8c34.3,0,62,27,62,60.4c0,33.3-27.8,60.3-62,60.3s-62-27-62-60.3C1.2,27.8,28.9,0.8,63.2,0.8L63.2,0.8 z"></path> <linearGradient id="SVGID_1_" gradientUnits="userSpaceOnUse" x1="-18873.625" y1="4715.7051" x2="-18873.625" y2="7588.7563" gradientTransform="matrix(2.834646e-02 0 0 -2.834646e-02 598.2078 210.2056)"> <stop offset="0" style="stop-color:#0E1C30"></stop> <stop offset="1" style="stop-color:#8A99AC"></stop> </linearGradient> <path class="st1" d="M81.2,18.1H45.2c-3.3,0-6,2.6-6,5.8v74.3c0,3.2,2.7,5.8,6,5.8h36.1c3.3,0,6-2.6,6-5.8V23.9 C87.2,20.7,84.5,18.1,81.2,18.1z"></path> <polygon class="st17" points="44,94.3 82.4,94.3 82.4,23.7 44,23.7 "></polygon> <path class="st18" d="M63.2,95.2c2.1,0,3.7,1.6,3.7,3.6c0,2-1.7,3.6-3.7,3.6s-3.7-1.6-3.7-3.6C59.5,96.9,61.1,95.2,63.2,95.2z"></path> <path class="st19" d="M63.2,42.7c9.2,0,16.7,7.3,16.7,16.3c0,9-7.5,16.3-16.7,16.3C54,75.3,46.5,68,46.5,59 C46.5,50,54,42.7,63.2,42.7z"></path> <linearGradient id="SVGID_2_" gradientUnits="userSpaceOnUse" x1="-18873.6172" y1="4680.4883" x2="-18873.6172" y2="5967.5396" gradientTransform="matrix(2.834646e-02 0 0 -2.834646e-02 598.2078 210.2056)"> <stop offset="0" style="stop-color:#F8D97C"></stop> <stop offset="1" style="stop-color:#FBEFCB"></stop> </linearGradient> <path class="st5" d="M63.2,43.6c8.8,0,15.9,6.9,15.9,15.5c0,8.5-7.1,15.5-15.9,15.5c-8.8,0-15.9-6.9-15.9-15.5 C47.3,50.5,54.4,43.6,63.2,43.6L63.2,43.6z"></path> <path class="st21" d="M63,44.3h0.4v0.8c-0.1,0-0.1,0-0.2,0c-0.1,0-0.1,0-0.2,0V44.3z M66.8,45.5l0.2-0.8l0.3,0.1l-0.2,0.8 C67,45.5,66.9,45.5,66.8,45.5z M70.2,46.8l0.4-0.7l0.3,0.2L70.5,47C70.4,46.9,70.3,46.9,70.2,46.8L70.2,46.8z M73.2,49l0.6-0.6 l0.2,0.2l-0.6,0.6C73.4,49.2,73.3,49.1,73.2,49L73.2,49z M75.6,51.9l0.7-0.4l0.2,0.3l-0.7,0.4C75.7,52.1,75.6,52,75.6,51.9 L75.6,51.9z M77,55.2l0.8-0.2l0.1,0.3l-0.8,0.2C77.1,55.5,77.1,55.3,77,55.2L77,55.2z M77.6,58.8h0.8v0.3h-0.8c0-0.1,0-0.1,0-0.2 C77.6,59,77.6,58.9,77.6,58.8L77.6,58.8z M77.1,62.5l0.8,0.2L77.8,63L77,62.8C77.1,62.7,77.1,62.6,77.1,62.5L77.1,62.5z M75.7,65.9 l0.7,0.4l-0.2,0.3l-0.7-0.4C75.6,66.1,75.7,66,75.7,65.9L75.7,65.9z M73.5,68.8l0.6,0.6l-0.2,0.2L73.2,69 C73.3,68.9,73.4,68.9,73.5,68.8L73.5,68.8z M70.5,71l0.4,0.7l-0.3,0.2l-0.4-0.7C70.3,71.1,70.4,71.1,70.5,71L70.5,71z M67.1,72.5 l0.2,0.8L67,73.3l-0.2-0.8C66.9,72.5,67,72.5,67.1,72.5z M63.4,73v0.8H63V73c0.1,0,0.1,0,0.2,0C63.3,73,63.3,73,63.4,73z M59.7,72.6l-0.2,0.8l-0.3-0.1l0.2-0.8C59.4,72.5,59.5,72.5,59.7,72.6z M56.2,71.2l-0.4,0.7l-0.3-0.2l0.4-0.7 C56,71.1,56.1,71.1,56.2,71.2L56.2,71.2z M53.2,69l-0.6,0.6l-0.2-0.2l0.6-0.6C53,68.9,53.1,68.9,53.2,69L53.2,69z M50.9,66.2 l-0.7,0.4L50,66.3l0.7-0.4C50.7,66,50.8,66.1,50.9,66.2L50.9,66.2z M49.4,62.8L48.6,63l-0.1-0.3l0.8-0.2 C49.3,62.6,49.4,62.7,49.4,62.8L49.4,62.8z M48.9,59.2H48v-0.3h0.8c0,0.1,0,0.1,0,0.2C48.8,59.1,48.9,59.1,48.9,59.2L48.9,59.2z M49.3,55.6l-0.8-0.2l0.1-0.3l0.8,0.2C49.4,55.3,49.3,55.5,49.3,55.6z M50.7,52.2L50,51.8l0.2-0.3l0.7,0.4 C50.8,52,50.7,52.1,50.7,52.2L50.7,52.2z M52.9,49.3l-0.6-0.6l0.2-0.2l0.6,0.6C53.1,49.1,53,49.2,52.9,49.3L52.9,49.3z M55.9,47 l-0.4-0.7l0.3-0.2l0.4,0.7C56.1,46.9,56,46.9,55.9,47L55.9,47z M59.3,45.6l-0.2-0.8l0.3-0.1l0.2,0.8C59.5,45.5,59.4,45.5,59.3,45.6 z"></path> <path class="st21" d="M61.2,44.4l0.3,0l0.1,0.8c-0.1,0-0.1,0-0.2,0c-0.1,0-0.1,0-0.2,0L61.2,44.4L61.2,44.4z M65,45.2l0.1-0.8 l0.3,0l-0.1,0.8C65.3,45.2,65.1,45.2,65,45.2z M68.7,46.1l0.3-0.7l0.3,0.1L69,46.2C68.9,46.2,68.8,46.1,68.7,46.1z M71.9,47.9 l0.5-0.6l0.3,0.2l-0.5,0.6C72.1,48,72,48,71.9,47.9z M74.6,50.5l0.7-0.5l0.2,0.3l-0.7,0.5C74.7,50.7,74.6,50.6,74.6,50.5L74.6,50.5 z M76.5,53.6l0.8-0.3l0.1,0.3l-0.8,0.3C76.5,53.8,76.5,53.7,76.5,53.6L76.5,53.6z M77.4,57.1l0.8-0.1l0,0.3l-0.8,0.1 c0-0.1,0-0.1,0-0.2C77.5,57.3,77.4,57.2,77.4,57.1z M77.5,60.8l0.8,0.1l0,0.3l-0.8-0.1C77.4,61,77.4,60.9,77.5,60.8L77.5,60.8z M76.5,64.3l0.8,0.3l-0.1,0.3l-0.8-0.3C76.4,64.5,76.5,64.4,76.5,64.3z M74.6,67.5l0.6,0.5l-0.2,0.3l-0.6-0.5 C74.5,67.7,74.6,67.6,74.6,67.5L74.6,67.5z M72,70.1l0.5,0.6l-0.3,0.2l-0.5-0.6C71.8,70.2,71.9,70.1,72,70.1L72,70.1z M68.8,71.9 l0.3,0.7l-0.3,0.1L68.4,72C68.5,72,68.6,72,68.8,71.9z M65.1,72.9l0.1,0.8l-0.3,0l-0.1-0.8c0.1,0,0.1,0,0.2,0 C65,72.9,65.1,72.9,65.1,72.9z M61.4,72.9l-0.1,0.8l-0.3,0l0.1-0.8C61.2,72.8,61.3,72.9,61.4,72.9z M57.8,71.9l-0.3,0.7l-0.3-0.1 l0.3-0.7C57.5,71.9,57.7,71.9,57.8,71.9z M54.5,70.1L54,70.8l-0.3-0.2l0.5-0.6C54.3,70,54.4,70.1,54.5,70.1L54.5,70.1z M51.8,67.6 L51.2,68L51,67.8l0.7-0.5C51.7,67.4,51.8,67.5,51.8,67.6L51.8,67.6z M50,64.4l-0.8,0.3l-0.1-0.3l0.8-0.3 C49.9,64.2,49.9,64.3,50,64.4z M49,60.9L48.2,61l0-0.3l0.8-0.1c0,0.1,0,0.1,0,0.2C49,60.8,49,60.8,49,60.9z M49,57.2l-0.8-0.1 l0-0.3l0.8,0.1C49,57,49,57.1,49,57.2z M49.9,53.7l-0.8-0.3l0.1-0.3l0.8,0.3C50,53.5,50,53.6,49.9,53.7L49.9,53.7z M51.8,50.6 l-0.6-0.5l0.2-0.3l0.6,0.5C51.9,50.4,51.9,50.5,51.8,50.6L51.8,50.6z M54.4,48l-0.5-0.6l0.3-0.2l0.5,0.6 C54.6,47.8,54.5,47.9,54.4,48z M57.7,46.1l-0.3-0.7l0.3-0.1L58,46C57.9,46,57.8,46.1,57.7,46.1z"></path> <polygon class="st22" points="69,47.8 64.1,56.2 69.5,57.4 57.9,70.2 63.1,59.1 56.9,58.3 "></polygon> </g> </svg> 