<?xml version="1.0" encoding="UTF-8"?> <!-- Generator: Adobe Illustrator 24.1.1, SVG Export Plug-In . SVG Version: 6.00 Build 0) --> <svg xmlns="http://www.w3.org/2000/svg" xmlns:xlink="http://www.w3.org/1999/xlink" id="Layer_1" x="0px" y="0px" viewBox="0 0 1106 655" style="enable-background:new 0 0 1106 655;" xml:space="preserve"> <style type="text/css"> .st0{fill:none;stroke:#16B157;stroke-linecap:round;} .st1{fill:none;stroke:#16B157;} .st2{fill-rule:evenodd;clip-rule:evenodd;fill:#D3D3D3;} .st3{fill:#DBDBDB;fill-opacity:0.2;} .st4{display:none;} .st5{display:inline;} .st6{fill:#FF9F67;} .st7{display:inline;fill:#FFFFFF;} </style> <path class="st0" d="M2,192h1018"></path> <path class="st1" d="M1035,316.5c0-82.3,0-31.9,0-110.5c0,0,0-14-15-14"></path> <path class="st1" d="M1035,290c0,82.6,0,32.1,0,110.9c0,0,0,14.1-15,14.1"></path> <path class="st0" d="M90,415h931"></path> <g> <path class="st2" d="M455,150l-4.6,4.6l-4.6-4.6H379v-46h143v46H455z"></path> </g> <g> <path class="st2" d="M903,150l-4.6,4.6l-4.6-4.6H827v-46h143v46H903z"></path> </g> <path class="st3" d="M394,0h113c8.3,0,15,6.7,15,15v88H379V15C379,6.7,385.7,0,394,0z"></path> <g> <path class="st2" d="M665,150l-4.6,4.6l-4.6-4.6H589v-46h143v46H665z"></path> </g> <path class="st3" d="M604,0h113c8.3,0,15,6.7,15,15v88H589V15C589,6.7,595.7,0,604,0z"></path> <g> <path class="st2" d="M212,150l-4.6,4.6l-4.6-4.6H136v-46h143v46H212z"></path> </g> <path class="st3" d="M151,0h113c8.3,0,15,6.7,15,15v88H136V15C136,6.7,142.7,0,151,0z"></path> <path class="st3" d="M842,0h113c8.3,0,15,6.7,15,15v88H827V15C827,6.7,833.7,0,842,0z"></path> <g> <path class="st2" d="M455,373l-4.6,4.6l-4.6-4.6H379v-46h143v46H455z"></path> </g> <g> <path class="st2" d="M903,373l-4.6,4.6l-4.6-4.6H827v-46h143v46H903z"></path> </g> <path class="st3" d="M394,223h113c8.3,0,15,6.7,15,15v88H379v-88C379,229.7,385.7,223,394,223z"></path> <g> <path class="st2" d="M665,373l-4.6,4.6l-4.6-4.6H589v-46h143v46H665z"></path> </g> <path class="st3" d="M604,223h113c8.3,0,15,6.7,15,15v88H589v-88C589,229.7,595.7,223,604,223z"></path> <g> <path class="st2" d="M212,373l-4.6,4.6l-4.6-4.6H136v-46h143v46H212z"></path> </g> <path class="st3" d="M151,223h113c8.3,0,15,6.7,15,15v88H136v-88C136,229.7,142.7,223,151,223z"></path> <path class="st3" d="M842,223h113c8.3,0,15,6.7,15,15v88H827v-88C827,229.7,833.7,223,842,223z"></path> <path class="st0" d="M89.5,638H1104"></path> <g class="st4"> <g class="st5"> <circle class="st6" cx="206" cy="189" r="10"></circle> </g> <g class="st5"> <circle class="st6" cx="450" cy="189" r="10"></circle> </g> <g class="st5"> <circle class="st6" cx="660" cy="189" r="10"></circle> </g> <g class="st5"> <circle class="st6" cx="898" cy="189" r="10"></circle> </g> <circle class="st7" cx="206" cy="189" r="4"></circle> <circle class="st7" cx="450" cy="189" r="4"></circle> <circle class="st7" cx="660" cy="189" r="4"></circle> <circle class="st7" cx="898" cy="189" r="4"></circle> <g class="st5"> <circle class="st6" cx="206" cy="412" r="10"></circle> </g> <g class="st5"> <circle class="st6" cx="450" cy="412" r="10"></circle> </g> <g class="st5"> <circle class="st6" cx="660" cy="412" r="10"></circle> </g> <g class="st5"> <circle class="st6" cx="898" cy="412" r="10"></circle> </g> <circle class="st7" cx="206" cy="412" r="4"></circle> <circle class="st7" cx="450" cy="412" r="4"></circle> <circle class="st7" cx="660" cy="412" r="4"></circle> <circle class="st7" cx="898" cy="412" r="4"></circle> <g class="st5"> <circle class="st6" cx="206" cy="635.6" r="10"></circle> </g> <g class="st5"> <circle class="st6" cx="450" cy="635.6" r="10"></circle> </g> <g class="st5"> <circle class="st6" cx="660" cy="635.6" r="10"></circle> </g> <g class="st5"> <circle class="st6" cx="898" cy="635.6" r="10"></circle> </g> <circle class="st7" cx="206" cy="635.6" r="4"></circle> <circle class="st7" cx="450" cy="635.6" r="4"></circle> <circle class="st7" cx="660" cy="635.6" r="4"></circle> <circle class="st7" cx="898" cy="635.6" r="4"></circle> <g class="st5"> <circle class="st6" cx="206" cy="636" r="10"></circle> </g> <g class="st5"> <circle class="st6" cx="450" cy="636" r="10"></circle> </g> <g class="st5"> <circle class="st6" cx="660" cy="636" r="10"></circle> </g> <g class="st5"> <circle class="st6" cx="898" cy="636" r="10"></circle> </g> <circle class="st7" cx="206" cy="636" r="4"></circle> <circle class="st7" cx="450" cy="636" r="4"></circle> <circle class="st7" cx="660" cy="636" r="4"></circle> <circle class="st7" cx="898" cy="636" r="4"></circle> </g> <g> <path class="st2" d="M455,611l-4.6,4.6l-4.6-4.6H379v-46h143v46H455z"></path> </g> <g> <path class="st2" d="M903,611l-4.6,4.6l-4.6-4.6H827v-46h143v46H903z"></path> </g> <path class="st3" d="M394,461h113c8.3,0,15,6.7,15,15v88H379v-88C379,467.7,385.7,461,394,461z"></path> <g> <path class="st2" d="M665,611l-4.6,4.6l-4.6-4.6H589v-46h143v46H665z"></path> </g> <path class="st3" d="M604,461h113c8.3,0,15,6.7,15,15v88H589v-88C589,467.7,595.7,461,604,461z"></path> <g> <path class="st2" d="M212,611l-4.6,4.6l-4.6-4.6H136v-46h143v46H212z"></path> </g> <path class="st3" d="M151,461h113c8.3,0,15,6.7,15,15v88H136v-88C136,467.7,142.7,461,151,461z"></path> <path class="st3" d="M842,461h113c8.3,0,15,6.7,15,15v88H827v-88C827,467.7,833.7,461,842,461z"></path> <path class="st1" d="M75,539c0-82,0-31.8,0-110.1c0,0,0-13.9,15-13.9"></path> <path class="st1" d="M75,512.2c0,82.8,0,32.6,0,111.7c0,0,0,14.1,15,14.1"></path> </svg> 