<?xml version="1.0" encoding="UTF-8"?> <!-- Generator: Adobe Illustrator 24.1.1, SVG Export Plug-In . SVG Version: 6.00 Build 0) --> <svg xmlns:xodm="http://www.corel.com/coreldraw/odm/2003" xmlns="http://www.w3.org/2000/svg" xmlns:xlink="http://www.w3.org/1999/xlink" id="Layer_1" x="0px" y="0px" viewBox="0 0 126.5 122.2" style="enable-background:new 0 0 126.5 122.2;" xml:space="preserve"> <style type="text/css"> .st0{fill-rule:evenodd;clip-rule:evenodd;fill:#E6E6E6;stroke:#999999;stroke-width:0.8198;stroke-miterlimit:10;} .st1{fill-rule:evenodd;clip-rule:evenodd;fill:url(#SVGID_1_);} .st2{fill-rule:evenodd;clip-rule:evenodd;fill:#073161;} .st3{fill-rule:evenodd;clip-rule:evenodd;fill:#0B4387;} .st4{fill-rule:evenodd;clip-rule:evenodd;fill:#1262C4;} .st5{fill-rule:evenodd;clip-rule:evenodd;fill:url(#SVGID_2_);} .st6{fill-rule:evenodd;clip-rule:evenodd;fill:#0E478C;} .st7{fill-rule:evenodd;clip-rule:evenodd;fill:#7BEAF2;} .st8{fill-rule:evenodd;clip-rule:evenodd;fill:url(#SVGID_3_);} .st9{fill-rule:evenodd;clip-rule:evenodd;fill:#69E0E8;} .st10{fill-rule:evenodd;clip-rule:evenodd;fill:#333333;} .st11{fill-rule:evenodd;clip-rule:evenodd;fill:#426EA1;} .st12{fill-rule:evenodd;clip-rule:evenodd;fill:#1D3B5E;} .st13{fill-rule:evenodd;clip-rule:evenodd;fill:#003333;} .st14{fill-rule:evenodd;clip-rule:evenodd;fill:#8BA8C4;} .st15{fill-rule:evenodd;clip-rule:evenodd;fill:#336699;} .st16{fill-rule:evenodd;clip-rule:evenodd;fill:url(#SVGID_4_);} .st17{fill-rule:evenodd;clip-rule:evenodd;fill:#FEFEFE;} .st18{fill-rule:evenodd;clip-rule:evenodd;fill:#697079;} .st19{fill-rule:evenodd;clip-rule:evenodd;fill:#E8C331;} .st20{fill-rule:evenodd;clip-rule:evenodd;fill:url(#SVGID_5_);} .st21{fill-rule:evenodd;clip-rule:evenodd;fill:#B8902B;} .st22{fill-rule:evenodd;clip-rule:evenodd;fill:#FFFFFF;} .st23{fill-rule:evenodd;clip-rule:evenodd;fill:#284854;} .st24{fill-rule:evenodd;clip-rule:evenodd;fill:url(#SVGID_6_);} .st25{fill-rule:evenodd;clip-rule:evenodd;fill:url(#SVGID_7_);} .st26{fill-rule:evenodd;clip-rule:evenodd;fill:url(#SVGID_8_);} .st27{fill-rule:evenodd;clip-rule:evenodd;fill:url(#SVGID_9_);} .st28{fill-rule:evenodd;clip-rule:evenodd;fill:url(#SVGID_10_);} .st29{clip-path:url(#SVGID_12_);} .st30{fill-rule:evenodd;clip-rule:evenodd;fill:url(#SVGID_13_);} .st31{fill:#E6E6E6;} .st32{fill:#7FEEFA;} .st33{fill-rule:evenodd;clip-rule:evenodd;fill:url(#SVGID_14_);} </style> <g> <path class="st0" d="M63.2,1c34.3,0,62,27,62,60.4c0,33.3-27.8,60.3-62,60.3c-34.3,0-62-27-62-60.3C1.2,28,29,1,63.2,1L63.2,1z"></path> <linearGradient id="SVGID_1_" gradientUnits="userSpaceOnUse" x1="-18874.0742" y1="6097.8706" x2="-18874.0742" y2="3667.6682" gradientTransform="matrix(2.834646e-02 0 0 -2.834646e-02 598.2078 210.2056)"> <stop offset="0" style="stop-color:#7AA2FF"></stop> <stop offset="1" style="stop-color:#065ABA"></stop> </linearGradient> <path class="st1" d="M29.5,101.2l3.2-62.5l45.1-3.2l5.6,2.1h7.6l5.7,65.5l-20.7,8C76.2,111.2,29.4,101.1,29.5,101.2L29.5,101.2z"></path> <polygon class="st2" points="96.9,103.2 96.9,103.2 76.4,111.2 85.3,98 "></polygon> <polygon class="st3" points="78,35.6 78,35.6 83.6,37.7 83.6,37.7 85.4,98.1 76.3,111.2 "></polygon> <polygon class="st4" points="83.6,37.7 91.2,37.7 96.9,103.2 85.4,98.1 "></polygon> <linearGradient id="SVGID_2_" gradientUnits="userSpaceOnUse" x1="-18658.4883" y1="6442.9722" x2="-18658.4883" y2="6995.6025" gradientTransform="matrix(2.834646e-02 0 0 -2.834646e-02 598.2078 210.2056)"> <stop offset="0" style="stop-color:#5C2A61"></stop> <stop offset="1" style="stop-color:#7A527E"></stop> </linearGradient> <path class="st5" d="M81.6,36.9c0-0.2,0-0.3,0-0.5c-0.3-8.3-1.2-18.2-8.7-23c-2-1.2-3.9-2.1-6.3-1.5c-0.6,0.1-1.2,0.3-2,0.6 c-7.1,3.8-7.9,17.8-7.6,24.5l1-0.1c0-3.5,0.3-13.4,2.5-17.8c1.6-3.2,3.7-6.8,8.6-6.4c7.8,1.7,9.7,10.2,10.9,16.7 c0,0,0.5,3.3,0.4,6.7c0,0.1,0,0.1,0,0.2L81.6,36.9L81.6,36.9z"></path> <path class="st6" d="M44.8,40.6c0.9,0,1.7,0.7,1.7,1.7c0,0.9-0.7,1.7-1.7,1.7c-0.9,0-1.7-0.7-1.7-1.7 C43.1,41.3,43.8,40.6,44.8,40.6z"></path> <path class="st6" d="M66.3,39.5c0.9,0,1.7,0.7,1.7,1.7s-0.7,1.7-1.7,1.7c-0.9,0-1.7-0.7-1.7-1.7S65.4,39.5,66.3,39.5z"></path> <path class="st7" d="M44.7,40.2c1.1,0,2,0.9,2,2.1c0,1.1-0.9,2.1-2,2.1c-1.1,0-2-0.9-2-2.1C42.8,41.1,43.6,40.2,44.7,40.2z M44.7,40.8c0.7,0,1.4,0.6,1.4,1.4c0,0.8-0.6,1.4-1.4,1.4c-0.7,0-1.4-0.6-1.4-1.4C43.4,41.5,44,40.8,44.7,40.8z"></path> <path class="st7" d="M66.3,39.1c1.1,0,2.1,0.9,2.1,2.1c0,1.2-0.9,2.1-2.1,2.1c-1.1,0-2.1-0.9-2.1-2.1C64.2,40,65.2,39.1,66.3,39.1z M66.3,39.7c0.8,0,1.4,0.7,1.4,1.5c0,0.8-0.6,1.5-1.4,1.5s-1.4-0.7-1.4-1.5C64.9,40.4,65.5,39.7,66.3,39.7z"></path> <linearGradient id="SVGID_3_" gradientUnits="userSpaceOnUse" x1="-19122.0781" y1="6343.1909" x2="-19122.0781" y2="7081.7271" gradientTransform="matrix(2.834646e-02 0 0 -2.834646e-02 598.2078 210.2056)"> <stop offset="0" style="stop-color:#751A7D"></stop> <stop offset="1" style="stop-color:#C35ECC"></stop> </linearGradient> <path class="st8" d="M45.9,41.5c0,0-1.6,0.9-1.6-1.1c0.1-5.7,1.2-13.3,4.2-19.3c2.4-4.7,5.8-8.5,11.1-9.6c2.1-0.3,3-0.3,4.8,0.9 c1.6,1,3.3,3.5,3.7,8.4c0,0,0.2,11.5-1.1,18.1c0,0-0.5,0.8,0.3,1.2l0.4,0.7c0,0-2.3,0.4-1.8-1.6c0,0,1.9-13.2,1-19.4 c-0.1-0.9-0.5-2.6-0.8-3.4c-0.7-1.9-2.6-4.5-6-4c-1,0.2-3.1,0.9-4,1.5C48.2,19,45.5,30.6,45.1,39.2c0,0,0,0,0,0 c-0.1,0.4-0.1,1.1-0.1,1.1h0c0,0,0,0,0,0C45.1,41.1,45.4,41.1,45.9,41.5L45.9,41.5L45.9,41.5z"></path> <path class="st9" d="M49.5,64c3.4-1.1,7,0.7,8.1,4c1.1,3.3-0.8,6.8-4.1,7.9c-3.4,1.1-7-0.7-8.1-4C44.3,68.6,46.1,65.1,49.5,64z M58.2,67.1c2.7,0,5.3,1.6,6.2,4.3c1.1,3.3-0.8,6.8-4.1,7.9c-2.7,0.9-5.7-0.2-7.2-2.3c0.2,0,0.4-0.1,0.6-0.2c0.1,0,0.2-0.1,0.3-0.1 c1.4,1.8,3.8,2.6,6.1,1.8c2.9-0.9,4.5-4,3.6-6.9c-0.7-2.2-2.8-3.7-5.1-3.8c0-0.1,0-0.2-0.1-0.2C58.3,67.5,58.2,67.3,58.2,67.1 L58.2,67.1z M58.7,69.3c1.6,0.2,3,1.2,3.5,2.8c0.7,2.2-0.5,4.5-2.7,5.2c-1.6,0.5-3.3,0-4.4-1.1C57.6,74.7,59,72,58.7,69.3 L58.7,69.3z M50.2,66.1c2.2-0.7,4.6,0.5,5.3,2.6c0.7,2.2-0.5,4.5-2.7,5.2c-2.2,0.7-4.6-0.5-5.3-2.6C46.8,69.1,48,66.8,50.2,66.1z M49.8,64.8c2.9-0.9,6.1,0.6,7.1,3.5c1,2.9-0.7,5.9-3.6,6.9c-2.9,0.9-6.1-0.6-7.1-3.5C45.2,68.8,46.8,65.7,49.8,64.8z"></path> </g> </svg> 